<svg width="368" height="395" viewBox="0 0 368 395" fill="none" xmlns="http://www.w3.org/2000/svg">
<g clip-path="url(#clip0_10205_7997)">
<path d="M127.26 62.04C127.26 60.504 127.536 58.98 128.088 57.468C128.64 55.932 129.444 54.564 130.5 53.364C131.58 52.14 132.888 51.156 134.424 50.412C135.96 49.668 137.7 49.296 139.644 49.296C141.972 49.296 143.964 49.812 145.62 50.844C147.276 51.876 148.524 53.22 149.364 54.876L146.196 57C145.836 56.232 145.404 55.584 144.9 55.056C144.396 54.528 143.844 54.108 143.244 53.796C142.644 53.484 142.02 53.268 141.372 53.148C140.724 53.004 140.1 52.932 139.5 52.932C138.156 52.932 136.98 53.208 135.972 53.76C134.964 54.288 134.112 54.996 133.416 55.884C132.744 56.772 132.228 57.768 131.868 58.872C131.532 59.976 131.364 61.08 131.364 62.184C131.364 63.432 131.568 64.62 131.976 65.748C132.384 66.876 132.948 67.872 133.668 68.736C134.412 69.6 135.288 70.296 136.296 70.824C137.304 71.328 138.408 71.58 139.608 71.58C140.232 71.58 140.868 71.508 141.516 71.364C142.188 71.196 142.824 70.944 143.424 70.608C144.048 70.248 144.612 69.804 145.116 69.276C145.644 68.748 146.076 68.112 146.412 67.368L149.76 69.276C149.352 70.236 148.776 71.088 148.032 71.832C147.288 72.552 146.448 73.164 145.512 73.668C144.576 74.172 143.58 74.556 142.524 74.82C141.492 75.084 140.472 75.216 139.464 75.216C137.664 75.216 136.02 74.832 134.532 74.064C133.044 73.296 131.76 72.3 130.68 71.076C129.6 69.828 128.76 68.424 128.16 66.864C127.56 65.28 127.26 63.672 127.26 62.04ZM163.569 59.592C162.033 59.64 160.665 60 159.465 60.672C158.289 61.32 157.449 62.256 156.945 63.48V75H152.985V56.172H156.657V60.384C157.305 59.088 158.145 58.056 159.177 57.288C160.233 56.496 161.361 56.064 162.561 55.992C162.801 55.992 162.993 55.992 163.137 55.992C163.305 55.992 163.449 56.004 163.569 56.028V59.592ZM174.033 75.36C172.569 75.36 171.237 75.108 170.037 74.604C168.837 74.076 167.805 73.368 166.941 72.48C166.101 71.592 165.441 70.56 164.961 69.384C164.505 68.208 164.277 66.96 164.277 65.64C164.277 64.32 164.505 63.072 164.961 61.896C165.441 60.696 166.101 59.652 166.941 58.764C167.805 57.852 168.837 57.144 170.037 56.64C171.237 56.112 172.581 55.848 174.069 55.848C175.533 55.848 176.853 56.112 178.029 56.64C179.229 57.168 180.249 57.876 181.089 58.764C181.929 59.628 182.565 60.648 182.997 61.824C183.453 62.976 183.681 64.188 183.681 65.46C183.681 65.748 183.669 66.024 183.645 66.288C183.621 66.528 183.597 66.732 183.573 66.9H168.489C168.561 67.74 168.753 68.496 169.065 69.168C169.401 69.84 169.821 70.428 170.325 70.932C170.853 71.412 171.441 71.784 172.089 72.048C172.761 72.312 173.457 72.444 174.177 72.444C174.705 72.444 175.221 72.384 175.725 72.264C176.253 72.12 176.733 71.928 177.165 71.688C177.597 71.424 177.981 71.112 178.317 70.752C178.653 70.392 178.917 69.996 179.109 69.564L182.493 70.536C181.845 71.952 180.765 73.116 179.253 74.028C177.765 74.916 176.025 75.36 174.033 75.36ZM179.757 64.164C179.685 63.372 179.481 62.64 179.145 61.968C178.833 61.296 178.425 60.732 177.921 60.276C177.417 59.796 176.829 59.424 176.157 59.16C175.485 58.896 174.777 58.764 174.033 58.764C173.289 58.764 172.581 58.896 171.909 59.16C171.261 59.424 170.685 59.796 170.181 60.276C169.677 60.732 169.269 61.296 168.957 61.968C168.645 62.64 168.453 63.372 168.381 64.164H179.757ZM191.915 75.36C191.003 75.36 190.151 75.216 189.359 74.928C188.591 74.616 187.919 74.196 187.343 73.668C186.791 73.14 186.347 72.516 186.011 71.796C185.699 71.076 185.543 70.296 185.543 69.456C185.543 68.568 185.735 67.764 186.119 67.044C186.503 66.324 187.043 65.7 187.739 65.172C188.459 64.644 189.299 64.236 190.259 63.948C191.243 63.66 192.323 63.516 193.499 63.516C194.387 63.516 195.263 63.6 196.127 63.768C196.991 63.912 197.771 64.116 198.467 64.38V63.084C198.467 61.692 198.071 60.612 197.279 59.844C196.487 59.052 195.347 58.656 193.859 58.656C192.851 58.656 191.855 58.848 190.871 59.232C189.911 59.592 188.915 60.12 187.883 60.816L186.659 58.296C189.083 56.664 191.603 55.848 194.219 55.848C196.811 55.848 198.827 56.508 200.267 57.828C201.707 59.148 202.427 61.044 202.427 63.516V70.32C202.427 71.16 202.775 71.592 203.471 71.616V75C203.087 75.072 202.751 75.12 202.463 75.144C202.199 75.168 201.935 75.18 201.671 75.18C200.903 75.18 200.303 74.988 199.871 74.604C199.463 74.22 199.211 73.728 199.115 73.128L199.007 71.94C198.167 73.044 197.123 73.896 195.875 74.496C194.651 75.072 193.331 75.36 191.915 75.36ZM192.995 72.444C193.955 72.444 194.855 72.276 195.695 71.94C196.559 71.58 197.231 71.088 197.711 70.464C198.215 70.032 198.467 69.576 198.467 69.096V66.612C197.795 66.348 197.075 66.144 196.307 66C195.563 65.856 194.831 65.784 194.111 65.784C192.695 65.784 191.531 66.096 190.619 66.72C189.731 67.32 189.287 68.124 189.287 69.132C189.287 70.068 189.635 70.86 190.331 71.508C191.027 72.132 191.915 72.444 192.995 72.444ZM217.567 74.028C217.063 74.268 216.367 74.544 215.479 74.856C214.591 75.144 213.643 75.288 212.635 75.288C212.011 75.288 211.423 75.204 210.871 75.036C210.319 74.868 209.827 74.616 209.395 74.28C208.987 73.944 208.663 73.512 208.423 72.984C208.183 72.432 208.063 71.772 208.063 71.004V59.232H205.579V56.172H208.063V49.98H212.023V56.172H216.127V59.232H212.023V69.744C212.071 70.416 212.275 70.908 212.635 71.22C213.019 71.508 213.487 71.652 214.039 71.652C214.591 71.652 215.119 71.556 215.623 71.364C216.127 71.172 216.499 71.016 216.739 70.896L217.567 74.028ZM228.385 75.36C226.921 75.36 225.589 75.108 224.389 74.604C223.189 74.076 222.157 73.368 221.293 72.48C220.453 71.592 219.793 70.56 219.313 69.384C218.857 68.208 218.629 66.96 218.629 65.64C218.629 64.32 218.857 63.072 219.313 61.896C219.793 60.696 220.453 59.652 221.293 58.764C222.157 57.852 223.189 57.144 224.389 56.64C225.589 56.112 226.933 55.848 228.421 55.848C229.885 55.848 231.205 56.112 232.381 56.64C233.581 57.168 234.601 57.876 235.441 58.764C236.281 59.628 236.917 60.648 237.349 61.824C237.805 62.976 238.033 64.188 238.033 65.46C238.033 65.748 238.021 66.024 237.997 66.288C237.973 66.528 237.949 66.732 237.925 66.9H222.841C222.913 67.74 223.105 68.496 223.417 69.168C223.753 69.84 224.173 70.428 224.677 70.932C225.205 71.412 225.793 71.784 226.441 72.048C227.113 72.312 227.809 72.444 228.529 72.444C229.057 72.444 229.573 72.384 230.077 72.264C230.605 72.12 231.085 71.928 231.517 71.688C231.949 71.424 232.333 71.112 232.669 70.752C233.005 70.392 233.269 69.996 233.461 69.564L236.845 70.536C236.197 71.952 235.117 73.116 233.605 74.028C232.117 74.916 230.377 75.36 228.385 75.36ZM234.109 64.164C234.037 63.372 233.833 62.64 233.497 61.968C233.185 61.296 232.777 60.732 232.273 60.276C231.769 59.796 231.181 59.424 230.509 59.16C229.837 58.896 229.129 58.764 228.385 58.764C227.641 58.764 226.933 58.896 226.261 59.16C225.613 59.424 225.037 59.796 224.533 60.276C224.029 60.732 223.621 61.296 223.309 61.968C222.997 62.64 222.805 63.372 222.733 64.164H234.109ZM255.161 75.36C254.249 75.36 253.397 75.216 252.605 74.928C251.837 74.616 251.165 74.196 250.589 73.668C250.037 73.14 249.593 72.516 249.257 71.796C248.945 71.076 248.789 70.296 248.789 69.456C248.789 68.568 248.981 67.764 249.365 67.044C249.749 66.324 250.289 65.7 250.985 65.172C251.705 64.644 252.545 64.236 253.505 63.948C254.489 63.66 255.569 63.516 256.745 63.516C257.633 63.516 258.509 63.6 259.373 63.768C260.237 63.912 261.017 64.116 261.713 64.38V63.084C261.713 61.692 261.317 60.612 260.525 59.844C259.733 59.052 258.593 58.656 257.105 58.656C256.097 58.656 255.101 58.848 254.117 59.232C253.157 59.592 252.161 60.12 251.129 60.816L249.905 58.296C252.329 56.664 254.849 55.848 257.465 55.848C260.057 55.848 262.073 56.508 263.513 57.828C264.953 59.148 265.673 61.044 265.673 63.516V70.32C265.673 71.16 266.021 71.592 266.717 71.616V75C266.333 75.072 265.997 75.12 265.709 75.144C265.445 75.168 265.181 75.18 264.917 75.18C264.149 75.18 263.549 74.988 263.117 74.604C262.709 74.22 262.457 73.728 262.361 73.128L262.253 71.94C261.413 73.044 260.369 73.896 259.121 74.496C257.897 75.072 256.577 75.36 255.161 75.36ZM256.241 72.444C257.201 72.444 258.101 72.276 258.941 71.94C259.805 71.58 260.477 71.088 260.957 70.464C261.461 70.032 261.713 69.576 261.713 69.096V66.612C261.041 66.348 260.321 66.144 259.553 66C258.809 65.856 258.077 65.784 257.357 65.784C255.941 65.784 254.777 66.096 253.865 66.72C252.977 67.32 252.533 68.124 252.533 69.132C252.533 70.068 252.881 70.86 253.577 71.508C254.273 72.132 255.161 72.444 256.241 72.444ZM138.852 116.028C138.348 116.268 137.652 116.544 136.764 116.856C135.876 117.144 134.928 117.288 133.92 117.288C133.296 117.288 132.708 117.204 132.156 117.036C131.604 116.868 131.112 116.616 130.68 116.28C130.272 115.944 129.948 115.512 129.708 114.984C129.468 114.432 129.348 113.772 129.348 113.004V101.232H126.864V98.172H129.348V91.98H133.308V98.172H137.412V101.232H133.308V111.744C133.356 112.416 133.56 112.908 133.92 113.22C134.304 113.508 134.772 113.652 135.324 113.652C135.876 113.652 136.404 113.556 136.908 113.364C137.412 113.172 137.784 113.016 138.024 112.896L138.852 116.028ZM146.599 117.36C145.687 117.36 144.835 117.216 144.043 116.928C143.275 116.616 142.603 116.196 142.027 115.668C141.475 115.14 141.031 114.516 140.695 113.796C140.383 113.076 140.227 112.296 140.227 111.456C140.227 110.568 140.419 109.764 140.803 109.044C141.187 108.324 141.727 107.7 142.423 107.172C143.143 106.644 143.983 106.236 144.943 105.948C145.927 105.66 147.007 105.516 148.183 105.516C149.071 105.516 149.947 105.6 150.811 105.768C151.675 105.912 152.455 106.116 153.151 106.38V105.084C153.151 103.692 152.755 102.612 151.963 101.844C151.171 101.052 150.031 100.656 148.543 100.656C147.535 100.656 146.539 100.848 145.555 101.232C144.595 101.592 143.599 102.12 142.567 102.816L141.343 100.296C143.767 98.664 146.287 97.848 148.903 97.848C151.495 97.848 153.511 98.508 154.951 99.828C156.391 101.148 157.111 103.044 157.111 105.516V112.32C157.111 113.16 157.459 113.592 158.155 113.616V117C157.771 117.072 157.435 117.12 157.147 117.144C156.883 117.168 156.619 117.18 156.355 117.18C155.587 117.18 154.987 116.988 154.555 116.604C154.147 116.22 153.895 115.728 153.799 115.128L153.691 113.94C152.851 115.044 151.807 115.896 150.559 116.496C149.335 117.072 148.015 117.36 146.599 117.36ZM147.679 114.444C148.639 114.444 149.539 114.276 150.379 113.94C151.243 113.58 151.915 113.088 152.395 112.464C152.899 112.032 153.151 111.576 153.151 111.096V108.612C152.479 108.348 151.759 108.144 150.991 108C150.247 107.856 149.515 107.784 148.795 107.784C147.379 107.784 146.215 108.096 145.303 108.72C144.415 109.32 143.971 110.124 143.971 111.132C143.971 112.068 144.319 112.86 145.015 113.508C145.711 114.132 146.599 114.444 147.679 114.444ZM178.799 117H174.839V106.452C174.839 104.676 174.551 103.392 173.975 102.6C173.423 101.784 172.595 101.376 171.491 101.376C170.915 101.376 170.339 101.484 169.763 101.7C169.187 101.916 168.647 102.228 168.143 102.636C167.639 103.02 167.183 103.488 166.775 104.04C166.391 104.568 166.091 105.156 165.875 105.804V117H161.915V98.172H165.515V101.952C166.235 100.68 167.279 99.684 168.647 98.964C170.015 98.22 171.527 97.848 173.183 97.848C174.311 97.848 175.235 98.052 175.955 98.46C176.675 98.868 177.239 99.432 177.647 100.152C178.079 100.848 178.379 101.664 178.547 102.6C178.715 103.512 178.799 104.484 178.799 105.516V117ZM190.848 117.18C189.576 117.18 188.412 116.928 187.356 116.424C186.3 115.896 185.388 115.188 184.62 114.3C183.876 113.412 183.288 112.392 182.856 111.24C182.448 110.088 182.244 108.876 182.244 107.604C182.244 106.26 182.46 105 182.892 103.824C183.324 102.624 183.924 101.592 184.692 100.728C185.46 99.84 186.372 99.144 187.428 98.64C188.508 98.112 189.696 97.848 190.992 97.848C192.504 97.848 193.824 98.208 194.952 98.928C196.104 99.648 197.052 100.584 197.796 101.736V98.172H201.288V116.46C201.288 117.828 201.036 119.04 200.532 120.096C200.028 121.152 199.32 122.04 198.408 122.76C197.52 123.504 196.464 124.068 195.24 124.452C194.016 124.836 192.696 125.028 191.28 125.028C189.192 125.028 187.452 124.668 186.06 123.948C184.692 123.252 183.54 122.268 182.604 120.996L184.836 118.908C185.556 119.916 186.48 120.684 187.608 121.212C188.76 121.74 189.984 122.004 191.28 122.004C192.096 122.004 192.864 121.896 193.584 121.68C194.328 121.464 194.976 121.128 195.528 120.672C196.08 120.216 196.512 119.64 196.824 118.944C197.16 118.248 197.328 117.42 197.328 116.46V113.58C196.656 114.732 195.732 115.62 194.556 116.244C193.38 116.868 192.144 117.18 190.848 117.18ZM192.144 113.976C192.744 113.976 193.32 113.88 193.872 113.688C194.424 113.472 194.928 113.196 195.384 112.86C195.864 112.5 196.272 112.104 196.608 111.672C196.944 111.216 197.184 110.736 197.328 110.232V105.3C197.088 104.7 196.776 104.16 196.392 103.68C196.008 103.176 195.564 102.744 195.06 102.384C194.58 102.024 194.064 101.748 193.512 101.556C192.96 101.34 192.408 101.232 191.856 101.232C190.992 101.232 190.212 101.424 189.516 101.808C188.844 102.168 188.268 102.66 187.788 103.284C187.308 103.884 186.936 104.568 186.672 105.336C186.408 106.104 186.276 106.896 186.276 107.712C186.276 108.576 186.42 109.392 186.708 110.16C187.02 110.904 187.44 111.564 187.968 112.14C188.496 112.692 189.108 113.136 189.804 113.472C190.524 113.808 191.304 113.976 192.144 113.976ZM206.036 117V98.172H209.996V117H206.036ZM206.036 95.076V90.72H209.996V95.076H206.036ZM224.907 117.36C223.467 117.36 222.159 117.024 220.983 116.352C219.831 115.656 218.919 114.732 218.247 113.58V117H214.755V90.72H218.715V101.736C219.459 100.536 220.383 99.588 221.487 98.892C222.615 98.196 223.935 97.848 225.447 97.848C226.695 97.848 227.835 98.124 228.867 98.676C229.899 99.204 230.775 99.924 231.495 100.836C232.239 101.724 232.803 102.768 233.187 103.968C233.595 105.144 233.799 106.38 233.799 107.676C233.799 109.02 233.571 110.28 233.115 111.456C232.659 112.632 232.035 113.664 231.243 114.552C230.451 115.416 229.503 116.1 228.399 116.604C227.319 117.108 226.155 117.36 224.907 117.36ZM223.863 113.976C224.727 113.976 225.519 113.808 226.239 113.472C226.959 113.112 227.571 112.644 228.075 112.068C228.603 111.492 229.011 110.832 229.299 110.088C229.587 109.32 229.731 108.516 229.731 107.676C229.731 106.836 229.587 106.032 229.299 105.264C229.035 104.472 228.651 103.788 228.147 103.212C227.667 102.612 227.079 102.132 226.383 101.772C225.711 101.412 224.967 101.232 224.151 101.232C222.927 101.232 221.835 101.628 220.875 102.42C219.939 103.212 219.219 104.172 218.715 105.3V110.268C218.859 110.82 219.111 111.324 219.471 111.78C219.831 112.212 220.251 112.596 220.731 112.932C221.211 113.268 221.727 113.532 222.279 113.724C222.831 113.892 223.359 113.976 223.863 113.976ZM237.396 90.72H241.356V111.564C241.356 112.26 241.536 112.812 241.896 113.22C242.256 113.604 242.76 113.796 243.408 113.796C243.672 113.796 243.972 113.748 244.308 113.652C244.668 113.556 245.004 113.448 245.316 113.328L245.892 116.424C245.316 116.688 244.632 116.892 243.84 117.036C243.048 117.204 242.34 117.288 241.716 117.288C240.348 117.288 239.28 116.916 238.512 116.172C237.768 115.428 237.396 114.372 237.396 113.004V90.72ZM256.721 117.36C255.257 117.36 253.925 117.108 252.725 116.604C251.525 116.076 250.493 115.368 249.629 114.48C248.789 113.592 248.129 112.56 247.649 111.384C247.193 110.208 246.965 108.96 246.965 107.64C246.965 106.32 247.193 105.072 247.649 103.896C248.129 102.696 248.789 101.652 249.629 100.764C250.493 99.852 251.525 99.144 252.725 98.64C253.925 98.112 255.269 97.848 256.757 97.848C258.221 97.848 259.541 98.112 260.717 98.64C261.917 99.168 262.937 99.876 263.777 100.764C264.617 101.628 265.253 102.648 265.685 103.824C266.141 104.976 266.369 106.188 266.369 107.46C266.369 107.748 266.357 108.024 266.333 108.288C266.309 108.528 266.285 108.732 266.261 108.9H251.177C251.249 109.74 251.441 110.496 251.753 111.168C252.089 111.84 252.509 112.428 253.013 112.932C253.541 113.412 254.129 113.784 254.777 114.048C255.449 114.312 256.145 114.444 256.865 114.444C257.393 114.444 257.909 114.384 258.413 114.264C258.941 114.12 259.421 113.928 259.853 113.688C260.285 113.424 260.669 113.112 261.005 112.752C261.341 112.392 261.605 111.996 261.797 111.564L265.181 112.536C264.533 113.952 263.453 115.116 261.941 116.028C260.453 116.916 258.713 117.36 256.721 117.36ZM262.445 106.164C262.373 105.372 262.169 104.64 261.833 103.968C261.521 103.296 261.113 102.732 260.609 102.276C260.105 101.796 259.517 101.424 258.845 101.16C258.173 100.896 257.465 100.764 256.721 100.764C255.977 100.764 255.269 100.896 254.597 101.16C253.949 101.424 253.373 101.796 252.869 102.276C252.365 102.732 251.957 103.296 251.645 103.968C251.333 104.64 251.141 105.372 251.069 106.164H262.445ZM127.152 149.568C127.152 148.248 127.38 147 127.836 145.824C128.292 144.648 128.94 143.616 129.78 142.728C130.644 141.84 131.676 141.144 132.876 140.64C134.076 140.112 135.42 139.848 136.908 139.848C138.852 139.848 140.52 140.28 141.912 141.144C143.328 141.984 144.384 143.112 145.08 144.528L141.228 145.752C140.772 144.96 140.16 144.348 139.392 143.916C138.624 143.46 137.772 143.232 136.836 143.232C136.044 143.232 135.3 143.388 134.604 143.7C133.932 144.012 133.344 144.456 132.84 145.032C132.336 145.584 131.94 146.244 131.652 147.012C131.364 147.78 131.22 148.632 131.22 149.568C131.22 150.48 131.364 151.332 131.652 152.124C131.964 152.892 132.372 153.564 132.876 154.14C133.404 154.716 134.004 155.172 134.676 155.508C135.372 155.82 136.104 155.976 136.872 155.976C137.352 155.976 137.832 155.916 138.312 155.796C138.792 155.652 139.224 155.46 139.608 155.22C140.016 154.98 140.364 154.704 140.652 154.392C140.964 154.08 141.192 153.744 141.336 153.384L145.224 154.536C144.6 155.952 143.556 157.116 142.092 158.028C140.628 158.916 138.9 159.36 136.908 159.36C135.444 159.36 134.112 159.096 132.912 158.568C131.712 158.04 130.68 157.332 129.816 156.444C128.976 155.532 128.316 154.488 127.836 153.312C127.38 152.136 127.152 150.888 127.152 149.568ZM156.77 159.36C155.282 159.36 153.938 159.096 152.738 158.568C151.562 158.04 150.554 157.332 149.714 156.444C148.874 155.556 148.226 154.524 147.77 153.348C147.314 152.148 147.086 150.9 147.086 149.604C147.086 148.308 147.314 147.072 147.77 145.896C148.226 144.696 148.874 143.652 149.714 142.764C150.578 141.876 151.598 141.168 152.774 140.64C153.974 140.112 155.306 139.848 156.77 139.848C158.234 139.848 159.554 140.112 160.73 140.64C161.93 141.168 162.95 141.876 163.79 142.764C164.654 143.652 165.314 144.696 165.77 145.896C166.226 147.072 166.454 148.308 166.454 149.604C166.454 150.9 166.226 152.148 165.77 153.348C165.314 154.524 164.654 155.556 163.79 156.444C162.95 157.332 161.93 158.04 160.73 158.568C159.554 159.096 158.234 159.36 156.77 159.36ZM151.154 149.64C151.154 150.552 151.298 151.392 151.586 152.16C151.874 152.928 152.27 153.6 152.774 154.176C153.278 154.728 153.866 155.172 154.538 155.508C155.234 155.82 155.978 155.976 156.77 155.976C157.562 155.976 158.294 155.82 158.966 155.508C159.662 155.172 160.262 154.716 160.766 154.14C161.27 153.564 161.666 152.892 161.954 152.124C162.242 151.356 162.386 150.516 162.386 149.604C162.386 148.716 162.242 147.888 161.954 147.12C161.666 146.328 161.27 145.644 160.766 145.068C160.262 144.492 159.662 144.048 158.966 143.736C158.294 143.4 157.562 143.232 156.77 143.232C156.002 143.232 155.27 143.4 154.574 143.736C153.902 144.072 153.314 144.528 152.81 145.104C152.306 145.68 151.898 146.364 151.586 147.156C151.298 147.924 151.154 148.752 151.154 149.64ZM186.85 159H182.89V148.452C182.89 146.676 182.602 145.392 182.026 144.6C181.474 143.784 180.646 143.376 179.542 143.376C178.966 143.376 178.39 143.484 177.814 143.7C177.238 143.916 176.698 144.228 176.194 144.636C175.69 145.02 175.234 145.488 174.826 146.04C174.442 146.568 174.142 147.156 173.926 147.804V159H169.966V140.172H173.566V143.952C174.286 142.68 175.33 141.684 176.698 140.964C178.066 140.22 179.578 139.848 181.234 139.848C182.362 139.848 183.286 140.052 184.006 140.46C184.726 140.868 185.29 141.432 185.698 142.152C186.13 142.848 186.43 143.664 186.598 144.6C186.766 145.512 186.85 146.484 186.85 147.516V159ZM208.33 159H204.37V148.452C204.37 146.676 204.082 145.392 203.506 144.6C202.954 143.784 202.126 143.376 201.022 143.376C200.446 143.376 199.87 143.484 199.294 143.7C198.718 143.916 198.178 144.228 197.674 144.636C197.17 145.02 196.714 145.488 196.306 146.04C195.922 146.568 195.622 147.156 195.406 147.804V159H191.446V140.172H195.046V143.952C195.766 142.68 196.81 141.684 198.178 140.964C199.546 140.22 201.058 139.848 202.714 139.848C203.842 139.848 204.766 140.052 205.486 140.46C206.206 140.868 206.77 141.432 207.178 142.152C207.61 142.848 207.91 143.664 208.078 144.6C208.246 145.512 208.33 146.484 208.33 147.516V159ZM221.459 159.36C219.995 159.36 218.663 159.108 217.463 158.604C216.263 158.076 215.231 157.368 214.367 156.48C213.527 155.592 212.867 154.56 212.387 153.384C211.931 152.208 211.703 150.96 211.703 149.64C211.703 148.32 211.931 147.072 212.387 145.896C212.867 144.696 213.527 143.652 214.367 142.764C215.231 141.852 216.263 141.144 217.463 140.64C218.663 140.112 220.007 139.848 221.495 139.848C222.959 139.848 224.279 140.112 225.455 140.64C226.655 141.168 227.675 141.876 228.515 142.764C229.355 143.628 229.991 144.648 230.423 145.824C230.879 146.976 231.107 148.188 231.107 149.46C231.107 149.748 231.095 150.024 231.071 150.288C231.047 150.528 231.023 150.732 230.999 150.9H215.915C215.987 151.74 216.179 152.496 216.491 153.168C216.827 153.84 217.247 154.428 217.751 154.932C218.279 155.412 218.867 155.784 219.515 156.048C220.187 156.312 220.883 156.444 221.603 156.444C222.131 156.444 222.647 156.384 223.151 156.264C223.679 156.12 224.159 155.928 224.591 155.688C225.023 155.424 225.407 155.112 225.743 154.752C226.079 154.392 226.343 153.996 226.535 153.564L229.919 154.536C229.271 155.952 228.191 157.116 226.679 158.028C225.191 158.916 223.451 159.36 221.459 159.36ZM227.183 148.164C227.111 147.372 226.907 146.64 226.571 145.968C226.259 145.296 225.851 144.732 225.347 144.276C224.843 143.796 224.255 143.424 223.583 143.16C222.911 142.896 222.203 142.764 221.459 142.764C220.715 142.764 220.007 142.896 219.335 143.16C218.687 143.424 218.111 143.796 217.607 144.276C217.103 144.732 216.695 145.296 216.383 145.968C216.071 146.64 215.879 147.372 215.807 148.164H227.183ZM233.113 149.568C233.113 148.248 233.341 147 233.797 145.824C234.253 144.648 234.901 143.616 235.741 142.728C236.605 141.84 237.637 141.144 238.837 140.64C240.037 140.112 241.381 139.848 242.869 139.848C244.813 139.848 246.481 140.28 247.873 141.144C249.289 141.984 250.345 143.112 251.041 144.528L247.189 145.752C246.733 144.96 246.121 144.348 245.353 143.916C244.585 143.46 243.733 143.232 242.797 143.232C242.005 143.232 241.261 143.388 240.565 143.7C239.893 144.012 239.305 144.456 238.801 145.032C238.297 145.584 237.901 146.244 237.613 147.012C237.325 147.78 237.181 148.632 237.181 149.568C237.181 150.48 237.325 151.332 237.613 152.124C237.925 152.892 238.333 153.564 238.837 154.14C239.365 154.716 239.965 155.172 240.637 155.508C241.333 155.82 242.065 155.976 242.833 155.976C243.313 155.976 243.793 155.916 244.273 155.796C244.753 155.652 245.185 155.46 245.569 155.22C245.977 154.98 246.325 154.704 246.613 154.392C246.925 154.08 247.153 153.744 247.297 153.384L251.185 154.536C250.561 155.952 249.517 157.116 248.053 158.028C246.589 158.916 244.861 159.36 242.869 159.36C241.405 159.36 240.073 159.096 238.873 158.568C237.673 158.04 236.641 157.332 235.777 156.444C234.937 155.532 234.277 154.488 233.797 153.312C233.341 152.136 233.113 150.888 233.113 149.568ZM264.922 158.028C264.418 158.268 263.722 158.544 262.834 158.856C261.946 159.144 260.998 159.288 259.99 159.288C259.366 159.288 258.778 159.204 258.226 159.036C257.674 158.868 257.182 158.616 256.75 158.28C256.342 157.944 256.018 157.512 255.778 156.984C255.538 156.432 255.418 155.772 255.418 155.004V143.232H252.934V140.172H255.418V133.98H259.378V140.172H263.482V143.232H259.378V153.744C259.426 154.416 259.63 154.908 259.99 155.22C260.374 155.508 260.842 155.652 261.394 155.652C261.946 155.652 262.474 155.556 262.978 155.364C263.482 155.172 263.854 155.016 264.094 154.896L264.922 158.028ZM267.665 159V140.172H271.625V159H267.665ZM267.665 137.076V132.72H271.625V137.076H267.665ZM284.844 159.36C283.356 159.36 282.012 159.096 280.812 158.568C279.636 158.04 278.628 157.332 277.788 156.444C276.948 155.556 276.3 154.524 275.844 153.348C275.388 152.148 275.16 150.9 275.16 149.604C275.16 148.308 275.388 147.072 275.844 145.896C276.3 144.696 276.948 143.652 277.788 142.764C278.652 141.876 279.672 141.168 280.848 140.64C282.048 140.112 283.38 139.848 284.844 139.848C286.308 139.848 287.628 140.112 288.804 140.64C290.004 141.168 291.024 141.876 291.864 142.764C292.728 143.652 293.388 144.696 293.844 145.896C294.3 147.072 294.528 148.308 294.528 149.604C294.528 150.9 294.3 152.148 293.844 153.348C293.388 154.524 292.728 155.556 291.864 156.444C291.024 157.332 290.004 158.04 288.804 158.568C287.628 159.096 286.308 159.36 284.844 159.36ZM279.228 149.64C279.228 150.552 279.372 151.392 279.66 152.16C279.948 152.928 280.344 153.6 280.848 154.176C281.352 154.728 281.94 155.172 282.612 155.508C283.308 155.82 284.052 155.976 284.844 155.976C285.636 155.976 286.368 155.82 287.04 155.508C287.736 155.172 288.336 154.716 288.84 154.14C289.344 153.564 289.74 152.892 290.028 152.124C290.316 151.356 290.46 150.516 290.46 149.604C290.46 148.716 290.316 147.888 290.028 147.12C289.74 146.328 289.344 145.644 288.84 145.068C288.336 144.492 287.736 144.048 287.04 143.736C286.368 143.4 285.636 143.232 284.844 143.232C284.076 143.232 283.344 143.4 282.648 143.736C281.976 144.072 281.388 144.528 280.884 145.104C280.38 145.68 279.972 146.364 279.66 147.156C279.372 147.924 279.228 148.752 279.228 149.64ZM314.924 159H310.964V148.452C310.964 146.676 310.676 145.392 310.1 144.6C309.548 143.784 308.72 143.376 307.616 143.376C307.04 143.376 306.464 143.484 305.888 143.7C305.312 143.916 304.772 144.228 304.268 144.636C303.764 145.02 303.308 145.488 302.9 146.04C302.516 146.568 302.216 147.156 302 147.804V159H298.04V140.172H301.64V143.952C302.36 142.68 303.404 141.684 304.772 140.964C306.14 140.22 307.652 139.848 309.308 139.848C310.436 139.848 311.36 140.052 312.08 140.46C312.8 140.868 313.364 141.432 313.772 142.152C314.204 142.848 314.504 143.664 314.672 144.6C314.84 145.512 314.924 146.484 314.924 147.516V159Z" fill="url(#paint0_linear_10205_7997)"/>
<path d="M70.3791 220.801H72.3391L77.9391 235.001H75.5791L74.0791 231.141H68.5991L67.1191 235.001H64.7391L70.3791 220.801ZM73.6391 229.481L71.3591 223.381L68.9991 229.481H73.6391ZM79.7808 226.501H78.3808V224.801H79.7808V224.641C79.7808 224.161 79.8542 223.701 80.0008 223.261C80.1475 222.821 80.3675 222.428 80.6608 222.081C80.9542 221.734 81.3142 221.461 81.7408 221.261C82.1675 221.048 82.6542 220.941 83.2008 220.941C83.6675 220.941 84.1075 220.994 84.5208 221.101C84.9342 221.208 85.3142 221.341 85.6608 221.501C86.0075 221.114 86.4408 220.801 86.9608 220.561C87.4808 220.321 88.1008 220.201 88.8208 220.201C89.5275 220.201 90.1808 220.321 90.7808 220.561C91.3942 220.788 91.9408 221.054 92.4208 221.361L91.5008 223.001C91.2075 222.748 90.8342 222.534 90.3808 222.361C89.9408 222.174 89.4942 222.081 89.0408 222.081C88.6808 222.081 88.3675 222.148 88.1008 222.281C87.8475 222.401 87.6342 222.568 87.4608 222.781C87.3008 222.994 87.1808 223.234 87.1008 223.501C87.0342 223.768 87.0008 224.041 87.0008 224.321V224.801H92.4808V235.001H90.2608V226.501H87.0008V235.001H84.8008V226.501H81.9808V235.001H79.7808V226.501ZM84.8008 224.801C84.8008 224.708 84.8008 224.588 84.8008 224.441C84.8142 224.281 84.8275 224.121 84.8408 223.961C84.8675 223.801 84.8942 223.648 84.9208 223.501C84.9608 223.341 85.0008 223.221 85.0408 223.141C84.8408 223.021 84.6075 222.941 84.3408 222.901C84.0742 222.848 83.8342 222.821 83.6208 222.821C83.3275 222.821 83.0742 222.874 82.8608 222.981C82.6608 223.074 82.4942 223.208 82.3608 223.381C82.2275 223.541 82.1275 223.728 82.0608 223.941C82.0075 224.154 81.9808 224.374 81.9808 224.601V224.801H84.8008ZM100.979 226.441C100.125 226.468 99.3655 226.668 98.6988 227.041C98.0455 227.401 97.5788 227.921 97.2988 228.601V235.001H95.0988V224.541H97.1388V226.881C97.4988 226.161 97.9655 225.588 98.5388 225.161C99.1255 224.721 99.7521 224.481 100.419 224.441C100.552 224.441 100.659 224.441 100.739 224.441C100.832 224.441 100.912 224.448 100.979 224.461V226.441ZM118.579 235.001H116.379V229.141C116.379 228.168 116.219 227.454 115.899 227.001C115.579 226.548 115.113 226.321 114.499 226.321C113.873 226.321 113.299 226.554 112.779 227.021C112.273 227.474 111.906 228.068 111.679 228.801V235.001H109.479V229.141C109.479 228.154 109.319 227.441 108.999 227.001C108.679 226.548 108.219 226.321 107.619 226.321C106.993 226.321 106.419 226.548 105.899 227.001C105.379 227.454 105.006 228.048 104.779 228.781V235.001H102.579V224.541H104.579V226.641C104.993 225.908 105.533 225.348 106.199 224.961C106.879 224.561 107.653 224.361 108.519 224.361C109.386 224.361 110.066 224.588 110.559 225.041C111.066 225.494 111.379 226.061 111.499 226.741C111.939 225.968 112.493 225.381 113.159 224.981C113.826 224.568 114.586 224.361 115.439 224.361C116.053 224.361 116.559 224.481 116.959 224.721C117.373 224.948 117.699 225.254 117.939 225.641C118.179 226.028 118.346 226.481 118.439 227.001C118.533 227.508 118.579 228.048 118.579 228.621V235.001ZM125.849 237.461C126.049 237.501 126.243 237.534 126.429 237.561C126.629 237.588 126.789 237.601 126.909 237.601C127.083 237.601 127.229 237.561 127.349 237.481C127.483 237.414 127.616 237.288 127.749 237.101C127.883 236.914 128.016 236.648 128.149 236.301C128.296 235.968 128.463 235.534 128.649 235.001L124.349 224.541H126.609L129.849 233.061L132.729 224.541H134.809L130.069 237.421C129.856 238.021 129.483 238.521 128.949 238.921C128.429 239.334 127.756 239.541 126.929 239.541C126.769 239.541 126.603 239.528 126.429 239.501C126.256 239.488 126.063 239.448 125.849 239.381V237.461ZM140.775 235.201C139.949 235.201 139.202 235.054 138.535 234.761C137.882 234.468 137.322 234.074 136.855 233.581C136.389 233.088 136.029 232.514 135.775 231.861C135.522 231.194 135.395 230.501 135.395 229.781C135.395 229.061 135.522 228.374 135.775 227.721C136.029 227.054 136.389 226.474 136.855 225.981C137.335 225.488 137.902 225.094 138.555 224.801C139.222 224.508 139.962 224.361 140.775 224.361C141.589 224.361 142.322 224.508 142.975 224.801C143.642 225.094 144.209 225.488 144.675 225.981C145.155 226.474 145.522 227.054 145.775 227.721C146.029 228.374 146.155 229.061 146.155 229.781C146.155 230.501 146.029 231.194 145.775 231.861C145.522 232.514 145.155 233.088 144.675 233.581C144.209 234.074 143.642 234.468 142.975 234.761C142.322 235.054 141.589 235.201 140.775 235.201ZM137.655 229.801C137.655 230.308 137.735 230.774 137.895 231.201C138.055 231.628 138.275 232.001 138.555 232.321C138.835 232.628 139.162 232.874 139.535 233.061C139.922 233.234 140.335 233.321 140.775 233.321C141.215 233.321 141.622 233.234 141.995 233.061C142.382 232.874 142.715 232.621 142.995 232.301C143.275 231.981 143.495 231.608 143.655 231.181C143.815 230.754 143.895 230.288 143.895 229.781C143.895 229.288 143.815 228.828 143.655 228.401C143.495 227.961 143.275 227.581 142.995 227.261C142.715 226.941 142.382 226.694 141.995 226.521C141.622 226.334 141.215 226.241 140.775 226.241C140.349 226.241 139.942 226.334 139.555 226.521C139.182 226.708 138.855 226.961 138.575 227.281C138.295 227.601 138.069 227.981 137.895 228.421C137.735 228.848 137.655 229.308 137.655 229.801ZM151.327 235.201C150.233 235.201 149.407 234.848 148.847 234.141C148.287 233.421 148.007 232.354 148.007 230.941V224.541H150.207V230.501C150.207 232.381 150.873 233.321 152.207 233.321C152.833 233.321 153.427 233.128 153.987 232.741C154.547 232.354 154.98 231.794 155.287 231.061V224.541H157.487V232.401C157.487 232.654 157.527 232.834 157.607 232.941C157.7 233.048 157.86 233.108 158.087 233.121V235.001C157.86 235.041 157.673 235.068 157.527 235.081C157.38 235.094 157.24 235.101 157.107 235.101C156.707 235.101 156.367 234.994 156.087 234.781C155.807 234.554 155.66 234.268 155.647 233.921L155.607 232.881C155.14 233.641 154.533 234.221 153.787 234.621C153.04 235.008 152.22 235.201 151.327 235.201ZM166.174 226.441C165.321 226.468 164.561 226.668 163.894 227.041C163.241 227.401 162.774 227.921 162.494 228.601V235.001H160.294V224.541H162.334V226.881C162.694 226.161 163.161 225.588 163.734 225.161C164.321 224.721 164.947 224.481 165.614 224.441C165.747 224.441 165.854 224.441 165.934 224.441C166.027 224.441 166.107 224.448 166.174 224.461V226.441ZM171.128 238.821C170.648 238.821 170.194 238.748 169.768 238.601C169.341 238.454 168.954 238.228 168.608 237.921L169.588 236.441C169.761 236.601 169.961 236.714 170.188 236.781C170.414 236.861 170.641 236.901 170.868 236.901C171.254 236.901 171.594 236.754 171.888 236.461C172.194 236.181 172.348 235.821 172.348 235.381V224.541H174.548V235.221C174.548 235.754 174.454 236.241 174.268 236.681C174.094 237.121 173.848 237.501 173.528 237.821C173.221 238.141 172.861 238.388 172.448 238.561C172.034 238.734 171.594 238.821 171.128 238.821ZM172.348 222.821V220.401H174.548V222.821H172.348ZM181.929 235.201C181.115 235.201 180.375 235.061 179.709 234.781C179.042 234.488 178.469 234.094 177.989 233.601C177.522 233.108 177.155 232.534 176.889 231.881C176.635 231.228 176.509 230.534 176.509 229.801C176.509 229.068 176.635 228.374 176.889 227.721C177.155 227.054 177.522 226.474 177.989 225.981C178.469 225.474 179.042 225.081 179.709 224.801C180.375 224.508 181.122 224.361 181.949 224.361C182.762 224.361 183.495 224.508 184.149 224.801C184.815 225.094 185.382 225.488 185.849 225.981C186.315 226.461 186.669 227.028 186.909 227.681C187.162 228.321 187.289 228.994 187.289 229.701C187.289 229.861 187.282 230.014 187.269 230.161C187.255 230.294 187.242 230.408 187.229 230.501H178.849C178.889 230.968 178.995 231.388 179.169 231.761C179.355 232.134 179.589 232.461 179.869 232.741C180.162 233.008 180.489 233.214 180.849 233.361C181.222 233.508 181.609 233.581 182.009 233.581C182.302 233.581 182.589 233.548 182.869 233.481C183.162 233.401 183.429 233.294 183.669 233.161C183.909 233.014 184.122 232.841 184.309 232.641C184.495 232.441 184.642 232.221 184.749 231.981L186.629 232.521C186.269 233.308 185.669 233.954 184.829 234.461C184.002 234.954 183.035 235.201 181.929 235.201ZM185.109 228.981C185.069 228.541 184.955 228.134 184.769 227.761C184.595 227.388 184.369 227.074 184.089 226.821C183.809 226.554 183.482 226.348 183.109 226.201C182.735 226.054 182.342 225.981 181.929 225.981C181.515 225.981 181.122 226.054 180.749 226.201C180.389 226.348 180.069 226.554 179.789 226.821C179.509 227.074 179.282 227.388 179.109 227.761C178.935 228.134 178.829 228.541 178.789 228.981H185.109ZM201.85 224.541H203.95L199.55 235.001H197.73L195.79 230.141L193.85 235.001H192.03L187.61 224.541H189.71L193.09 232.881L194.61 229.001L192.79 224.561H194.59L195.79 227.841L196.97 224.561H198.77L196.97 229.001L198.49 232.881L201.85 224.541ZM209.78 235.201C208.967 235.201 208.227 235.061 207.56 234.781C206.894 234.488 206.32 234.094 205.84 233.601C205.374 233.108 205.007 232.534 204.74 231.881C204.487 231.228 204.36 230.534 204.36 229.801C204.36 229.068 204.487 228.374 204.74 227.721C205.007 227.054 205.374 226.474 205.84 225.981C206.32 225.474 206.894 225.081 207.56 224.801C208.227 224.508 208.974 224.361 209.8 224.361C210.614 224.361 211.347 224.508 212 224.801C212.667 225.094 213.234 225.488 213.7 225.981C214.167 226.461 214.52 227.028 214.76 227.681C215.014 228.321 215.14 228.994 215.14 229.701C215.14 229.861 215.134 230.014 215.12 230.161C215.107 230.294 215.094 230.408 215.08 230.501H206.7C206.74 230.968 206.847 231.388 207.02 231.761C207.207 232.134 207.44 232.461 207.72 232.741C208.014 233.008 208.34 233.214 208.7 233.361C209.074 233.508 209.46 233.581 209.86 233.581C210.154 233.581 210.44 233.548 210.72 233.481C211.014 233.401 211.28 233.294 211.52 233.161C211.76 233.014 211.974 232.841 212.16 232.641C212.347 232.441 212.494 232.221 212.6 231.981L214.48 232.521C214.12 233.308 213.52 233.954 212.68 234.461C211.854 234.954 210.887 235.201 209.78 235.201ZM212.96 228.981C212.92 228.541 212.807 228.134 212.62 227.761C212.447 227.388 212.22 227.074 211.94 226.821C211.66 226.554 211.334 226.348 210.96 226.201C210.587 226.054 210.194 225.981 209.78 225.981C209.367 225.981 208.974 226.054 208.6 226.201C208.24 226.348 207.92 226.554 207.64 226.821C207.36 227.074 207.134 227.388 206.96 227.761C206.787 228.134 206.68 228.541 206.64 228.981H212.96ZM216.955 220.401H219.155V231.981C219.155 232.368 219.255 232.674 219.455 232.901C219.655 233.114 219.935 233.221 220.295 233.221C220.441 233.221 220.608 233.194 220.795 233.141C220.995 233.088 221.181 233.028 221.355 232.961L221.675 234.681C221.355 234.828 220.975 234.941 220.535 235.021C220.095 235.114 219.701 235.161 219.355 235.161C218.595 235.161 218.001 234.954 217.575 234.541C217.161 234.128 216.955 233.541 216.955 232.781V220.401ZM228.83 226.441C227.977 226.468 227.217 226.668 226.55 227.041C225.897 227.401 225.43 227.921 225.15 228.601V235.001H222.95V224.541H224.99V226.881C225.35 226.161 225.817 225.588 226.39 225.161C226.977 224.721 227.604 224.481 228.27 224.441C228.404 224.441 228.51 224.441 228.59 224.441C228.684 224.441 228.764 224.448 228.83 224.461V226.441ZM230.791 237.461C230.991 237.501 231.184 237.534 231.371 237.561C231.571 237.588 231.731 237.601 231.851 237.601C232.024 237.601 232.171 237.561 232.291 237.481C232.424 237.414 232.558 237.288 232.691 237.101C232.824 236.914 232.958 236.648 233.091 236.301C233.238 235.968 233.404 235.534 233.591 235.001L229.291 224.541H231.551L234.791 233.061L237.671 224.541H239.751L235.011 237.421C234.798 238.021 234.424 238.521 233.891 238.921C233.371 239.334 232.698 239.541 231.871 239.541C231.711 239.541 231.544 239.528 231.371 239.501C231.198 239.488 231.004 239.448 230.791 239.381V237.461ZM248.543 235.201C248.036 235.201 247.563 235.121 247.123 234.961C246.696 234.788 246.323 234.554 246.003 234.261C245.696 233.968 245.45 233.621 245.263 233.221C245.09 232.821 245.003 232.388 245.003 231.921C245.003 231.428 245.11 230.981 245.323 230.581C245.536 230.181 245.836 229.834 246.223 229.541C246.623 229.248 247.09 229.021 247.623 228.861C248.17 228.701 248.77 228.621 249.423 228.621C249.916 228.621 250.403 228.668 250.883 228.761C251.363 228.841 251.796 228.954 252.183 229.101V228.381C252.183 227.608 251.963 227.008 251.523 226.581C251.083 226.141 250.45 225.921 249.623 225.921C249.063 225.921 248.51 226.028 247.963 226.241C247.43 226.441 246.876 226.734 246.303 227.121L245.623 225.721C246.97 224.814 248.37 224.361 249.823 224.361C251.263 224.361 252.383 224.728 253.183 225.461C253.983 226.194 254.383 227.248 254.383 228.621V232.401C254.383 232.868 254.576 233.108 254.963 233.121V235.001C254.75 235.041 254.563 235.068 254.403 235.081C254.256 235.094 254.11 235.101 253.963 235.101C253.536 235.101 253.203 234.994 252.963 234.781C252.736 234.568 252.596 234.294 252.543 233.961L252.483 233.301C252.016 233.914 251.436 234.388 250.743 234.721C250.063 235.041 249.33 235.201 248.543 235.201ZM249.143 233.581C249.676 233.581 250.176 233.488 250.643 233.301C251.123 233.101 251.496 232.828 251.763 232.481C252.043 232.241 252.183 231.988 252.183 231.721V230.341C251.81 230.194 251.41 230.081 250.983 230.001C250.57 229.921 250.163 229.881 249.763 229.881C248.976 229.881 248.33 230.054 247.823 230.401C247.33 230.734 247.083 231.181 247.083 231.741C247.083 232.261 247.276 232.701 247.663 233.061C248.05 233.408 248.543 233.581 249.143 233.581ZM266.432 235.001H264.232V229.141C264.232 228.154 264.072 227.441 263.752 227.001C263.445 226.548 262.985 226.321 262.372 226.321C262.052 226.321 261.732 226.381 261.412 226.501C261.092 226.621 260.792 226.794 260.512 227.021C260.232 227.234 259.979 227.494 259.752 227.801C259.539 228.094 259.372 228.421 259.252 228.781V235.001H257.052V224.541H259.052V226.641C259.452 225.934 260.032 225.381 260.792 224.981C261.552 224.568 262.392 224.361 263.312 224.361C263.939 224.361 264.452 224.474 264.852 224.701C265.252 224.928 265.565 225.241 265.792 225.641C266.032 226.028 266.199 226.481 266.292 227.001C266.385 227.508 266.432 228.048 266.432 228.621V235.001ZM273.246 235.201C272.539 235.201 271.886 235.061 271.286 234.781C270.686 234.488 270.166 234.094 269.726 233.601C269.286 233.108 268.939 232.534 268.686 231.881C268.446 231.214 268.326 230.501 268.326 229.741C268.326 229.008 268.439 228.321 268.666 227.681C268.906 227.028 269.232 226.454 269.646 225.961C270.072 225.468 270.566 225.081 271.126 224.801C271.699 224.508 272.326 224.361 273.006 224.361C273.846 224.361 274.586 224.568 275.226 224.981C275.866 225.381 276.366 225.894 276.726 226.521V220.401H278.926V232.401C278.926 232.654 278.966 232.834 279.046 232.941C279.139 233.048 279.299 233.108 279.526 233.121V235.001C279.299 235.041 279.112 235.068 278.966 235.081C278.832 235.094 278.719 235.101 278.626 235.101C278.186 235.101 277.826 234.988 277.546 234.761C277.266 234.534 277.112 234.241 277.086 233.881L277.046 233.101C276.659 233.754 276.132 234.268 275.466 234.641C274.799 235.014 274.059 235.201 273.246 235.201ZM273.786 233.321C274.106 233.321 274.426 233.268 274.746 233.161C275.066 233.054 275.359 232.908 275.626 232.721C275.892 232.534 276.119 232.314 276.306 232.061C276.506 231.808 276.646 231.534 276.726 231.241V228.501C276.606 228.168 276.432 227.861 276.206 227.581C275.992 227.301 275.746 227.061 275.466 226.861C275.186 226.661 274.886 226.508 274.566 226.401C274.259 226.294 273.946 226.241 273.626 226.241C273.186 226.241 272.779 226.341 272.406 226.541C272.046 226.741 271.732 227.008 271.466 227.341C271.199 227.674 270.986 228.054 270.826 228.481C270.679 228.908 270.606 229.348 270.606 229.801C270.606 230.281 270.686 230.734 270.846 231.161C271.019 231.588 271.252 231.961 271.546 232.281C271.839 232.601 272.172 232.854 272.546 233.041C272.932 233.228 273.346 233.321 273.786 233.321ZM80.4442 252.761C80.4442 252.028 80.5709 251.334 80.8242 250.681C81.0775 250.028 81.4375 249.454 81.9042 248.961C82.3842 248.468 82.9575 248.081 83.6242 247.801C84.2909 247.508 85.0375 247.361 85.8642 247.361C86.9442 247.361 87.8709 247.601 88.6442 248.081C89.4309 248.548 90.0175 249.174 90.4042 249.961L88.2642 250.641C88.0109 250.201 87.6709 249.861 87.2442 249.621C86.8175 249.368 86.3442 249.241 85.8242 249.241C85.3842 249.241 84.9709 249.328 84.5842 249.501C84.2109 249.674 83.8842 249.921 83.6042 250.241C83.3242 250.548 83.1042 250.914 82.9442 251.341C82.7842 251.768 82.7042 252.241 82.7042 252.761C82.7042 253.268 82.7842 253.741 82.9442 254.181C83.1175 254.608 83.3442 254.981 83.6242 255.301C83.9175 255.621 84.2509 255.874 84.6242 256.061C85.0109 256.234 85.4175 256.321 85.8442 256.321C86.1109 256.321 86.3775 256.288 86.6442 256.221C86.9109 256.141 87.1509 256.034 87.3642 255.901C87.5909 255.768 87.7842 255.614 87.9442 255.441C88.1175 255.268 88.2442 255.081 88.3242 254.881L90.4842 255.521C90.1375 256.308 89.5575 256.954 88.7442 257.461C87.9309 257.954 86.9709 258.201 85.8642 258.201C85.0509 258.201 84.3109 258.054 83.6442 257.761C82.9775 257.468 82.4042 257.074 81.9242 256.581C81.4575 256.074 81.0909 255.494 80.8242 254.841C80.5709 254.188 80.4442 253.494 80.4442 252.761ZM98.1761 249.441C97.3227 249.468 96.5627 249.668 95.8961 250.041C95.2427 250.401 94.7761 250.921 94.4961 251.601V258.001H92.2961V247.541H94.3361V249.881C94.6961 249.161 95.1627 248.588 95.7361 248.161C96.3227 247.721 96.9494 247.481 97.6161 247.441C97.7494 247.441 97.8561 247.441 97.9361 247.441C98.0294 247.441 98.1094 247.448 98.1761 247.461V249.441ZM100.137 260.461C100.337 260.501 100.53 260.534 100.717 260.561C100.917 260.588 101.077 260.601 101.197 260.601C101.37 260.601 101.517 260.561 101.637 260.481C101.77 260.414 101.903 260.288 102.037 260.101C102.17 259.914 102.303 259.648 102.437 259.301C102.583 258.968 102.75 258.534 102.937 258.001L98.6365 247.541H100.897L104.137 256.061L107.017 247.541H109.097L104.357 260.421C104.143 261.021 103.77 261.521 103.237 261.921C102.717 262.334 102.043 262.541 101.217 262.541C101.057 262.541 100.89 262.528 100.717 262.501C100.543 262.488 100.35 262.448 100.137 262.381V260.461ZM114.28 258.201C113.44 258.201 112.6 258.068 111.76 257.801C110.933 257.521 110.22 257.128 109.62 256.621L110.5 255.221C111.126 255.674 111.746 256.021 112.36 256.261C112.973 256.488 113.6 256.601 114.24 256.601C114.893 256.601 115.406 256.474 115.78 256.221C116.166 255.968 116.36 255.608 116.36 255.141C116.36 254.701 116.146 254.381 115.72 254.181C115.293 253.981 114.626 253.761 113.72 253.521C113.066 253.348 112.506 253.181 112.04 253.021C111.573 252.861 111.193 252.674 110.9 252.461C110.606 252.248 110.393 252.001 110.26 251.721C110.126 251.441 110.06 251.101 110.06 250.701C110.06 250.168 110.16 249.694 110.36 249.281C110.573 248.868 110.86 248.521 111.22 248.241C111.593 247.948 112.026 247.728 112.52 247.581C113.013 247.434 113.546 247.361 114.12 247.361C114.906 247.361 115.64 247.481 116.32 247.721C117 247.961 117.606 248.308 118.14 248.761L117.2 250.081C116.226 249.308 115.193 248.921 114.1 248.921C113.54 248.921 113.066 249.041 112.68 249.281C112.306 249.508 112.12 249.874 112.12 250.381C112.12 250.594 112.16 250.774 112.24 250.921C112.32 251.068 112.446 251.194 112.62 251.301C112.806 251.408 113.04 251.508 113.32 251.601C113.613 251.681 113.973 251.774 114.4 251.881C115.106 252.054 115.713 252.228 116.22 252.401C116.74 252.574 117.166 252.781 117.5 253.021C117.833 253.248 118.08 253.521 118.24 253.841C118.4 254.148 118.48 254.521 118.48 254.961C118.48 255.961 118.1 256.754 117.34 257.341C116.593 257.914 115.573 258.201 114.28 258.201ZM126.222 257.461C125.942 257.594 125.555 257.748 125.062 257.921C124.568 258.081 124.042 258.161 123.482 258.161C123.135 258.161 122.808 258.114 122.502 258.021C122.195 257.928 121.922 257.788 121.682 257.601C121.455 257.414 121.275 257.174 121.142 256.881C121.008 256.574 120.942 256.208 120.942 255.781V249.241H119.562V247.541H120.942V244.101H123.142V247.541H125.422V249.241H123.142V255.081C123.168 255.454 123.282 255.728 123.482 255.901C123.695 256.061 123.955 256.141 124.262 256.141C124.568 256.141 124.862 256.088 125.142 255.981C125.422 255.874 125.628 255.788 125.762 255.721L126.222 257.461ZM130.525 258.201C130.019 258.201 129.545 258.121 129.105 257.961C128.679 257.788 128.305 257.554 127.985 257.261C127.679 256.968 127.432 256.621 127.245 256.221C127.072 255.821 126.985 255.388 126.985 254.921C126.985 254.428 127.092 253.981 127.305 253.581C127.519 253.181 127.819 252.834 128.205 252.541C128.605 252.248 129.072 252.021 129.605 251.861C130.152 251.701 130.752 251.621 131.405 251.621C131.899 251.621 132.385 251.668 132.865 251.761C133.345 251.841 133.779 251.954 134.165 252.101V251.381C134.165 250.608 133.945 250.008 133.505 249.581C133.065 249.141 132.432 248.921 131.605 248.921C131.045 248.921 130.492 249.028 129.945 249.241C129.412 249.441 128.859 249.734 128.285 250.121L127.605 248.721C128.952 247.814 130.352 247.361 131.805 247.361C133.245 247.361 134.365 247.728 135.165 248.461C135.965 249.194 136.365 250.248 136.365 251.621V255.401C136.365 255.868 136.559 256.108 136.945 256.121V258.001C136.732 258.041 136.545 258.068 136.385 258.081C136.239 258.094 136.092 258.101 135.945 258.101C135.519 258.101 135.185 257.994 134.945 257.781C134.719 257.568 134.579 257.294 134.525 256.961L134.465 256.301C133.999 256.914 133.419 257.388 132.725 257.721C132.045 258.041 131.312 258.201 130.525 258.201ZM131.125 256.581C131.659 256.581 132.159 256.488 132.625 256.301C133.105 256.101 133.479 255.828 133.745 255.481C134.025 255.241 134.165 254.988 134.165 254.721V253.341C133.792 253.194 133.392 253.081 132.965 253.001C132.552 252.921 132.145 252.881 131.745 252.881C130.959 252.881 130.312 253.054 129.805 253.401C129.312 253.734 129.065 254.181 129.065 254.741C129.065 255.261 129.259 255.701 129.645 256.061C130.032 256.408 130.525 256.581 131.125 256.581ZM139.054 243.401H141.254V254.981C141.254 255.368 141.354 255.674 141.554 255.901C141.754 256.114 142.034 256.221 142.394 256.221C142.541 256.221 142.708 256.194 142.894 256.141C143.094 256.088 143.281 256.028 143.454 255.961L143.774 257.681C143.454 257.828 143.074 257.941 142.634 258.021C142.194 258.114 141.801 258.161 141.454 258.161C140.694 258.161 140.101 257.954 139.674 257.541C139.261 257.128 139.054 256.541 139.054 255.781V243.401ZM148.85 258.201C148.01 258.201 147.17 258.068 146.33 257.801C145.503 257.521 144.79 257.128 144.19 256.621L145.07 255.221C145.697 255.674 146.317 256.021 146.93 256.261C147.543 256.488 148.17 256.601 148.81 256.601C149.463 256.601 149.977 256.474 150.35 256.221C150.737 255.968 150.93 255.608 150.93 255.141C150.93 254.701 150.717 254.381 150.29 254.181C149.863 253.981 149.197 253.761 148.29 253.521C147.637 253.348 147.077 253.181 146.61 253.021C146.143 252.861 145.763 252.674 145.47 252.461C145.177 252.248 144.963 252.001 144.83 251.721C144.697 251.441 144.63 251.101 144.63 250.701C144.63 250.168 144.73 249.694 144.93 249.281C145.143 248.868 145.43 248.521 145.79 248.241C146.163 247.948 146.597 247.728 147.09 247.581C147.583 247.434 148.117 247.361 148.69 247.361C149.477 247.361 150.21 247.481 150.89 247.721C151.57 247.961 152.177 248.308 152.71 248.761L151.77 250.081C150.797 249.308 149.763 248.921 148.67 248.921C148.11 248.921 147.637 249.041 147.25 249.281C146.877 249.508 146.69 249.874 146.69 250.381C146.69 250.594 146.73 250.774 146.81 250.921C146.89 251.068 147.017 251.194 147.19 251.301C147.377 251.408 147.61 251.508 147.89 251.601C148.183 251.681 148.543 251.774 148.97 251.881C149.677 252.054 150.283 252.228 150.79 252.401C151.31 252.574 151.737 252.781 152.07 253.021C152.403 253.248 152.65 253.521 152.81 253.841C152.97 254.148 153.05 254.521 153.05 254.961C153.05 255.961 152.67 256.754 151.91 257.341C151.163 257.914 150.143 258.201 148.85 258.201ZM172.406 247.541H174.506L170.106 258.001H168.286L166.346 253.141L164.406 258.001H162.586L158.166 247.541H160.266L163.646 255.881L165.166 252.001L163.346 247.561H165.146L166.346 250.841L167.526 247.561H169.326L167.526 252.001L169.046 255.881L172.406 247.541ZM175.968 258.001V247.541H178.168V258.001H175.968ZM175.968 245.821V243.401H178.168V245.821H175.968ZM186.632 257.461C186.352 257.594 185.965 257.748 185.472 257.921C184.978 258.081 184.452 258.161 183.892 258.161C183.545 258.161 183.218 258.114 182.912 258.021C182.605 257.928 182.332 257.788 182.092 257.601C181.865 257.414 181.685 257.174 181.552 256.881C181.418 256.574 181.352 256.208 181.352 255.781V249.241H179.972V247.541H181.352V244.101H183.552V247.541H185.832V249.241H183.552V255.081C183.578 255.454 183.692 255.728 183.892 255.901C184.105 256.061 184.365 256.141 184.672 256.141C184.978 256.141 185.272 256.088 185.552 255.981C185.832 255.874 186.038 255.788 186.172 255.721L186.632 257.461ZM197.535 258.001H195.335V252.141C195.335 251.181 195.162 250.474 194.815 250.021C194.482 249.554 193.995 249.321 193.355 249.321C193.049 249.321 192.742 249.381 192.435 249.501C192.129 249.621 191.835 249.794 191.555 250.021C191.289 250.234 191.049 250.494 190.835 250.801C190.622 251.094 190.462 251.421 190.355 251.781V258.001H188.155V243.401H190.355V249.641C190.755 248.921 191.295 248.361 191.975 247.961C192.669 247.561 193.422 247.361 194.235 247.361C194.889 247.361 195.422 247.481 195.835 247.721C196.262 247.948 196.602 248.254 196.855 248.641C197.109 249.028 197.282 249.481 197.375 250.001C197.482 250.508 197.535 251.048 197.535 251.621V258.001ZM205.05 243.401H207.25V254.981C207.25 255.368 207.35 255.674 207.55 255.901C207.75 256.114 208.03 256.221 208.39 256.221C208.537 256.221 208.704 256.194 208.89 256.141C209.09 256.088 209.277 256.028 209.45 255.961L209.77 257.681C209.45 257.828 209.07 257.941 208.63 258.021C208.19 258.114 207.797 258.161 207.45 258.161C206.69 258.161 206.097 257.954 205.67 257.541C205.257 257.128 205.05 256.541 205.05 255.781V243.401ZM211.046 258.001V247.541H213.246V258.001H211.046ZM211.046 245.821V243.401H213.246V245.821H211.046ZM220.03 258.101C219.323 258.101 218.676 257.961 218.09 257.681C217.503 257.388 216.996 256.994 216.57 256.501C216.156 256.008 215.83 255.441 215.59 254.801C215.363 254.161 215.25 253.488 215.25 252.781C215.25 252.034 215.37 251.334 215.61 250.681C215.85 250.014 216.183 249.441 216.61 248.961C217.036 248.468 217.543 248.081 218.13 247.801C218.73 247.508 219.39 247.361 220.11 247.361C220.95 247.361 221.683 247.561 222.31 247.961C222.95 248.361 223.476 248.881 223.89 249.521V247.541H225.83V257.701C225.83 258.461 225.69 259.134 225.41 259.721C225.13 260.308 224.736 260.801 224.23 261.201C223.736 261.614 223.15 261.928 222.47 262.141C221.79 262.354 221.056 262.461 220.27 262.461C219.11 262.461 218.143 262.261 217.37 261.861C216.61 261.474 215.97 260.928 215.45 260.221L216.69 259.061C217.09 259.621 217.603 260.048 218.23 260.341C218.87 260.634 219.55 260.781 220.27 260.781C220.723 260.781 221.15 260.721 221.55 260.601C221.963 260.481 222.323 260.294 222.63 260.041C222.936 259.788 223.176 259.468 223.35 259.081C223.536 258.694 223.63 258.234 223.63 257.701V256.101C223.256 256.741 222.743 257.234 222.09 257.581C221.436 257.928 220.75 258.101 220.03 258.101ZM220.75 256.321C221.083 256.321 221.403 256.268 221.71 256.161C222.016 256.041 222.296 255.888 222.55 255.701C222.816 255.501 223.043 255.281 223.23 255.041C223.416 254.788 223.55 254.521 223.63 254.241V251.501C223.496 251.168 223.323 250.868 223.11 250.601C222.896 250.321 222.65 250.081 222.37 249.881C222.103 249.681 221.816 249.528 221.51 249.421C221.203 249.301 220.896 249.241 220.59 249.241C220.11 249.241 219.676 249.348 219.29 249.561C218.916 249.761 218.596 250.034 218.33 250.381C218.063 250.714 217.856 251.094 217.71 251.521C217.563 251.948 217.49 252.388 217.49 252.841C217.49 253.321 217.57 253.774 217.73 254.201C217.903 254.614 218.136 254.981 218.43 255.301C218.723 255.608 219.063 255.854 219.45 256.041C219.85 256.228 220.283 256.321 220.75 256.321ZM237.848 258.001H235.648V252.141C235.648 251.181 235.475 250.474 235.128 250.021C234.795 249.554 234.308 249.321 233.668 249.321C233.361 249.321 233.055 249.381 232.748 249.501C232.441 249.621 232.148 249.794 231.868 250.021C231.601 250.234 231.361 250.494 231.148 250.801C230.935 251.094 230.775 251.421 230.668 251.781V258.001H228.468V243.401H230.668V249.641C231.068 248.921 231.608 248.361 232.288 247.961C232.981 247.561 233.735 247.361 234.548 247.361C235.201 247.361 235.735 247.481 236.148 247.721C236.575 247.948 236.915 248.254 237.168 248.641C237.421 249.028 237.595 249.481 237.688 250.001C237.795 250.508 237.848 251.048 237.848 251.621V258.001ZM246.124 257.461C245.844 257.594 245.457 257.748 244.964 257.921C244.471 258.081 243.944 258.161 243.384 258.161C243.037 258.161 242.711 258.114 242.404 258.021C242.097 257.928 241.824 257.788 241.584 257.601C241.357 257.414 241.177 257.174 241.044 256.881C240.911 256.574 240.844 256.208 240.844 255.781V249.241H239.464V247.541H240.844V244.101H243.044V247.541H245.324V249.241H243.044V255.081C243.071 255.454 243.184 255.728 243.384 255.901C243.597 256.061 243.857 256.141 244.164 256.141C244.471 256.141 244.764 256.088 245.044 255.981C245.324 255.874 245.531 255.788 245.664 255.721L246.124 257.461ZM262.229 258.001L260.929 256.641C260.342 257.148 259.696 257.534 258.989 257.801C258.296 258.068 257.569 258.201 256.809 258.201C256.116 258.201 255.482 258.094 254.909 257.881C254.336 257.668 253.842 257.381 253.429 257.021C253.016 256.648 252.696 256.214 252.469 255.721C252.242 255.214 252.129 254.681 252.129 254.121C252.129 253.668 252.196 253.248 252.329 252.861C252.476 252.474 252.669 252.114 252.909 251.781C253.149 251.448 253.429 251.141 253.749 250.861C254.069 250.581 254.402 250.321 254.749 250.081C254.442 249.748 254.182 249.441 253.969 249.161C253.769 248.881 253.602 248.621 253.469 248.381C253.349 248.128 253.256 247.888 253.189 247.661C253.136 247.421 253.109 247.174 253.109 246.921C253.109 246.441 253.202 246.001 253.389 245.601C253.589 245.188 253.856 244.834 254.189 244.541C254.522 244.248 254.916 244.021 255.369 243.861C255.836 243.701 256.336 243.621 256.869 243.621C257.349 243.621 257.809 243.688 258.249 243.821C258.689 243.954 259.076 244.148 259.409 244.401C259.742 244.654 260.002 244.974 260.189 245.361C260.389 245.734 260.489 246.161 260.489 246.641C260.489 247.041 260.416 247.408 260.269 247.741C260.136 248.074 259.949 248.394 259.709 248.701C259.469 248.994 259.182 249.281 258.849 249.561C258.529 249.828 258.182 250.088 257.809 250.341L261.009 253.701C261.236 253.234 261.409 252.734 261.529 252.201C261.662 251.654 261.729 251.074 261.729 250.461H263.529C263.516 251.368 263.402 252.208 263.189 252.981C262.976 253.741 262.676 254.428 262.289 255.041L265.129 258.001H262.229ZM257.049 256.461C257.542 256.461 258.016 256.368 258.469 256.181C258.936 255.994 259.362 255.728 259.749 255.381L256.069 251.481C255.522 251.868 255.082 252.274 254.749 252.701C254.416 253.128 254.249 253.608 254.249 254.141C254.249 254.488 254.322 254.808 254.469 255.101C254.616 255.381 254.816 255.621 255.069 255.821C255.336 256.021 255.636 256.181 255.969 256.301C256.302 256.408 256.662 256.461 257.049 256.461ZM255.129 246.861C255.129 246.994 255.149 247.128 255.189 247.261C255.229 247.381 255.296 247.521 255.389 247.681C255.496 247.841 255.636 248.021 255.809 248.221C255.996 248.421 256.222 248.668 256.489 248.961C257.102 248.574 257.582 248.208 257.929 247.861C258.289 247.501 258.469 247.108 258.469 246.681C258.469 246.254 258.316 245.914 258.009 245.661C257.716 245.394 257.336 245.261 256.869 245.261C256.362 245.261 255.942 245.421 255.609 245.741C255.289 246.048 255.129 246.421 255.129 246.861ZM99.5726 281.201C98.7326 281.201 97.8926 281.068 97.0526 280.801C96.226 280.521 95.5126 280.128 94.9126 279.621L95.7926 278.221C96.4193 278.674 97.0393 279.021 97.6526 279.261C98.266 279.488 98.8926 279.601 99.5326 279.601C100.186 279.601 100.699 279.474 101.073 279.221C101.459 278.968 101.653 278.608 101.653 278.141C101.653 277.701 101.439 277.381 101.013 277.181C100.586 276.981 99.9193 276.761 99.0126 276.521C98.3593 276.348 97.7993 276.181 97.3326 276.021C96.866 275.861 96.486 275.674 96.1926 275.461C95.8993 275.248 95.686 275.001 95.5526 274.721C95.4193 274.441 95.3526 274.101 95.3526 273.701C95.3526 273.168 95.4526 272.694 95.6526 272.281C95.866 271.868 96.1526 271.521 96.5126 271.241C96.886 270.948 97.3193 270.728 97.8126 270.581C98.306 270.434 98.8393 270.361 99.4126 270.361C100.199 270.361 100.933 270.481 101.613 270.721C102.293 270.961 102.899 271.308 103.433 271.761L102.493 273.081C101.519 272.308 100.486 271.921 99.3926 271.921C98.8326 271.921 98.3593 272.041 97.9726 272.281C97.5993 272.508 97.4126 272.874 97.4126 273.381C97.4126 273.594 97.4526 273.774 97.5326 273.921C97.6126 274.068 97.7393 274.194 97.9126 274.301C98.0993 274.408 98.3326 274.508 98.6126 274.601C98.906 274.681 99.266 274.774 99.6926 274.881C100.399 275.054 101.006 275.228 101.513 275.401C102.033 275.574 102.459 275.781 102.793 276.021C103.126 276.248 103.373 276.521 103.533 276.841C103.693 277.148 103.773 277.521 103.773 277.961C103.773 278.961 103.393 279.754 102.633 280.341C101.886 280.914 100.866 281.201 99.5726 281.201ZM110.395 281.201C109.568 281.201 108.821 281.054 108.155 280.761C107.501 280.468 106.941 280.074 106.475 279.581C106.008 279.088 105.648 278.514 105.395 277.861C105.141 277.194 105.015 276.501 105.015 275.781C105.015 275.061 105.141 274.374 105.395 273.721C105.648 273.054 106.008 272.474 106.475 271.981C106.955 271.488 107.521 271.094 108.175 270.801C108.841 270.508 109.581 270.361 110.395 270.361C111.208 270.361 111.941 270.508 112.595 270.801C113.261 271.094 113.828 271.488 114.295 271.981C114.775 272.474 115.141 273.054 115.395 273.721C115.648 274.374 115.775 275.061 115.775 275.781C115.775 276.501 115.648 277.194 115.395 277.861C115.141 278.514 114.775 279.088 114.295 279.581C113.828 280.074 113.261 280.468 112.595 280.761C111.941 281.054 111.208 281.201 110.395 281.201ZM107.275 275.801C107.275 276.308 107.355 276.774 107.515 277.201C107.675 277.628 107.895 278.001 108.175 278.321C108.455 278.628 108.781 278.874 109.155 279.061C109.541 279.234 109.955 279.321 110.395 279.321C110.835 279.321 111.241 279.234 111.615 279.061C112.001 278.874 112.335 278.621 112.615 278.301C112.895 277.981 113.115 277.608 113.275 277.181C113.435 276.754 113.515 276.288 113.515 275.781C113.515 275.288 113.435 274.828 113.275 274.401C113.115 273.961 112.895 273.581 112.615 273.261C112.335 272.941 112.001 272.694 111.615 272.521C111.241 272.334 110.835 272.241 110.395 272.241C109.968 272.241 109.561 272.334 109.175 272.521C108.801 272.708 108.475 272.961 108.195 273.281C107.915 273.601 107.688 273.981 107.515 274.421C107.355 274.848 107.275 275.308 107.275 275.801ZM120.946 281.201C119.852 281.201 119.026 280.848 118.466 280.141C117.906 279.421 117.626 278.354 117.626 276.941V270.541H119.826V276.501C119.826 278.381 120.492 279.321 121.826 279.321C122.452 279.321 123.046 279.128 123.606 278.741C124.166 278.354 124.599 277.794 124.906 277.061V270.541H127.106V278.401C127.106 278.654 127.146 278.834 127.226 278.941C127.319 279.048 127.479 279.108 127.706 279.121V281.001C127.479 281.041 127.292 281.068 127.146 281.081C126.999 281.094 126.859 281.101 126.726 281.101C126.326 281.101 125.986 280.994 125.706 280.781C125.426 280.554 125.279 280.268 125.266 279.921L125.226 278.881C124.759 279.641 124.152 280.221 123.406 280.621C122.659 281.008 121.839 281.201 120.946 281.201ZM139.293 281.001H137.093V275.141C137.093 274.154 136.933 273.441 136.613 273.001C136.307 272.548 135.847 272.321 135.233 272.321C134.913 272.321 134.593 272.381 134.273 272.501C133.953 272.621 133.653 272.794 133.373 273.021C133.093 273.234 132.84 273.494 132.613 273.801C132.4 274.094 132.233 274.421 132.113 274.781V281.001H129.913V270.541H131.913V272.641C132.313 271.934 132.893 271.381 133.653 270.981C134.413 270.568 135.253 270.361 136.173 270.361C136.8 270.361 137.313 270.474 137.713 270.701C138.113 270.928 138.427 271.241 138.653 271.641C138.893 272.028 139.06 272.481 139.153 273.001C139.247 273.508 139.293 274.048 139.293 274.621V281.001ZM146.107 281.201C145.4 281.201 144.747 281.061 144.147 280.781C143.547 280.488 143.027 280.094 142.587 279.601C142.147 279.108 141.8 278.534 141.547 277.881C141.307 277.214 141.187 276.501 141.187 275.741C141.187 275.008 141.3 274.321 141.527 273.681C141.767 273.028 142.094 272.454 142.507 271.961C142.934 271.468 143.427 271.081 143.987 270.801C144.56 270.508 145.187 270.361 145.867 270.361C146.707 270.361 147.447 270.568 148.087 270.981C148.727 271.381 149.227 271.894 149.587 272.521V266.401H151.787V278.401C151.787 278.654 151.827 278.834 151.907 278.941C152 279.048 152.16 279.108 152.387 279.121V281.001C152.16 281.041 151.974 281.068 151.827 281.081C151.694 281.094 151.58 281.101 151.487 281.101C151.047 281.101 150.687 280.988 150.407 280.761C150.127 280.534 149.974 280.241 149.947 279.881L149.907 279.101C149.52 279.754 148.994 280.268 148.327 280.641C147.66 281.014 146.92 281.201 146.107 281.201ZM146.647 279.321C146.967 279.321 147.287 279.268 147.607 279.161C147.927 279.054 148.22 278.908 148.487 278.721C148.754 278.534 148.98 278.314 149.167 278.061C149.367 277.808 149.507 277.534 149.587 277.241V274.501C149.467 274.168 149.294 273.861 149.067 273.581C148.854 273.301 148.607 273.061 148.327 272.861C148.047 272.661 147.747 272.508 147.427 272.401C147.12 272.294 146.807 272.241 146.487 272.241C146.047 272.241 145.64 272.341 145.267 272.541C144.907 272.741 144.594 273.008 144.327 273.341C144.06 273.674 143.847 274.054 143.687 274.481C143.54 274.908 143.467 275.348 143.467 275.801C143.467 276.281 143.547 276.734 143.707 277.161C143.88 277.588 144.114 277.961 144.407 278.281C144.7 278.601 145.034 278.854 145.407 279.041C145.794 279.228 146.207 279.321 146.647 279.321ZM161.916 281.001L157.916 270.541H160.176L163.176 279.141L166.196 270.541H168.276L164.276 281.001H161.916ZM169.835 281.001V270.541H172.035V281.001H169.835ZM169.835 268.821V266.401H172.035V268.821H169.835ZM180.319 281.201C179.519 281.201 178.792 281.014 178.139 280.641C177.499 280.254 176.992 279.741 176.619 279.101V281.001H174.679V266.401H176.879V272.521C177.292 271.854 177.806 271.328 178.419 270.941C179.046 270.554 179.779 270.361 180.619 270.361C181.312 270.361 181.946 270.514 182.519 270.821C183.092 271.114 183.579 271.514 183.979 272.021C184.392 272.514 184.706 273.094 184.919 273.761C185.146 274.414 185.259 275.101 185.259 275.821C185.259 276.568 185.132 277.268 184.879 277.921C184.626 278.574 184.279 279.148 183.839 279.641C183.399 280.121 182.872 280.501 182.259 280.781C181.659 281.061 181.012 281.201 180.319 281.201ZM179.739 279.321C180.219 279.321 180.659 279.228 181.059 279.041C181.459 278.841 181.799 278.581 182.079 278.261C182.372 277.941 182.599 277.574 182.759 277.161C182.919 276.734 182.999 276.288 182.999 275.821C182.999 275.354 182.919 274.908 182.759 274.481C182.612 274.041 182.399 273.661 182.119 273.341C181.852 273.008 181.526 272.741 181.139 272.541C180.766 272.341 180.352 272.241 179.899 272.241C179.219 272.241 178.612 272.461 178.079 272.901C177.559 273.341 177.159 273.874 176.879 274.501V277.261C176.959 277.568 177.099 277.848 177.299 278.101C177.499 278.341 177.732 278.554 177.999 278.741C178.266 278.928 178.552 279.074 178.859 279.181C179.166 279.274 179.459 279.321 179.739 279.321ZM193.117 272.441C192.264 272.468 191.504 272.668 190.837 273.041C190.184 273.401 189.717 273.921 189.437 274.601V281.001H187.237V270.541H189.277V272.881C189.637 272.161 190.104 271.588 190.677 271.161C191.264 270.721 191.891 270.481 192.557 270.441C192.691 270.441 192.797 270.441 192.877 270.441C192.971 270.441 193.051 270.448 193.117 270.461V272.441ZM197.361 281.201C196.855 281.201 196.381 281.121 195.941 280.961C195.515 280.788 195.141 280.554 194.821 280.261C194.515 279.968 194.268 279.621 194.081 279.221C193.908 278.821 193.821 278.388 193.821 277.921C193.821 277.428 193.928 276.981 194.141 276.581C194.355 276.181 194.655 275.834 195.041 275.541C195.441 275.248 195.908 275.021 196.441 274.861C196.988 274.701 197.588 274.621 198.241 274.621C198.735 274.621 199.221 274.668 199.701 274.761C200.181 274.841 200.615 274.954 201.001 275.101V274.381C201.001 273.608 200.781 273.008 200.341 272.581C199.901 272.141 199.268 271.921 198.441 271.921C197.881 271.921 197.328 272.028 196.781 272.241C196.248 272.441 195.695 272.734 195.121 273.121L194.441 271.721C195.788 270.814 197.188 270.361 198.641 270.361C200.081 270.361 201.201 270.728 202.001 271.461C202.801 272.194 203.201 273.248 203.201 274.621V278.401C203.201 278.868 203.395 279.108 203.781 279.121V281.001C203.568 281.041 203.381 281.068 203.221 281.081C203.075 281.094 202.928 281.101 202.781 281.101C202.355 281.101 202.021 280.994 201.781 280.781C201.555 280.568 201.415 280.294 201.361 279.961L201.301 279.301C200.835 279.914 200.255 280.388 199.561 280.721C198.881 281.041 198.148 281.201 197.361 281.201ZM197.961 279.581C198.495 279.581 198.995 279.488 199.461 279.301C199.941 279.101 200.315 278.828 200.581 278.481C200.861 278.241 201.001 277.988 201.001 277.721V276.341C200.628 276.194 200.228 276.081 199.801 276.001C199.388 275.921 198.981 275.881 198.581 275.881C197.795 275.881 197.148 276.054 196.641 276.401C196.148 276.734 195.901 277.181 195.901 277.741C195.901 278.261 196.095 278.701 196.481 279.061C196.868 279.408 197.361 279.581 197.961 279.581ZM211.612 280.461C211.332 280.594 210.946 280.748 210.452 280.921C209.959 281.081 209.432 281.161 208.872 281.161C208.526 281.161 208.199 281.114 207.892 281.021C207.586 280.928 207.312 280.788 207.072 280.601C206.846 280.414 206.666 280.174 206.532 279.881C206.399 279.574 206.332 279.208 206.332 278.781V272.241H204.952V270.541H206.332V267.101H208.532V270.541H210.812V272.241H208.532V278.081C208.559 278.454 208.672 278.728 208.872 278.901C209.086 279.061 209.346 279.141 209.652 279.141C209.959 279.141 210.252 279.088 210.532 278.981C210.812 278.874 211.019 278.788 211.152 278.721L211.612 280.461ZM213.136 281.001V270.541H215.336V281.001H213.136ZM213.136 268.821V266.401H215.336V268.821H213.136ZM222.68 281.201C221.853 281.201 221.106 281.054 220.44 280.761C219.786 280.468 219.226 280.074 218.76 279.581C218.293 279.088 217.933 278.514 217.68 277.861C217.426 277.194 217.3 276.501 217.3 275.781C217.3 275.061 217.426 274.374 217.68 273.721C217.933 273.054 218.293 272.474 218.76 271.981C219.24 271.488 219.806 271.094 220.46 270.801C221.126 270.508 221.866 270.361 222.68 270.361C223.493 270.361 224.226 270.508 224.88 270.801C225.546 271.094 226.113 271.488 226.58 271.981C227.06 272.474 227.426 273.054 227.68 273.721C227.933 274.374 228.06 275.061 228.06 275.781C228.06 276.501 227.933 277.194 227.68 277.861C227.426 278.514 227.06 279.088 226.58 279.581C226.113 280.074 225.546 280.468 224.88 280.761C224.226 281.054 223.493 281.201 222.68 281.201ZM219.56 275.801C219.56 276.308 219.64 276.774 219.8 277.201C219.96 277.628 220.18 278.001 220.46 278.321C220.74 278.628 221.066 278.874 221.44 279.061C221.826 279.234 222.24 279.321 222.68 279.321C223.12 279.321 223.526 279.234 223.9 279.061C224.286 278.874 224.62 278.621 224.9 278.301C225.18 277.981 225.4 277.608 225.56 277.181C225.72 276.754 225.8 276.288 225.8 275.781C225.8 275.288 225.72 274.828 225.56 274.401C225.4 273.961 225.18 273.581 224.9 273.261C224.62 272.941 224.286 272.694 223.9 272.521C223.526 272.334 223.12 272.241 222.68 272.241C222.253 272.241 221.846 272.334 221.46 272.521C221.086 272.708 220.76 272.961 220.48 273.281C220.2 273.601 219.973 273.981 219.8 274.421C219.64 274.848 219.56 275.308 219.56 275.801ZM239.391 281.001H237.191V275.141C237.191 274.154 237.031 273.441 236.711 273.001C236.404 272.548 235.944 272.321 235.331 272.321C235.011 272.321 234.691 272.381 234.371 272.501C234.051 272.621 233.751 272.794 233.471 273.021C233.191 273.234 232.938 273.494 232.711 273.801C232.498 274.094 232.331 274.421 232.211 274.781V281.001H230.011V270.541H232.011V272.641C232.411 271.934 232.991 271.381 233.751 270.981C234.511 270.568 235.351 270.361 236.271 270.361C236.898 270.361 237.411 270.474 237.811 270.701C238.211 270.928 238.524 271.241 238.751 271.641C238.991 272.028 239.158 272.481 239.251 273.001C239.344 273.508 239.391 274.048 239.391 274.621V281.001ZM245.745 281.201C244.905 281.201 244.065 281.068 243.225 280.801C242.398 280.521 241.685 280.128 241.085 279.621L241.965 278.221C242.591 278.674 243.211 279.021 243.825 279.261C244.438 279.488 245.065 279.601 245.705 279.601C246.358 279.601 246.871 279.474 247.245 279.221C247.631 278.968 247.825 278.608 247.825 278.141C247.825 277.701 247.611 277.381 247.185 277.181C246.758 276.981 246.091 276.761 245.185 276.521C244.531 276.348 243.971 276.181 243.505 276.021C243.038 275.861 242.658 275.674 242.365 275.461C242.071 275.248 241.858 275.001 241.725 274.721C241.591 274.441 241.525 274.101 241.525 273.701C241.525 273.168 241.625 272.694 241.825 272.281C242.038 271.868 242.325 271.521 242.685 271.241C243.058 270.948 243.491 270.728 243.985 270.581C244.478 270.434 245.011 270.361 245.585 270.361C246.371 270.361 247.105 270.481 247.785 270.721C248.465 270.961 249.071 271.308 249.605 271.761L248.665 273.081C247.691 272.308 246.658 271.921 245.565 271.921C245.005 271.921 244.531 272.041 244.145 272.281C243.771 272.508 243.585 272.874 243.585 273.381C243.585 273.594 243.625 273.774 243.705 273.921C243.785 274.068 243.911 274.194 244.085 274.301C244.271 274.408 244.505 274.508 244.785 274.601C245.078 274.681 245.438 274.774 245.865 274.881C246.571 275.054 247.178 275.228 247.685 275.401C248.205 275.574 248.631 275.781 248.965 276.021C249.298 276.248 249.545 276.521 249.705 276.841C249.865 277.148 249.945 277.521 249.945 277.961C249.945 278.961 249.565 279.754 248.805 280.341C248.058 280.914 247.038 281.201 245.745 281.201Z" fill="white"/>
<path d="M38.239 120.002C38.239 116.162 38.5377 112.706 39.135 109.634C39.7323 106.477 40.7563 103.575 42.207 100.93C43.743 98.2846 45.791 95.81 48.351 93.506C50.9963 91.202 54.3243 88.9406 58.335 86.722C61.8337 84.8446 64.9057 83.2233 67.551 81.858C70.2817 80.4073 72.543 79.0846 74.335 77.8899C76.127 76.6953 77.4923 75.5006 78.431 74.306C79.3697 73.026 79.839 71.5753 79.839 69.9539C79.839 67.3939 78.815 65.2179 76.767 63.4259C74.719 61.5486 71.775 60.61 67.935 60.61C65.887 60.61 64.0097 60.9086 62.303 61.506C60.5963 62.0179 58.975 62.7433 57.439 63.6819C55.9883 64.6206 54.623 65.6873 53.343 66.882C52.1483 67.9913 51.039 69.186 50.015 70.466L39.007 57.7939C40.1163 56.5993 41.695 55.3193 43.743 53.9539C45.791 52.5033 48.1803 51.1806 50.911 49.9859C53.727 48.7059 56.799 47.6819 60.127 46.9139C63.5403 46.0606 67.167 45.6339 71.007 45.6339C75.359 45.6339 79.2417 46.1886 82.655 47.298C86.0683 48.3219 88.927 49.8153 91.231 51.7779C93.6203 53.6553 95.4123 55.9593 96.607 58.6899C97.887 61.3353 98.527 64.2366 98.527 67.394C98.527 70.3806 97.9723 73.026 96.863 75.33C95.7537 77.634 94.3457 79.6819 92.639 81.4739C90.9323 83.266 89.055 84.8446 87.007 86.21C85.0443 87.49 83.1243 88.642 81.247 89.666C79.711 90.5193 77.9617 91.5006 75.999 92.61C74.0363 93.7193 72.0737 94.9566 70.111 96.322C68.2337 97.602 66.4843 98.9673 64.863 100.418C63.2417 101.783 62.0043 103.149 61.151 104.514H99.935V120.002H38.239Z" fill="white"/>
<path opacity="0.8" d="M-388 344.835C-340.314 345.121 -340.181 331.132 -292.527 331.394C-244.872 331.657 -263.227 339.474 -215.573 339.753C-167.918 340.033 -149.422 320.968 -101.767 321.254C-54.1128 321.539 -68.2701 347.953 -6.73965 348.318C54.7908 348.683 42.4394 332.599 90.094 332.902C137.749 333.204 136.216 352.766 183.863 353.046C231.51 353.326 216.548 319.626 279.555 320.003C342.563 320.38 306.736 346.839 374.575 347.861C442.414 348.883 421.8 333.907 469.463 334.203C508.463 334.443 516.367 348.918 564.053 349.203C611.738 349.489 613.013 338.383 660.683 338.668C708.353 338.954 708.369 340.187 756 340.467" stroke="url(#paint1_linear_10205_7997)" stroke-width="1.5" stroke-miterlimit="10"/>
<path opacity="0.6" d="M-327.087 352.332C-283.553 352.474 -283.474 339.77 -239.947 339.93C-196.827 340.073 -212.852 347.153 -170.803 347.427H-168.137C-125.697 347.176 -111.446 331.063 -68.4188 331.2C-46.1159 331.274 -38.7129 337.578 -29.1523 343.539C-20.0294 349.214 -8.90531 355.078 18.5336 355.169C74.7248 355.352 63.4131 340.569 106.948 340.712C150.483 340.855 149.052 358.167 192.611 358.31C216.008 358.39 225.772 349.391 236.067 341.306C244.901 334.346 255.892 329.315 282.51 329.413C313.78 329.515 321.136 335.179 328.906 341.837C335.418 347.455 340.914 353.371 369.252 353.702C428.992 354.427 417.242 342.1 456.024 341.477C459.151 341.42 462.278 341.477 465.483 341.586C500.435 342.905 501.193 353.508 542.453 353.639C585.996 353.782 587.129 344.886 630.664 345.029C674.199 345.172 674.191 345.337 717.734 345.48" stroke="url(#paint2_linear_10205_7997)" stroke-miterlimit="10"/>
<path opacity="0.4" d="M-266.166 359.829C-226.767 359.829 -226.767 348.472 -187.367 348.472C-147.968 348.472 -163.079 355.113 -123.671 355.113C-84.2639 355.113 -74.4688 341.152 -35.0693 341.152C-14.7442 341.152 -8.22451 346.862 0.562197 351.938C8.81733 356.734 19.0972 362.016 43.7375 362.016C94.605 362.016 84.333 348.547 123.732 348.547C163.132 348.547 161.952 363.598 201.351 363.598C221.496 363.598 233.965 356.061 242.494 349.083C250.647 342.403 259.997 338.806 285.489 338.806C311.943 338.806 323.013 341.386 329.266 347.073C335.372 352.583 336.302 359.298 363.929 359.527C420.026 359.989 411.786 348.529 451.186 348.529C490.585 348.529 481.509 358.059 520.917 358.059C560.324 358.059 561.293 351.379 600.701 351.379C640.108 351.379 640.108 350.477 679.515 350.477" stroke="url(#paint3_linear_10205_7997)" stroke-width="0.8" stroke-miterlimit="10"/>
</g>
<defs>
<linearGradient id="paint0_linear_10205_7997" x1="120.488" y1="104" x2="307.895" y2="104" gradientUnits="userSpaceOnUse">
<stop stop-color="#BF5AF2"/>
<stop offset="1" stop-color="#7B5AFF"/>
</linearGradient>
<linearGradient id="paint1_linear_10205_7997" x1="-495.087" y1="320" x2="-449.312" y2="584.346" gradientUnits="userSpaceOnUse">
<stop stop-color="#1A307C"/>
<stop offset="0.0001" stop-color="#324C94"/>
<stop offset="0.130208" stop-color="#D3D3D3"/>
</linearGradient>
<linearGradient id="paint2_linear_10205_7997" x1="-424.89" y1="329.411" x2="-386.47" y2="561.137" gradientUnits="userSpaceOnUse">
<stop stop-color="#1A307C"/>
<stop offset="0.0001" stop-color="#324C94"/>
<stop offset="0.130208" stop-color="#D3D3D3"/>
</linearGradient>
<linearGradient id="paint3_linear_10205_7997" x1="-354.689" y1="338.806" x2="-323.364" y2="538.14" gradientUnits="userSpaceOnUse">
<stop stop-color="#1A307C"/>
<stop offset="0.0001" stop-color="#324C94"/>
<stop offset="0.130208" stop-color="#D3D3D3"/>
</linearGradient>
<clipPath id="clip0_10205_7997">
<rect width="368" height="395" rx="12" fill="white"/>
</clipPath>
</defs>
</svg>
