<svg width="368" height="395" viewBox="0 0 368 395" fill="none" xmlns="http://www.w3.org/2000/svg">
<g clip-path="url(#clip0_10205_8006)">
<path d="M133 55.452C132.76 55.188 132.412 54.912 131.956 54.624C131.5 54.312 130.96 54.024 130.336 53.76C129.736 53.496 129.064 53.28 128.32 53.112C127.6 52.944 126.856 52.86 126.088 52.86C124.384 52.86 123.124 53.172 122.308 53.796C121.516 54.42 121.12 55.284 121.12 56.388C121.12 57.012 121.24 57.528 121.48 57.936C121.744 58.32 122.14 58.668 122.668 58.98C123.196 59.268 123.856 59.532 124.648 59.772C125.44 59.988 126.364 60.228 127.42 60.492C128.716 60.804 129.88 61.152 130.912 61.536C131.968 61.92 132.856 62.388 133.576 62.94C134.296 63.492 134.848 64.176 135.232 64.992C135.64 65.784 135.844 66.756 135.844 67.908C135.844 69.204 135.592 70.32 135.088 71.256C134.608 72.192 133.936 72.96 133.072 73.56C132.232 74.136 131.248 74.568 130.12 74.856C128.992 75.12 127.78 75.252 126.484 75.252C124.54 75.252 122.656 74.964 120.832 74.388C119.032 73.788 117.4 72.924 115.936 71.796L117.772 68.34C118.084 68.652 118.528 69 119.104 69.384C119.704 69.768 120.388 70.128 121.156 70.464C121.948 70.776 122.8 71.052 123.712 71.292C124.624 71.508 125.572 71.616 126.556 71.616C128.14 71.616 129.364 71.34 130.228 70.788C131.092 70.236 131.524 69.42 131.524 68.34C131.524 67.692 131.356 67.152 131.02 66.72C130.708 66.288 130.252 65.916 129.652 65.604C129.052 65.268 128.32 64.968 127.456 64.704C126.592 64.44 125.608 64.164 124.504 63.876C123.232 63.54 122.116 63.192 121.156 62.832C120.22 62.448 119.44 61.992 118.816 61.464C118.192 60.936 117.712 60.324 117.376 59.628C117.064 58.908 116.908 58.044 116.908 57.036C116.908 55.788 117.148 54.684 117.628 53.724C118.108 52.74 118.756 51.924 119.572 51.276C120.412 50.604 121.396 50.1 122.524 49.764C123.652 49.428 124.876 49.26 126.196 49.26C127.924 49.26 129.52 49.536 130.984 50.088C132.448 50.64 133.732 51.324 134.836 52.14L133 55.452ZM149.649 74.028C149.145 74.268 148.449 74.544 147.561 74.856C146.673 75.144 145.725 75.288 144.717 75.288C144.093 75.288 143.505 75.204 142.953 75.036C142.401 74.868 141.909 74.616 141.477 74.28C141.069 73.944 140.745 73.512 140.505 72.984C140.265 72.432 140.145 71.772 140.145 71.004V59.232H137.661V56.172H140.145V49.98H144.105V56.172H148.209V59.232H144.105V69.744C144.153 70.416 144.357 70.908 144.717 71.22C145.101 71.508 145.569 71.652 146.121 71.652C146.673 71.652 147.201 71.556 147.705 71.364C148.209 71.172 148.581 71.016 148.821 70.896L149.649 74.028ZM157.396 75.36C156.484 75.36 155.632 75.216 154.84 74.928C154.072 74.616 153.4 74.196 152.824 73.668C152.272 73.14 151.828 72.516 151.492 71.796C151.18 71.076 151.024 70.296 151.024 69.456C151.024 68.568 151.216 67.764 151.6 67.044C151.984 66.324 152.524 65.7 153.22 65.172C153.94 64.644 154.78 64.236 155.74 63.948C156.724 63.66 157.804 63.516 158.98 63.516C159.868 63.516 160.744 63.6 161.608 63.768C162.472 63.912 163.252 64.116 163.948 64.38V63.084C163.948 61.692 163.552 60.612 162.76 59.844C161.968 59.052 160.828 58.656 159.34 58.656C158.332 58.656 157.336 58.848 156.352 59.232C155.392 59.592 154.396 60.12 153.364 60.816L152.14 58.296C154.564 56.664 157.084 55.848 159.7 55.848C162.292 55.848 164.308 56.508 165.748 57.828C167.188 59.148 167.908 61.044 167.908 63.516V70.32C167.908 71.16 168.256 71.592 168.952 71.616V75C168.568 75.072 168.232 75.12 167.944 75.144C167.68 75.168 167.416 75.18 167.152 75.18C166.384 75.18 165.784 74.988 165.352 74.604C164.944 74.22 164.692 73.728 164.596 73.128L164.488 71.94C163.648 73.044 162.604 73.896 161.356 74.496C160.132 75.072 158.812 75.36 157.396 75.36ZM158.476 72.444C159.436 72.444 160.336 72.276 161.176 71.94C162.04 71.58 162.712 71.088 163.192 70.464C163.696 70.032 163.948 69.576 163.948 69.096V66.612C163.276 66.348 162.556 66.144 161.788 66C161.044 65.856 160.312 65.784 159.592 65.784C158.176 65.784 157.012 66.096 156.1 66.72C155.212 67.32 154.768 68.124 154.768 69.132C154.768 70.068 155.116 70.86 155.812 71.508C156.508 72.132 157.396 72.444 158.476 72.444ZM172.903 79.428C173.263 79.5 173.611 79.56 173.947 79.608C174.307 79.656 174.595 79.68 174.811 79.68C175.123 79.68 175.387 79.608 175.603 79.464C175.843 79.344 176.083 79.116 176.323 78.78C176.563 78.444 176.803 77.964 177.043 77.34C177.307 76.74 177.607 75.96 177.943 75L170.203 56.172H174.271L180.103 71.508L185.287 56.172H189.031L180.499 79.356C180.115 80.436 179.443 81.336 178.483 82.056C177.547 82.8 176.335 83.172 174.847 83.172C174.559 83.172 174.259 83.148 173.947 83.1C173.635 83.076 173.287 83.004 172.903 82.884V79.428ZM228.653 75H224.693V64.452C224.693 62.7 224.405 61.416 223.829 60.6C223.253 59.784 222.413 59.376 221.309 59.376C220.181 59.376 219.149 59.796 218.213 60.636C217.301 61.452 216.641 62.52 216.233 63.84V75H212.273V64.452C212.273 62.676 211.985 61.392 211.409 60.6C210.833 59.784 210.005 59.376 208.925 59.376C207.797 59.376 206.765 59.784 205.829 60.6C204.893 61.416 204.221 62.484 203.813 63.804V75H199.853V56.172H203.453V59.952C204.197 58.632 205.169 57.624 206.369 56.928C207.593 56.208 208.985 55.848 210.545 55.848C212.105 55.848 213.329 56.256 214.217 57.072C215.129 57.888 215.693 58.908 215.909 60.132C216.701 58.74 217.697 57.684 218.897 56.964C220.097 56.22 221.465 55.848 223.001 55.848C224.105 55.848 225.017 56.064 225.737 56.496C226.481 56.904 227.069 57.456 227.501 58.152C227.933 58.848 228.233 59.664 228.401 60.6C228.569 61.512 228.653 62.484 228.653 63.516V75ZM233.216 75V56.172H237.176V75H233.216ZM233.216 53.076V48.72H237.176V53.076H233.216ZM258.819 75H254.859V64.452C254.859 62.676 254.571 61.392 253.995 60.6C253.443 59.784 252.615 59.376 251.511 59.376C250.935 59.376 250.359 59.484 249.783 59.7C249.207 59.916 248.667 60.228 248.163 60.636C247.659 61.02 247.203 61.488 246.795 62.04C246.411 62.568 246.111 63.156 245.895 63.804V75H241.935V56.172H245.535V59.952C246.255 58.68 247.299 57.684 248.667 56.964C250.035 56.22 251.547 55.848 253.203 55.848C254.331 55.848 255.255 56.052 255.975 56.46C256.695 56.868 257.259 57.432 257.667 58.152C258.099 58.848 258.399 59.664 258.567 60.6C258.735 61.512 258.819 62.484 258.819 63.516V75ZM271.083 75.36C269.811 75.36 268.635 75.108 267.555 74.604C266.475 74.076 265.539 73.368 264.747 72.48C263.955 71.592 263.331 70.56 262.875 69.384C262.443 68.184 262.227 66.9 262.227 65.532C262.227 64.212 262.431 62.976 262.839 61.824C263.271 60.648 263.859 59.616 264.603 58.728C265.371 57.84 266.259 57.144 267.267 56.64C268.299 56.112 269.427 55.848 270.651 55.848C272.163 55.848 273.495 56.22 274.647 56.964C275.799 57.684 276.699 58.608 277.347 59.736V48.72H281.307V70.32C281.307 70.776 281.379 71.1 281.523 71.292C281.691 71.484 281.979 71.592 282.387 71.616V75C281.979 75.072 281.643 75.12 281.379 75.144C281.139 75.168 280.935 75.18 280.767 75.18C279.975 75.18 279.327 74.976 278.823 74.568C278.319 74.16 278.043 73.632 277.995 72.984L277.923 71.58C277.227 72.756 276.279 73.68 275.079 74.352C273.879 75.024 272.547 75.36 271.083 75.36ZM272.055 71.976C272.631 71.976 273.207 71.88 273.783 71.688C274.359 71.496 274.887 71.232 275.367 70.896C275.847 70.56 276.255 70.164 276.591 69.708C276.951 69.252 277.203 68.76 277.347 68.232V63.3C277.131 62.7 276.819 62.148 276.411 61.644C276.027 61.14 275.583 60.708 275.079 60.348C274.575 59.988 274.035 59.712 273.459 59.52C272.907 59.328 272.343 59.232 271.767 59.232C270.975 59.232 270.243 59.412 269.571 59.772C268.923 60.132 268.359 60.612 267.879 61.212C267.399 61.812 267.015 62.496 266.727 63.264C266.463 64.032 266.331 64.824 266.331 65.64C266.331 66.504 266.475 67.32 266.763 68.088C267.075 68.856 267.495 69.528 268.023 70.104C268.551 70.68 269.151 71.136 269.823 71.472C270.519 71.808 271.263 71.976 272.055 71.976ZM287.417 75V59.7H284.897V56.64H287.417V55.884C287.417 53.556 287.957 51.72 289.037 50.376C290.117 49.032 291.581 48.36 293.429 48.36C294.197 48.36 294.953 48.468 295.697 48.684C296.441 48.876 297.149 49.152 297.821 49.512L296.957 52.464C296.597 52.248 296.165 52.068 295.661 51.924C295.181 51.78 294.713 51.708 294.257 51.708C293.321 51.708 292.601 52.056 292.097 52.752C291.617 53.448 291.377 54.456 291.377 55.776V56.64H296.201V59.7H291.377V75H287.417ZM304.965 75.36C302.997 75.36 301.509 74.724 300.501 73.452C299.493 72.156 298.989 70.236 298.989 67.692V56.172H302.949V66.9C302.949 70.284 304.149 71.976 306.549 71.976C307.677 71.976 308.745 71.628 309.753 70.932C310.761 70.236 311.541 69.228 312.093 67.908V56.172H316.053V70.32C316.053 70.776 316.125 71.1 316.269 71.292C316.437 71.484 316.725 71.592 317.133 71.616V75C316.725 75.072 316.389 75.12 316.125 75.144C315.861 75.168 315.609 75.18 315.369 75.18C314.649 75.18 314.037 74.988 313.533 74.604C313.029 74.196 312.765 73.68 312.741 73.056L312.669 71.184C311.829 72.552 310.737 73.596 309.393 74.316C308.049 75.012 306.573 75.36 304.965 75.36ZM321.142 48.72H325.102V69.564C325.102 70.26 325.282 70.812 325.642 71.22C326.002 71.604 326.506 71.796 327.154 71.796C327.418 71.796 327.718 71.748 328.054 71.652C328.414 71.556 328.75 71.448 329.062 71.328L329.638 74.424C329.062 74.688 328.378 74.892 327.586 75.036C326.794 75.204 326.086 75.288 325.462 75.288C324.094 75.288 323.026 74.916 322.258 74.172C321.514 73.428 321.142 72.372 321.142 71.004V48.72ZM127.852 116.028C127.348 116.268 126.652 116.544 125.764 116.856C124.876 117.144 123.928 117.288 122.92 117.288C122.296 117.288 121.708 117.204 121.156 117.036C120.604 116.868 120.112 116.616 119.68 116.28C119.272 115.944 118.948 115.512 118.708 114.984C118.468 114.432 118.348 113.772 118.348 113.004V101.232H115.864V98.172H118.348V91.98H122.308V98.172H126.412V101.232H122.308V111.744C122.356 112.416 122.56 112.908 122.92 113.22C123.304 113.508 123.772 113.652 124.324 113.652C124.876 113.652 125.404 113.556 125.908 113.364C126.412 113.172 126.784 113.016 127.024 112.896L127.852 116.028ZM147.479 117H143.519V106.452C143.519 104.724 143.207 103.452 142.583 102.636C141.983 101.796 141.107 101.376 139.955 101.376C139.403 101.376 138.851 101.484 138.299 101.7C137.747 101.916 137.219 102.228 136.715 102.636C136.235 103.02 135.803 103.488 135.419 104.04C135.035 104.568 134.747 105.156 134.555 105.804V117H130.595V90.72H134.555V101.952C135.275 100.656 136.247 99.648 137.471 98.928C138.719 98.208 140.075 97.848 141.539 97.848C142.715 97.848 143.675 98.064 144.419 98.496C145.187 98.904 145.799 99.456 146.255 100.152C146.711 100.848 147.023 101.664 147.191 102.6C147.383 103.512 147.479 104.484 147.479 105.516V117ZM162.659 101.592C161.123 101.64 159.755 102 158.555 102.672C157.379 103.32 156.539 104.256 156.035 105.48V117H152.075V98.172H155.747V102.384C156.395 101.088 157.235 100.056 158.267 99.288C159.323 98.496 160.451 98.064 161.651 97.992C161.891 97.992 162.083 97.992 162.227 97.992C162.395 97.992 162.539 98.004 162.659 98.028V101.592ZM173.051 117.36C171.563 117.36 170.219 117.096 169.019 116.568C167.843 116.04 166.835 115.332 165.995 114.444C165.155 113.556 164.507 112.524 164.051 111.348C163.595 110.148 163.367 108.9 163.367 107.604C163.367 106.308 163.595 105.072 164.051 103.896C164.507 102.696 165.155 101.652 165.995 100.764C166.859 99.876 167.879 99.168 169.055 98.64C170.255 98.112 171.587 97.848 173.051 97.848C174.515 97.848 175.835 98.112 177.011 98.64C178.211 99.168 179.231 99.876 180.071 100.764C180.935 101.652 181.595 102.696 182.051 103.896C182.507 105.072 182.735 106.308 182.735 107.604C182.735 108.9 182.507 110.148 182.051 111.348C181.595 112.524 180.935 113.556 180.071 114.444C179.231 115.332 178.211 116.04 177.011 116.568C175.835 117.096 174.515 117.36 173.051 117.36ZM167.435 107.64C167.435 108.552 167.579 109.392 167.867 110.16C168.155 110.928 168.551 111.6 169.055 112.176C169.559 112.728 170.147 113.172 170.819 113.508C171.515 113.82 172.259 113.976 173.051 113.976C173.843 113.976 174.575 113.82 175.247 113.508C175.943 113.172 176.543 112.716 177.047 112.14C177.551 111.564 177.947 110.892 178.235 110.124C178.523 109.356 178.667 108.516 178.667 107.604C178.667 106.716 178.523 105.888 178.235 105.12C177.947 104.328 177.551 103.644 177.047 103.068C176.543 102.492 175.943 102.048 175.247 101.736C174.575 101.4 173.843 101.232 173.051 101.232C172.283 101.232 171.551 101.4 170.855 101.736C170.183 102.072 169.595 102.528 169.091 103.104C168.587 103.68 168.179 104.364 167.867 105.156C167.579 105.924 167.435 106.752 167.435 107.64ZM192.043 117.36C190.075 117.36 188.587 116.724 187.579 115.452C186.571 114.156 186.067 112.236 186.067 109.692V98.172H190.027V108.9C190.027 112.284 191.227 113.976 193.627 113.976C194.755 113.976 195.823 113.628 196.831 112.932C197.839 112.236 198.619 111.228 199.171 109.908V98.172H203.131V112.32C203.131 112.776 203.203 113.1 203.347 113.292C203.515 113.484 203.803 113.592 204.211 113.616V117C203.803 117.072 203.467 117.12 203.203 117.144C202.939 117.168 202.687 117.18 202.447 117.18C201.727 117.18 201.115 116.988 200.611 116.604C200.107 116.196 199.843 115.68 199.819 115.056L199.747 113.184C198.907 114.552 197.815 115.596 196.471 116.316C195.127 117.012 193.651 117.36 192.043 117.36ZM215.637 117.18C214.365 117.18 213.201 116.928 212.145 116.424C211.089 115.896 210.177 115.188 209.409 114.3C208.665 113.412 208.077 112.392 207.645 111.24C207.237 110.088 207.033 108.876 207.033 107.604C207.033 106.26 207.249 105 207.681 103.824C208.113 102.624 208.713 101.592 209.481 100.728C210.249 99.84 211.161 99.144 212.217 98.64C213.297 98.112 214.485 97.848 215.781 97.848C217.293 97.848 218.613 98.208 219.741 98.928C220.893 99.648 221.841 100.584 222.585 101.736V98.172H226.077V116.46C226.077 117.828 225.825 119.04 225.321 120.096C224.817 121.152 224.109 122.04 223.197 122.76C222.309 123.504 221.253 124.068 220.029 124.452C218.805 124.836 217.485 125.028 216.069 125.028C213.981 125.028 212.241 124.668 210.849 123.948C209.481 123.252 208.329 122.268 207.393 120.996L209.625 118.908C210.345 119.916 211.269 120.684 212.397 121.212C213.549 121.74 214.773 122.004 216.069 122.004C216.885 122.004 217.653 121.896 218.373 121.68C219.117 121.464 219.765 121.128 220.317 120.672C220.869 120.216 221.301 119.64 221.613 118.944C221.949 118.248 222.117 117.42 222.117 116.46V113.58C221.445 114.732 220.521 115.62 219.345 116.244C218.169 116.868 216.933 117.18 215.637 117.18ZM216.933 113.976C217.533 113.976 218.109 113.88 218.661 113.688C219.213 113.472 219.717 113.196 220.173 112.86C220.653 112.5 221.061 112.104 221.397 111.672C221.733 111.216 221.973 110.736 222.117 110.232V105.3C221.877 104.7 221.565 104.16 221.181 103.68C220.797 103.176 220.353 102.744 219.849 102.384C219.369 102.024 218.853 101.748 218.301 101.556C217.749 101.34 217.197 101.232 216.645 101.232C215.781 101.232 215.001 101.424 214.305 101.808C213.633 102.168 213.057 102.66 212.577 103.284C212.097 103.884 211.725 104.568 211.461 105.336C211.197 106.104 211.065 106.896 211.065 107.712C211.065 108.576 211.209 109.392 211.497 110.16C211.809 110.904 212.229 111.564 212.757 112.14C213.285 112.692 213.897 113.136 214.593 113.472C215.313 113.808 216.093 113.976 216.933 113.976ZM247.709 117H243.749V106.452C243.749 104.724 243.437 103.452 242.813 102.636C242.213 101.796 241.337 101.376 240.185 101.376C239.633 101.376 239.081 101.484 238.529 101.7C237.977 101.916 237.449 102.228 236.945 102.636C236.465 103.02 236.033 103.488 235.649 104.04C235.265 104.568 234.977 105.156 234.785 105.804V117H230.825V90.72H234.785V101.952C235.505 100.656 236.477 99.648 237.701 98.928C238.949 98.208 240.305 97.848 241.769 97.848C242.945 97.848 243.905 98.064 244.649 98.496C245.417 98.904 246.029 99.456 246.485 100.152C246.941 100.848 247.253 101.664 247.421 102.6C247.613 103.512 247.709 104.484 247.709 105.516V117ZM260.766 117.36C259.278 117.36 257.934 117.096 256.734 116.568C255.558 116.04 254.55 115.332 253.71 114.444C252.87 113.556 252.222 112.524 251.766 111.348C251.31 110.148 251.082 108.9 251.082 107.604C251.082 106.308 251.31 105.072 251.766 103.896C252.222 102.696 252.87 101.652 253.71 100.764C254.574 99.876 255.594 99.168 256.77 98.64C257.97 98.112 259.302 97.848 260.766 97.848C262.23 97.848 263.55 98.112 264.726 98.64C265.926 99.168 266.946 99.876 267.786 100.764C268.65 101.652 269.31 102.696 269.766 103.896C270.222 105.072 270.45 106.308 270.45 107.604C270.45 108.9 270.222 110.148 269.766 111.348C269.31 112.524 268.65 113.556 267.786 114.444C266.946 115.332 265.926 116.04 264.726 116.568C263.55 117.096 262.23 117.36 260.766 117.36ZM255.15 107.64C255.15 108.552 255.294 109.392 255.582 110.16C255.87 110.928 256.266 111.6 256.77 112.176C257.274 112.728 257.862 113.172 258.534 113.508C259.23 113.82 259.974 113.976 260.766 113.976C261.558 113.976 262.29 113.82 262.962 113.508C263.658 113.172 264.258 112.716 264.762 112.14C265.266 111.564 265.662 110.892 265.95 110.124C266.238 109.356 266.382 108.516 266.382 107.604C266.382 106.716 266.238 105.888 265.95 105.12C265.662 104.328 265.266 103.644 264.762 103.068C264.258 102.492 263.658 102.048 262.962 101.736C262.29 101.4 261.558 101.232 260.766 101.232C259.998 101.232 259.266 101.4 258.57 101.736C257.898 102.072 257.31 102.528 256.806 103.104C256.302 103.68 255.894 104.364 255.582 105.156C255.294 105.924 255.15 106.752 255.15 107.64ZM279.758 117.36C277.79 117.36 276.302 116.724 275.294 115.452C274.286 114.156 273.782 112.236 273.782 109.692V98.172H277.742V108.9C277.742 112.284 278.942 113.976 281.342 113.976C282.47 113.976 283.538 113.628 284.546 112.932C285.554 112.236 286.334 111.228 286.886 109.908V98.172H290.846V112.32C290.846 112.776 290.918 113.1 291.062 113.292C291.23 113.484 291.518 113.592 291.926 113.616V117C291.518 117.072 291.182 117.12 290.918 117.144C290.654 117.168 290.402 117.18 290.162 117.18C289.442 117.18 288.83 116.988 288.326 116.604C287.822 116.196 287.558 115.68 287.534 115.056L287.462 113.184C286.622 114.552 285.53 115.596 284.186 116.316C282.842 117.012 281.366 117.36 279.758 117.36ZM306.375 116.028C305.871 116.268 305.175 116.544 304.287 116.856C303.399 117.144 302.451 117.288 301.443 117.288C300.819 117.288 300.231 117.204 299.679 117.036C299.127 116.868 298.635 116.616 298.203 116.28C297.795 115.944 297.471 115.512 297.231 114.984C296.991 114.432 296.871 113.772 296.871 113.004V101.232H294.387V98.172H296.871V91.98H300.831V98.172H304.935V101.232H300.831V111.744C300.879 112.416 301.083 112.908 301.443 113.22C301.827 113.508 302.295 113.652 302.847 113.652C303.399 113.652 303.927 113.556 304.431 113.364C304.935 113.172 305.307 113.016 305.547 112.896L306.375 116.028ZM127.852 158.028C127.348 158.268 126.652 158.544 125.764 158.856C124.876 159.144 123.928 159.288 122.92 159.288C122.296 159.288 121.708 159.204 121.156 159.036C120.604 158.868 120.112 158.616 119.68 158.28C119.272 157.944 118.948 157.512 118.708 156.984C118.468 156.432 118.348 155.772 118.348 155.004V143.232H115.864V140.172H118.348V133.98H122.308V140.172H126.412V143.232H122.308V153.744C122.356 154.416 122.56 154.908 122.92 155.22C123.304 155.508 123.772 155.652 124.324 155.652C124.876 155.652 125.404 155.556 125.908 155.364C126.412 155.172 126.784 155.016 127.024 154.896L127.852 158.028ZM147.479 159H143.519V148.452C143.519 146.724 143.207 145.452 142.583 144.636C141.983 143.796 141.107 143.376 139.955 143.376C139.403 143.376 138.851 143.484 138.299 143.7C137.747 143.916 137.219 144.228 136.715 144.636C136.235 145.02 135.803 145.488 135.419 146.04C135.035 146.568 134.747 147.156 134.555 147.804V159H130.595V132.72H134.555V143.952C135.275 142.656 136.247 141.648 137.471 140.928C138.719 140.208 140.075 139.848 141.539 139.848C142.715 139.848 143.675 140.064 144.419 140.496C145.187 140.904 145.799 141.456 146.255 142.152C146.711 142.848 147.023 143.664 147.191 144.6C147.383 145.512 147.479 146.484 147.479 147.516V159ZM160.607 159.36C159.143 159.36 157.811 159.108 156.611 158.604C155.411 158.076 154.379 157.368 153.515 156.48C152.675 155.592 152.015 154.56 151.535 153.384C151.079 152.208 150.851 150.96 150.851 149.64C150.851 148.32 151.079 147.072 151.535 145.896C152.015 144.696 152.675 143.652 153.515 142.764C154.379 141.852 155.411 141.144 156.611 140.64C157.811 140.112 159.155 139.848 160.643 139.848C162.107 139.848 163.427 140.112 164.603 140.64C165.803 141.168 166.823 141.876 167.663 142.764C168.503 143.628 169.139 144.648 169.571 145.824C170.027 146.976 170.255 148.188 170.255 149.46C170.255 149.748 170.243 150.024 170.219 150.288C170.195 150.528 170.171 150.732 170.147 150.9H155.063C155.135 151.74 155.327 152.496 155.639 153.168C155.975 153.84 156.395 154.428 156.899 154.932C157.427 155.412 158.015 155.784 158.663 156.048C159.335 156.312 160.031 156.444 160.751 156.444C161.279 156.444 161.795 156.384 162.299 156.264C162.827 156.12 163.307 155.928 163.739 155.688C164.171 155.424 164.555 155.112 164.891 154.752C165.227 154.392 165.491 153.996 165.683 153.564L169.067 154.536C168.419 155.952 167.339 157.116 165.827 158.028C164.339 158.916 162.599 159.36 160.607 159.36ZM166.331 148.164C166.259 147.372 166.055 146.64 165.719 145.968C165.407 145.296 164.999 144.732 164.495 144.276C163.991 143.796 163.403 143.424 162.731 143.16C162.059 142.896 161.351 142.764 160.607 142.764C159.863 142.764 159.155 142.896 158.483 143.16C157.835 143.424 157.259 143.796 156.755 144.276C156.251 144.732 155.843 145.296 155.531 145.968C155.219 146.64 155.027 147.372 154.955 148.164H166.331ZM190.048 159.36C188.776 159.36 187.6 159.108 186.52 158.604C185.44 158.076 184.504 157.368 183.712 156.48C182.92 155.592 182.296 154.56 181.84 153.384C181.408 152.184 181.192 150.9 181.192 149.532C181.192 148.212 181.396 146.976 181.804 145.824C182.236 144.648 182.824 143.616 183.568 142.728C184.336 141.84 185.224 141.144 186.232 140.64C187.264 140.112 188.392 139.848 189.616 139.848C191.128 139.848 192.46 140.22 193.612 140.964C194.764 141.684 195.664 142.608 196.312 143.736V132.72H200.272V154.32C200.272 154.776 200.344 155.1 200.488 155.292C200.656 155.484 200.944 155.592 201.352 155.616V159C200.944 159.072 200.608 159.12 200.344 159.144C200.104 159.168 199.9 159.18 199.732 159.18C198.94 159.18 198.292 158.976 197.788 158.568C197.284 158.16 197.008 157.632 196.96 156.984L196.888 155.58C196.192 156.756 195.244 157.68 194.044 158.352C192.844 159.024 191.512 159.36 190.048 159.36ZM191.02 155.976C191.596 155.976 192.172 155.88 192.748 155.688C193.324 155.496 193.852 155.232 194.332 154.896C194.812 154.56 195.22 154.164 195.556 153.708C195.916 153.252 196.168 152.76 196.312 152.232V147.3C196.096 146.7 195.784 146.148 195.376 145.644C194.992 145.14 194.548 144.708 194.044 144.348C193.54 143.988 193 143.712 192.424 143.52C191.872 143.328 191.308 143.232 190.732 143.232C189.94 143.232 189.208 143.412 188.536 143.772C187.888 144.132 187.324 144.612 186.844 145.212C186.364 145.812 185.98 146.496 185.692 147.264C185.428 148.032 185.296 148.824 185.296 149.64C185.296 150.504 185.44 151.32 185.728 152.088C186.04 152.856 186.46 153.528 186.988 154.104C187.516 154.68 188.116 155.136 188.788 155.472C189.484 155.808 190.228 155.976 191.02 155.976ZM210.306 159.36C209.394 159.36 208.542 159.216 207.75 158.928C206.982 158.616 206.31 158.196 205.734 157.668C205.182 157.14 204.738 156.516 204.402 155.796C204.09 155.076 203.934 154.296 203.934 153.456C203.934 152.568 204.126 151.764 204.51 151.044C204.894 150.324 205.434 149.7 206.13 149.172C206.85 148.644 207.69 148.236 208.65 147.948C209.634 147.66 210.714 147.516 211.89 147.516C212.778 147.516 213.654 147.6 214.518 147.768C215.382 147.912 216.162 148.116 216.858 148.38V147.084C216.858 145.692 216.462 144.612 215.67 143.844C214.878 143.052 213.738 142.656 212.25 142.656C211.242 142.656 210.246 142.848 209.262 143.232C208.302 143.592 207.306 144.12 206.274 144.816L205.05 142.296C207.474 140.664 209.994 139.848 212.61 139.848C215.202 139.848 217.218 140.508 218.658 141.828C220.098 143.148 220.818 145.044 220.818 147.516V154.32C220.818 155.16 221.166 155.592 221.862 155.616V159C221.478 159.072 221.142 159.12 220.854 159.144C220.59 159.168 220.326 159.18 220.062 159.18C219.294 159.18 218.694 158.988 218.262 158.604C217.854 158.22 217.602 157.728 217.506 157.128L217.398 155.94C216.558 157.044 215.514 157.896 214.266 158.496C213.042 159.072 211.722 159.36 210.306 159.36ZM211.386 156.444C212.346 156.444 213.246 156.276 214.086 155.94C214.95 155.58 215.622 155.088 216.102 154.464C216.606 154.032 216.858 153.576 216.858 153.096V150.612C216.186 150.348 215.466 150.144 214.698 150C213.954 149.856 213.222 149.784 212.502 149.784C211.086 149.784 209.922 150.096 209.01 150.72C208.122 151.32 207.678 152.124 207.678 153.132C207.678 154.068 208.026 154.86 208.722 155.508C209.418 156.132 210.306 156.444 211.386 156.444ZM225.813 163.428C226.173 163.5 226.521 163.56 226.857 163.608C227.217 163.656 227.505 163.68 227.721 163.68C228.033 163.68 228.297 163.608 228.513 163.464C228.753 163.344 228.993 163.116 229.233 162.78C229.473 162.444 229.713 161.964 229.953 161.34C230.217 160.74 230.517 159.96 230.853 159L223.113 140.172H227.181L233.013 155.508L238.197 140.172H241.941L233.409 163.356C233.025 164.436 232.353 165.336 231.393 166.056C230.457 166.8 229.245 167.172 227.757 167.172C227.469 167.172 227.169 167.148 226.857 167.1C226.545 167.076 226.197 167.004 225.813 166.884V163.428Z" fill="url(#paint0_linear_10205_8006)"/>
<path d="M63.3607 220.86H65.4607L67.2207 225.68L69.0007 220.86H71.1007L68.6607 227.18L70.7807 232.4L75.2007 220.8H77.6607L71.8407 235H69.9007L67.2407 228.64L64.5607 235H62.6007L56.8007 220.8H59.2407L63.6807 232.4L65.8007 227.18L63.3607 220.86ZM82.4096 235.2C81.5963 235.2 80.8563 235.06 80.1896 234.78C79.5363 234.487 78.9696 234.093 78.4896 233.6C78.0096 233.093 77.6363 232.52 77.3696 231.88C77.1163 231.227 76.9896 230.533 76.9896 229.8C76.9896 228.813 77.2163 227.913 77.6696 227.1C78.1229 226.273 78.7563 225.613 79.5696 225.12C80.3829 224.613 81.3363 224.36 82.4296 224.36C83.5229 224.36 84.4629 224.613 85.2496 225.12C86.0496 225.613 86.6696 226.267 87.1096 227.08C87.5496 227.893 87.7696 228.767 87.7696 229.7C87.7696 229.86 87.7629 230.013 87.7496 230.16C87.7363 230.293 87.7229 230.407 87.7096 230.5H79.3296C79.3696 231.113 79.5363 231.653 79.8296 232.12C80.1363 232.573 80.5229 232.933 80.9896 233.2C81.4563 233.453 81.9563 233.58 82.4896 233.58C83.0763 233.58 83.6296 233.433 84.1496 233.14C84.6829 232.847 85.0429 232.46 85.2296 231.98L87.1096 232.52C86.8829 233.027 86.5363 233.487 86.0696 233.9C85.6163 234.3 85.0763 234.62 84.4496 234.86C83.8229 235.087 83.1429 235.2 82.4096 235.2ZM79.2696 229.04H85.5896C85.5496 228.44 85.3763 227.913 85.0696 227.46C84.7763 226.993 84.3963 226.633 83.9296 226.38C83.4763 226.113 82.9696 225.98 82.4096 225.98C81.8629 225.98 81.3563 226.113 80.8896 226.38C80.4363 226.633 80.0629 226.993 79.7696 227.46C79.4763 227.913 79.3096 228.44 79.2696 229.04ZM88.8041 231.94C88.8041 231.273 88.9908 230.693 89.3641 230.2C89.7508 229.693 90.2775 229.307 90.9441 229.04C91.6108 228.76 92.3841 228.62 93.2641 228.62C93.7308 228.62 94.2041 228.653 94.6841 228.72C95.1775 228.787 95.6108 228.893 95.9841 229.04V228.38C95.9841 227.647 95.7641 227.073 95.3241 226.66C94.8841 226.247 94.2508 226.04 93.4241 226.04C92.8375 226.04 92.2841 226.147 91.7641 226.36C91.2441 226.56 90.6908 226.847 90.1041 227.22L89.3641 225.74C90.0575 225.273 90.7508 224.927 91.4441 224.7C92.1508 224.473 92.8908 224.36 93.6641 224.36C95.0641 224.36 96.1641 224.733 96.9641 225.48C97.7775 226.213 98.1841 227.26 98.1841 228.62V232.52C98.1841 232.773 98.2241 232.953 98.3041 233.06C98.3975 233.167 98.5508 233.227 98.7641 233.24V235C98.5641 235.04 98.3841 235.067 98.2241 235.08C98.0641 235.093 97.9308 235.1 97.8241 235.1C97.3575 235.1 97.0041 234.987 96.7641 234.76C96.5241 234.533 96.3841 234.267 96.3441 233.96L96.2841 233.36C95.8308 233.947 95.2508 234.4 94.5441 234.72C93.8375 235.04 93.1241 235.2 92.4041 235.2C91.7108 235.2 91.0908 235.06 90.5441 234.78C89.9975 234.487 89.5708 234.093 89.2641 233.6C88.9575 233.107 88.8041 232.553 88.8041 231.94ZM95.4641 232.58C95.6241 232.407 95.7508 232.233 95.8441 232.06C95.9375 231.887 95.9841 231.733 95.9841 231.6V230.4C95.6108 230.253 95.2175 230.147 94.8041 230.08C94.3908 230 93.9841 229.96 93.5841 229.96C92.7841 229.96 92.1308 230.12 91.6241 230.44C91.1308 230.76 90.8841 231.2 90.8841 231.76C90.8841 232.067 90.9641 232.36 91.1241 232.64C91.2975 232.92 91.5375 233.147 91.8441 233.32C92.1641 233.493 92.5575 233.58 93.0241 233.58C93.5041 233.58 93.9641 233.487 94.4041 233.3C94.8441 233.113 95.1975 232.873 95.4641 232.58ZM106.733 226.44C105.88 226.453 105.12 226.647 104.453 227.02C103.8 227.393 103.333 227.92 103.053 228.6V235H100.853V224.54H102.893V226.88C103.253 226.16 103.727 225.587 104.313 225.16C104.9 224.72 105.52 224.48 106.173 224.44C106.307 224.44 106.413 224.44 106.493 224.44C106.587 224.44 106.667 224.447 106.733 224.46V226.44ZM117.526 235.2C116.699 235.2 115.959 235.06 115.306 234.78C114.653 234.487 114.086 234.087 113.606 233.58C113.139 233.073 112.779 232.5 112.526 231.86C112.273 231.207 112.146 230.513 112.146 229.78C112.146 229.047 112.273 228.353 112.526 227.7C112.779 227.047 113.139 226.473 113.606 225.98C114.086 225.473 114.653 225.08 115.306 224.8C115.973 224.507 116.713 224.36 117.526 224.36C118.339 224.36 119.073 224.507 119.726 224.8C120.393 225.08 120.959 225.473 121.426 225.98C121.906 226.473 122.273 227.047 122.526 227.7C122.779 228.353 122.906 229.047 122.906 229.78C122.906 230.513 122.779 231.207 122.526 231.86C122.273 232.5 121.906 233.073 121.426 233.58C120.959 234.087 120.393 234.487 119.726 234.78C119.073 235.06 118.339 235.2 117.526 235.2ZM114.406 229.8C114.406 230.467 114.546 231.067 114.826 231.6C115.106 232.133 115.479 232.553 115.946 232.86C116.413 233.167 116.939 233.32 117.526 233.32C118.099 233.32 118.619 233.167 119.086 232.86C119.566 232.54 119.946 232.113 120.226 231.58C120.506 231.033 120.646 230.433 120.646 229.78C120.646 229.113 120.506 228.513 120.226 227.98C119.946 227.447 119.566 227.027 119.086 226.72C118.619 226.4 118.099 226.24 117.526 226.24C116.939 226.24 116.413 226.4 115.946 226.72C115.479 227.04 115.106 227.467 114.826 228C114.546 228.52 114.406 229.12 114.406 229.8ZM130.737 226.44C129.884 226.453 129.124 226.647 128.457 227.02C127.804 227.393 127.337 227.92 127.057 228.6V235H124.857V224.54H126.897V226.88C127.257 226.16 127.73 225.587 128.317 225.16C128.904 224.72 129.524 224.48 130.177 224.44C130.31 224.44 130.417 224.44 130.497 224.44C130.59 224.44 130.67 224.447 130.737 224.46V226.44ZM141.57 235.2C140.756 235.2 140.016 235.06 139.35 234.78C138.696 234.487 138.13 234.087 137.65 233.58C137.17 233.073 136.796 232.493 136.53 231.84C136.276 231.187 136.15 230.493 136.15 229.76C136.15 228.773 136.37 227.873 136.81 227.06C137.263 226.247 137.89 225.593 138.69 225.1C139.503 224.607 140.463 224.36 141.57 224.36C142.636 224.36 143.563 224.6 144.35 225.08C145.15 225.547 145.736 226.173 146.11 226.96L143.97 227.64C143.73 227.2 143.39 226.86 142.95 226.62C142.523 226.367 142.05 226.24 141.53 226.24C140.943 226.24 140.41 226.393 139.93 226.7C139.463 226.993 139.09 227.407 138.81 227.94C138.543 228.46 138.41 229.067 138.41 229.76C138.41 230.427 138.55 231.033 138.83 231.58C139.11 232.113 139.483 232.54 139.95 232.86C140.43 233.167 140.963 233.32 141.55 233.32C141.91 233.32 142.256 233.26 142.59 233.14C142.936 233.007 143.236 232.833 143.49 232.62C143.743 232.393 143.923 232.147 144.03 231.88L146.19 232.52C145.963 233.04 145.623 233.5 145.17 233.9C144.73 234.3 144.203 234.62 143.59 234.86C142.99 235.087 142.316 235.2 141.57 235.2ZM147.242 231.94C147.242 231.273 147.428 230.693 147.802 230.2C148.188 229.693 148.715 229.307 149.382 229.04C150.048 228.76 150.822 228.62 151.702 228.62C152.168 228.62 152.642 228.653 153.122 228.72C153.615 228.787 154.048 228.893 154.422 229.04V228.38C154.422 227.647 154.202 227.073 153.762 226.66C153.322 226.247 152.688 226.04 151.862 226.04C151.275 226.04 150.722 226.147 150.202 226.36C149.682 226.56 149.128 226.847 148.542 227.22L147.802 225.74C148.495 225.273 149.188 224.927 149.882 224.7C150.588 224.473 151.328 224.36 152.102 224.36C153.502 224.36 154.602 224.733 155.402 225.48C156.215 226.213 156.622 227.26 156.622 228.62V232.52C156.622 232.773 156.662 232.953 156.742 233.06C156.835 233.167 156.988 233.227 157.202 233.24V235C157.002 235.04 156.822 235.067 156.662 235.08C156.502 235.093 156.368 235.1 156.262 235.1C155.795 235.1 155.442 234.987 155.202 234.76C154.962 234.533 154.822 234.267 154.782 233.96L154.722 233.36C154.268 233.947 153.688 234.4 152.982 234.72C152.275 235.04 151.562 235.2 150.842 235.2C150.148 235.2 149.528 235.06 148.982 234.78C148.435 234.487 148.008 234.093 147.702 233.6C147.395 233.107 147.242 232.553 147.242 231.94ZM153.902 232.58C154.062 232.407 154.188 232.233 154.282 232.06C154.375 231.887 154.422 231.733 154.422 231.6V230.4C154.048 230.253 153.655 230.147 153.242 230.08C152.828 230 152.422 229.96 152.022 229.96C151.222 229.96 150.568 230.12 150.062 230.44C149.568 230.76 149.322 231.2 149.322 231.76C149.322 232.067 149.402 232.36 149.562 232.64C149.735 232.92 149.975 233.147 150.282 233.32C150.602 233.493 150.995 233.58 151.462 233.58C151.942 233.58 152.402 233.487 152.842 233.3C153.282 233.113 153.635 232.873 153.902 232.58ZM165.171 226.44C164.317 226.453 163.557 226.647 162.891 227.02C162.237 227.393 161.771 227.92 161.491 228.6V235H159.291V224.54H161.331V226.88C161.691 226.16 162.164 225.587 162.751 225.16C163.337 224.72 163.957 224.48 164.611 224.44C164.744 224.44 164.851 224.44 164.931 224.44C165.024 224.44 165.104 224.447 165.171 224.46V226.44ZM172.651 226.44C171.798 226.453 171.038 226.647 170.371 227.02C169.718 227.393 169.251 227.92 168.971 228.6V235H166.771V224.54H168.811V226.88C169.171 226.16 169.645 225.587 170.231 225.16C170.818 224.72 171.438 224.48 172.091 224.44C172.225 224.44 172.331 224.44 172.411 224.44C172.505 224.44 172.585 224.447 172.651 224.46V226.44ZM174.612 237.46C174.812 237.487 175.005 237.513 175.192 237.54C175.392 237.58 175.552 237.6 175.672 237.6C175.898 237.6 176.092 237.527 176.252 237.38C176.425 237.247 176.598 236.993 176.772 236.62C176.945 236.247 177.158 235.707 177.412 235L173.112 224.54H175.412L178.612 232.76L181.452 224.54H183.572L178.832 237.42C178.685 237.807 178.472 238.16 178.192 238.48C177.912 238.813 177.565 239.073 177.152 239.26C176.738 239.447 176.252 239.54 175.692 239.54C175.532 239.54 175.365 239.527 175.192 239.5C175.018 239.473 174.825 239.433 174.612 239.38V237.46ZM189.416 237.46C189.616 237.487 189.81 237.513 189.996 237.54C190.196 237.58 190.356 237.6 190.476 237.6C190.703 237.6 190.896 237.527 191.056 237.38C191.23 237.247 191.403 236.993 191.576 236.62C191.75 236.247 191.963 235.707 192.216 235L187.916 224.54H190.216L193.416 232.76L196.256 224.54H198.376L193.636 237.42C193.49 237.807 193.276 238.16 192.996 238.48C192.716 238.813 192.37 239.073 191.956 239.26C191.543 239.447 191.056 239.54 190.496 239.54C190.336 239.54 190.17 239.527 189.996 239.5C189.823 239.473 189.63 239.433 189.416 239.38V237.46ZM204.342 235.2C203.516 235.2 202.776 235.06 202.122 234.78C201.469 234.487 200.902 234.087 200.422 233.58C199.956 233.073 199.596 232.5 199.342 231.86C199.089 231.207 198.962 230.513 198.962 229.78C198.962 229.047 199.089 228.353 199.342 227.7C199.596 227.047 199.956 226.473 200.422 225.98C200.902 225.473 201.469 225.08 202.122 224.8C202.789 224.507 203.529 224.36 204.342 224.36C205.156 224.36 205.889 224.507 206.542 224.8C207.209 225.08 207.776 225.473 208.242 225.98C208.722 226.473 209.089 227.047 209.342 227.7C209.596 228.353 209.722 229.047 209.722 229.78C209.722 230.513 209.596 231.207 209.342 231.86C209.089 232.5 208.722 233.073 208.242 233.58C207.776 234.087 207.209 234.487 206.542 234.78C205.889 235.06 205.156 235.2 204.342 235.2ZM201.222 229.8C201.222 230.467 201.362 231.067 201.642 231.6C201.922 232.133 202.296 232.553 202.762 232.86C203.229 233.167 203.756 233.32 204.342 233.32C204.916 233.32 205.436 233.167 205.902 232.86C206.382 232.54 206.762 232.113 207.042 231.58C207.322 231.033 207.462 230.433 207.462 229.78C207.462 229.113 207.322 228.513 207.042 227.98C206.762 227.447 206.382 227.027 205.902 226.72C205.436 226.4 204.916 226.24 204.342 226.24C203.756 226.24 203.229 226.4 202.762 226.72C202.296 227.04 201.922 227.467 201.642 228C201.362 228.52 201.222 229.12 201.222 229.8ZM211.574 230.94V224.54H213.774V230.5C213.774 231.433 213.94 232.14 214.274 232.62C214.62 233.087 215.12 233.32 215.774 233.32C216.187 233.32 216.587 233.233 216.974 233.06C217.374 232.887 217.734 232.633 218.054 232.3C218.387 231.953 218.654 231.54 218.854 231.06V224.54H221.054V232.52C221.054 232.773 221.1 232.953 221.194 233.06C221.287 233.167 221.44 233.227 221.654 233.24V235C221.427 235.04 221.24 235.067 221.094 235.08C220.947 235.093 220.807 235.1 220.674 235.1C220.274 235.1 219.94 234.993 219.674 234.78C219.407 234.553 219.254 234.267 219.214 233.92L219.174 232.88C218.707 233.64 218.1 234.22 217.354 234.62C216.607 235.007 215.787 235.2 214.894 235.2C213.8 235.2 212.974 234.84 212.414 234.12C211.854 233.4 211.574 232.34 211.574 230.94ZM229.741 226.44C228.888 226.453 228.128 226.647 227.461 227.02C226.808 227.393 226.341 227.92 226.061 228.6V235H223.861V224.54H225.901V226.88C226.261 226.16 226.734 225.587 227.321 225.16C227.908 224.72 228.528 224.48 229.181 224.44C229.314 224.44 229.421 224.44 229.501 224.44C229.594 224.44 229.674 224.447 229.741 224.46V226.44ZM235.834 235V224.54H238.034V235H235.834ZM235.834 222.82V220.4H238.034V222.82H235.834ZM246.497 234.46C246.311 234.553 246.077 234.653 245.797 234.76C245.517 234.867 245.197 234.96 244.837 235.04C244.491 235.12 244.131 235.16 243.757 235.16C243.304 235.16 242.884 235.08 242.497 234.92C242.111 234.76 241.797 234.507 241.557 234.16C241.331 233.8 241.217 233.34 241.217 232.78V226.24H239.837V224.54H241.217V221.1H243.417V224.54H245.697V226.24H243.417V232.08C243.444 232.44 243.557 232.707 243.757 232.88C243.971 233.053 244.231 233.14 244.537 233.14C244.844 233.14 245.137 233.087 245.417 232.98C245.697 232.873 245.904 232.787 246.037 232.72L246.497 234.46ZM252.624 235.2C251.811 235.2 251.071 235.06 250.404 234.78C249.751 234.487 249.184 234.093 248.704 233.6C248.224 233.093 247.851 232.52 247.584 231.88C247.331 231.227 247.204 230.533 247.204 229.8C247.204 228.813 247.431 227.913 247.884 227.1C248.338 226.273 248.971 225.613 249.784 225.12C250.598 224.613 251.551 224.36 252.644 224.36C253.738 224.36 254.678 224.613 255.464 225.12C256.264 225.613 256.884 226.267 257.324 227.08C257.764 227.893 257.984 228.767 257.984 229.7C257.984 229.86 257.978 230.013 257.964 230.16C257.951 230.293 257.938 230.407 257.924 230.5H249.544C249.584 231.113 249.751 231.653 250.044 232.12C250.351 232.573 250.738 232.933 251.204 233.2C251.671 233.453 252.171 233.58 252.704 233.58C253.291 233.58 253.844 233.433 254.364 233.14C254.898 232.847 255.258 232.46 255.444 231.98L257.324 232.52C257.098 233.027 256.751 233.487 256.284 233.9C255.831 234.3 255.291 234.62 254.664 234.86C254.038 235.087 253.358 235.2 252.624 235.2ZM249.484 229.04H255.804C255.764 228.44 255.591 227.913 255.284 227.46C254.991 226.993 254.611 226.633 254.144 226.38C253.691 226.113 253.184 225.98 252.624 225.98C252.078 225.98 251.571 226.113 251.104 226.38C250.651 226.633 250.278 226.993 249.984 227.46C249.691 227.913 249.524 228.44 249.484 229.04ZM275.779 235H273.579V229.14C273.579 228.167 273.419 227.453 273.099 227C272.779 226.547 272.312 226.32 271.699 226.32C271.086 226.32 270.512 226.553 269.979 227.02C269.459 227.473 269.092 228.067 268.879 228.8V235H266.679V229.14C266.679 228.167 266.519 227.453 266.199 227C265.879 226.547 265.419 226.32 264.819 226.32C264.206 226.32 263.632 226.547 263.099 227C262.579 227.453 262.206 228.047 261.979 228.78V235H259.779V224.54H261.779V226.64C262.192 225.907 262.732 225.347 263.399 224.96C264.079 224.56 264.852 224.36 265.719 224.36C266.586 224.36 267.266 224.587 267.759 225.04C268.266 225.493 268.579 226.06 268.699 226.74C269.152 225.967 269.706 225.38 270.359 224.98C271.026 224.567 271.786 224.36 272.639 224.36C273.252 224.36 273.766 224.473 274.179 224.7C274.592 224.927 274.912 225.24 275.139 225.64C275.366 226.027 275.526 226.48 275.619 227C275.726 227.507 275.779 228.047 275.779 228.62V235ZM282.496 231.94C282.496 231.273 282.682 230.693 283.056 230.2C283.442 229.693 283.969 229.307 284.636 229.04C285.302 228.76 286.076 228.62 286.956 228.62C287.422 228.62 287.896 228.653 288.376 228.72C288.869 228.787 289.302 228.893 289.676 229.04V228.38C289.676 227.647 289.456 227.073 289.016 226.66C288.576 226.247 287.942 226.04 287.116 226.04C286.529 226.04 285.976 226.147 285.456 226.36C284.936 226.56 284.382 226.847 283.796 227.22L283.056 225.74C283.749 225.273 284.442 224.927 285.136 224.7C285.842 224.473 286.582 224.36 287.356 224.36C288.756 224.36 289.856 224.733 290.656 225.48C291.469 226.213 291.876 227.26 291.876 228.62V232.52C291.876 232.773 291.916 232.953 291.996 233.06C292.089 233.167 292.242 233.227 292.456 233.24V235C292.256 235.04 292.076 235.067 291.916 235.08C291.756 235.093 291.622 235.1 291.516 235.1C291.049 235.1 290.696 234.987 290.456 234.76C290.216 234.533 290.076 234.267 290.036 233.96L289.976 233.36C289.522 233.947 288.942 234.4 288.236 234.72C287.529 235.04 286.816 235.2 286.096 235.2C285.402 235.2 284.782 235.06 284.236 234.78C283.689 234.487 283.262 234.093 282.956 233.6C282.649 233.107 282.496 232.553 282.496 231.94ZM289.156 232.58C289.316 232.407 289.442 232.233 289.536 232.06C289.629 231.887 289.676 231.733 289.676 231.6V230.4C289.302 230.253 288.909 230.147 288.496 230.08C288.082 230 287.676 229.96 287.276 229.96C286.476 229.96 285.822 230.12 285.316 230.44C284.822 230.76 284.576 231.2 284.576 231.76C284.576 232.067 284.656 232.36 284.816 232.64C284.989 232.92 285.229 233.147 285.536 233.32C285.856 233.493 286.249 233.58 286.716 233.58C287.196 233.58 287.656 233.487 288.096 233.3C288.536 233.113 288.889 232.873 289.156 232.58ZM298.265 235.2C297.385 235.2 296.551 235.06 295.765 234.78C294.978 234.487 294.305 234.053 293.745 233.48L294.565 232C295.165 232.533 295.765 232.92 296.365 233.16C296.978 233.4 297.585 233.52 298.185 233.52C298.798 233.52 299.298 233.407 299.685 233.18C300.071 232.94 300.265 232.593 300.265 232.14C300.265 231.807 300.165 231.56 299.965 231.4C299.765 231.24 299.471 231.1 299.085 230.98C298.711 230.86 298.258 230.727 297.725 230.58C296.978 230.353 296.351 230.12 295.845 229.88C295.338 229.627 294.958 229.32 294.705 228.96C294.451 228.6 294.325 228.14 294.325 227.58C294.325 226.9 294.498 226.32 294.845 225.84C295.191 225.36 295.671 224.993 296.285 224.74C296.911 224.487 297.631 224.36 298.445 224.36C299.205 224.36 299.905 224.48 300.545 224.72C301.198 224.947 301.771 225.307 302.265 225.8L301.325 227.26C300.858 226.833 300.378 226.52 299.885 226.32C299.405 226.12 298.885 226.02 298.325 226.02C298.005 226.02 297.698 226.06 297.405 226.14C297.111 226.207 296.865 226.34 296.665 226.54C296.478 226.727 296.385 226.993 296.385 227.34C296.385 227.62 296.465 227.847 296.625 228.02C296.785 228.193 297.025 228.34 297.345 228.46C297.665 228.58 298.058 228.713 298.525 228.86C299.338 229.1 300.031 229.34 300.605 229.58C301.178 229.807 301.618 230.107 301.925 230.48C302.245 230.84 302.405 231.34 302.405 231.98C302.405 232.993 302.025 233.787 301.265 234.36C300.518 234.92 299.518 235.2 298.265 235.2ZM308.55 231.94C308.55 231.273 308.737 230.693 309.11 230.2C309.497 229.693 310.024 229.307 310.69 229.04C311.357 228.76 312.13 228.62 313.01 228.62C313.477 228.62 313.95 228.653 314.43 228.72C314.924 228.787 315.357 228.893 315.73 229.04V228.38C315.73 227.647 315.51 227.073 315.07 226.66C314.63 226.247 313.997 226.04 313.17 226.04C312.584 226.04 312.03 226.147 311.51 226.36C310.99 226.56 310.437 226.847 309.85 227.22L309.11 225.74C309.804 225.273 310.497 224.927 311.19 224.7C311.897 224.473 312.637 224.36 313.41 224.36C314.81 224.36 315.91 224.733 316.71 225.48C317.524 226.213 317.93 227.26 317.93 228.62V232.52C317.93 232.773 317.97 232.953 318.05 233.06C318.144 233.167 318.297 233.227 318.51 233.24V235C318.31 235.04 318.13 235.067 317.97 235.08C317.81 235.093 317.677 235.1 317.57 235.1C317.104 235.1 316.75 234.987 316.51 234.76C316.27 234.533 316.13 234.267 316.09 233.96L316.03 233.36C315.577 233.947 314.997 234.4 314.29 234.72C313.584 235.04 312.87 235.2 312.15 235.2C311.457 235.2 310.837 235.06 310.29 234.78C309.744 234.487 309.317 234.093 309.01 233.6C308.704 233.107 308.55 232.553 308.55 231.94ZM315.21 232.58C315.37 232.407 315.497 232.233 315.59 232.06C315.684 231.887 315.73 231.733 315.73 231.6V230.4C315.357 230.253 314.964 230.147 314.55 230.08C314.137 230 313.73 229.96 313.33 229.96C312.53 229.96 311.877 230.12 311.37 230.44C310.877 230.76 310.63 231.2 310.63 231.76C310.63 232.067 310.71 232.36 310.87 232.64C311.044 232.92 311.284 233.147 311.59 233.32C311.91 233.493 312.304 233.58 312.77 233.58C313.25 233.58 313.71 233.487 314.15 233.3C314.59 233.113 314.944 232.873 315.21 232.58ZM72.866 249.44C72.0127 249.453 71.2527 249.647 70.586 250.02C69.9327 250.393 69.466 250.92 69.186 251.6V258H66.986V247.54H69.026V249.88C69.386 249.16 69.8593 248.587 70.446 248.16C71.0327 247.72 71.6527 247.48 72.306 247.44C72.4393 247.44 72.546 247.44 72.626 247.44C72.7193 247.44 72.7993 247.447 72.866 247.46V249.44ZM79.0112 258.2C78.1978 258.2 77.4578 258.06 76.7912 257.78C76.1378 257.487 75.5712 257.093 75.0912 256.6C74.6112 256.093 74.2378 255.52 73.9712 254.88C73.7178 254.227 73.5912 253.533 73.5912 252.8C73.5912 251.813 73.8178 250.913 74.2712 250.1C74.7245 249.273 75.3578 248.613 76.1712 248.12C76.9845 247.613 77.9378 247.36 79.0312 247.36C80.1245 247.36 81.0645 247.613 81.8512 248.12C82.6512 248.613 83.2712 249.267 83.7112 250.08C84.1512 250.893 84.3712 251.767 84.3712 252.7C84.3712 252.86 84.3645 253.013 84.3512 253.16C84.3378 253.293 84.3245 253.407 84.3112 253.5H75.9312C75.9712 254.113 76.1378 254.653 76.4312 255.12C76.7378 255.573 77.1245 255.933 77.5912 256.2C78.0578 256.453 78.5578 256.58 79.0912 256.58C79.6778 256.58 80.2312 256.433 80.7512 256.14C81.2845 255.847 81.6445 255.46 81.8312 254.98L83.7112 255.52C83.4845 256.027 83.1378 256.487 82.6712 256.9C82.2178 257.3 81.6778 257.62 81.0512 257.86C80.4245 258.087 79.7445 258.2 79.0112 258.2ZM75.8712 252.04H82.1912C82.1512 251.44 81.9778 250.913 81.6712 250.46C81.3778 249.993 80.9978 249.633 80.5312 249.38C80.0778 249.113 79.5712 248.98 79.0112 248.98C78.4645 248.98 77.9578 249.113 77.4912 249.38C77.0378 249.633 76.6645 249.993 76.3712 250.46C76.0778 250.913 75.9112 251.44 75.8712 252.04ZM102.166 258H99.9657V252.14C99.9657 251.167 99.8057 250.453 99.4857 250C99.1657 249.547 98.699 249.32 98.0857 249.32C97.4724 249.32 96.899 249.553 96.3657 250.02C95.8457 250.473 95.479 251.067 95.2657 251.8V258H93.0657V252.14C93.0657 251.167 92.9057 250.453 92.5857 250C92.2657 249.547 91.8057 249.32 91.2057 249.32C90.5924 249.32 90.019 249.547 89.4857 250C88.9657 250.453 88.5924 251.047 88.3657 251.78V258H86.1657V247.54H88.1657V249.64C88.579 248.907 89.119 248.347 89.7857 247.96C90.4657 247.56 91.239 247.36 92.1057 247.36C92.9724 247.36 93.6524 247.587 94.1457 248.04C94.6524 248.493 94.9657 249.06 95.0857 249.74C95.539 248.967 96.0924 248.38 96.7457 247.98C97.4124 247.567 98.1724 247.36 99.0257 247.36C99.639 247.36 100.152 247.473 100.566 247.7C100.979 247.927 101.299 248.24 101.526 248.64C101.752 249.027 101.912 249.48 102.006 250C102.112 250.507 102.166 251.047 102.166 251.62V258ZM104.701 258V247.54H106.901V258H104.701ZM104.701 245.82V243.4H106.901V245.82H104.701ZM118.925 258H116.725V252.14C116.725 251.167 116.565 250.453 116.245 250C115.938 249.547 115.478 249.32 114.865 249.32C114.438 249.32 114.011 249.427 113.585 249.64C113.171 249.853 112.798 250.147 112.465 250.52C112.131 250.88 111.891 251.3 111.745 251.78V258H109.545V247.54H111.545V249.64C111.811 249.173 112.158 248.773 112.585 248.44C113.025 248.093 113.518 247.827 114.065 247.64C114.611 247.453 115.191 247.36 115.805 247.36C116.431 247.36 116.945 247.473 117.345 247.7C117.758 247.927 118.078 248.24 118.305 248.64C118.545 249.027 118.705 249.48 118.785 250C118.878 250.507 118.925 251.047 118.925 251.62V258ZM120.818 252.78C120.818 251.78 121.018 250.873 121.418 250.06C121.832 249.233 122.392 248.58 123.098 248.1C123.805 247.607 124.618 247.36 125.538 247.36C126.338 247.36 127.058 247.567 127.698 247.98C128.352 248.393 128.858 248.907 129.218 249.52V243.4H131.418V255.52C131.418 255.773 131.465 255.953 131.558 256.06C131.652 256.167 131.805 256.227 132.018 256.24V258C131.605 258.067 131.285 258.1 131.058 258.1C130.645 258.1 130.292 257.98 129.998 257.74C129.718 257.5 129.572 257.213 129.558 256.88L129.538 256.1C129.138 256.767 128.598 257.287 127.918 257.66C127.238 258.02 126.532 258.2 125.798 258.2C125.078 258.2 124.412 258.06 123.798 257.78C123.198 257.5 122.672 257.107 122.218 256.6C121.778 256.093 121.432 255.513 121.178 254.86C120.938 254.207 120.818 253.513 120.818 252.78ZM129.218 254.24V251.5C129.072 251.073 128.832 250.693 128.498 250.36C128.178 250.013 127.812 249.74 127.398 249.54C126.998 249.34 126.598 249.24 126.198 249.24C125.732 249.24 125.305 249.34 124.918 249.54C124.545 249.74 124.218 250.007 123.938 250.34C123.672 250.673 123.465 251.053 123.318 251.48C123.172 251.907 123.098 252.353 123.098 252.82C123.098 253.3 123.178 253.753 123.338 254.18C123.498 254.593 123.725 254.967 124.018 255.3C124.325 255.62 124.672 255.873 125.058 256.06C125.458 256.233 125.892 256.32 126.358 256.32C126.652 256.32 126.945 256.267 127.238 256.16C127.545 256.053 127.832 255.907 128.098 255.72C128.378 255.533 128.612 255.313 128.798 255.06C128.998 254.807 129.138 254.533 129.218 254.24ZM138.953 258.2C138.139 258.2 137.399 258.06 136.733 257.78C136.079 257.487 135.513 257.093 135.033 256.6C134.553 256.093 134.179 255.52 133.913 254.88C133.659 254.227 133.533 253.533 133.533 252.8C133.533 251.813 133.759 250.913 134.213 250.1C134.666 249.273 135.299 248.613 136.113 248.12C136.926 247.613 137.879 247.36 138.973 247.36C140.066 247.36 141.006 247.613 141.793 248.12C142.593 248.613 143.213 249.267 143.653 250.08C144.093 250.893 144.313 251.767 144.313 252.7C144.313 252.86 144.306 253.013 144.293 253.16C144.279 253.293 144.266 253.407 144.253 253.5H135.873C135.913 254.113 136.079 254.653 136.373 255.12C136.679 255.573 137.066 255.933 137.533 256.2C137.999 256.453 138.499 256.58 139.033 256.58C139.619 256.58 140.173 256.433 140.693 256.14C141.226 255.847 141.586 255.46 141.773 254.98L143.653 255.52C143.426 256.027 143.079 256.487 142.613 256.9C142.159 257.3 141.619 257.62 140.993 257.86C140.366 258.087 139.686 258.2 138.953 258.2ZM135.813 252.04H142.133C142.093 251.44 141.919 250.913 141.613 250.46C141.319 249.993 140.939 249.633 140.473 249.38C140.019 249.113 139.513 248.98 138.953 248.98C138.406 248.98 137.899 249.113 137.433 249.38C136.979 249.633 136.606 249.993 136.313 250.46C136.019 250.913 135.853 251.44 135.813 252.04ZM151.987 249.44C151.134 249.453 150.374 249.647 149.707 250.02C149.054 250.393 148.587 250.92 148.307 251.6V258H146.107V247.54H148.147V249.88C148.507 249.16 148.98 248.587 149.567 248.16C150.154 247.72 150.774 247.48 151.427 247.44C151.56 247.44 151.667 247.44 151.747 247.44C151.84 247.44 151.92 247.447 151.987 247.46V249.44ZM162.78 258.2C161.953 258.2 161.213 258.06 160.56 257.78C159.906 257.487 159.34 257.087 158.86 256.58C158.393 256.073 158.033 255.5 157.78 254.86C157.526 254.207 157.4 253.513 157.4 252.78C157.4 252.047 157.526 251.353 157.78 250.7C158.033 250.047 158.393 249.473 158.86 248.98C159.34 248.473 159.906 248.08 160.56 247.8C161.226 247.507 161.966 247.36 162.78 247.36C163.593 247.36 164.326 247.507 164.98 247.8C165.646 248.08 166.213 248.473 166.68 248.98C167.16 249.473 167.526 250.047 167.78 250.7C168.033 251.353 168.16 252.047 168.16 252.78C168.16 253.513 168.033 254.207 167.78 254.86C167.526 255.5 167.16 256.073 166.68 256.58C166.213 257.087 165.646 257.487 164.98 257.78C164.326 258.06 163.593 258.2 162.78 258.2ZM159.66 252.8C159.66 253.467 159.8 254.067 160.08 254.6C160.36 255.133 160.733 255.553 161.2 255.86C161.666 256.167 162.193 256.32 162.78 256.32C163.353 256.32 163.873 256.167 164.34 255.86C164.82 255.54 165.2 255.113 165.48 254.58C165.76 254.033 165.9 253.433 165.9 252.78C165.9 252.113 165.76 251.513 165.48 250.98C165.2 250.447 164.82 250.027 164.34 249.72C163.873 249.4 163.353 249.24 162.78 249.24C162.193 249.24 161.666 249.4 161.2 249.72C160.733 250.04 160.36 250.467 160.08 251C159.8 251.52 159.66 252.12 159.66 252.8ZM170.574 258V249.5H169.174V247.8H170.574V247.38C170.574 246.527 170.708 245.787 170.974 245.16C171.254 244.533 171.641 244.053 172.134 243.72C172.641 243.373 173.234 243.2 173.914 243.2C174.341 243.2 174.761 243.26 175.174 243.38C175.588 243.487 175.981 243.64 176.354 243.84L175.874 245.48C175.674 245.347 175.434 245.247 175.154 245.18C174.888 245.1 174.628 245.06 174.374 245.06C173.868 245.06 173.474 245.253 173.194 245.64C172.914 246.027 172.774 246.587 172.774 247.32V247.8H175.454V249.5H172.774V258H170.574ZM181.428 260.46C181.628 260.487 181.821 260.513 182.008 260.54C182.208 260.58 182.368 260.6 182.488 260.6C182.715 260.6 182.908 260.527 183.068 260.38C183.241 260.247 183.415 259.993 183.588 259.62C183.761 259.247 183.975 258.707 184.228 258L179.928 247.54H182.228L185.428 255.76L188.268 247.54H190.388L185.648 260.42C185.501 260.807 185.288 261.16 185.008 261.48C184.728 261.813 184.381 262.073 183.968 262.26C183.555 262.447 183.068 262.54 182.508 262.54C182.348 262.54 182.181 262.527 182.008 262.5C181.835 262.473 181.641 262.433 181.428 262.38V260.46ZM196.354 258.2C195.527 258.2 194.787 258.06 194.134 257.78C193.481 257.487 192.914 257.087 192.434 256.58C191.967 256.073 191.607 255.5 191.354 254.86C191.101 254.207 190.974 253.513 190.974 252.78C190.974 252.047 191.101 251.353 191.354 250.7C191.607 250.047 191.967 249.473 192.434 248.98C192.914 248.473 193.481 248.08 194.134 247.8C194.801 247.507 195.541 247.36 196.354 247.36C197.167 247.36 197.901 247.507 198.554 247.8C199.221 248.08 199.787 248.473 200.254 248.98C200.734 249.473 201.101 250.047 201.354 250.7C201.607 251.353 201.734 252.047 201.734 252.78C201.734 253.513 201.607 254.207 201.354 254.86C201.101 255.5 200.734 256.073 200.254 256.58C199.787 257.087 199.221 257.487 198.554 257.78C197.901 258.06 197.167 258.2 196.354 258.2ZM193.234 252.8C193.234 253.467 193.374 254.067 193.654 254.6C193.934 255.133 194.307 255.553 194.774 255.86C195.241 256.167 195.767 256.32 196.354 256.32C196.927 256.32 197.447 256.167 197.914 255.86C198.394 255.54 198.774 255.113 199.054 254.58C199.334 254.033 199.474 253.433 199.474 252.78C199.474 252.113 199.334 251.513 199.054 250.98C198.774 250.447 198.394 250.027 197.914 249.72C197.447 249.4 196.927 249.24 196.354 249.24C195.767 249.24 195.241 249.4 194.774 249.72C194.307 250.04 193.934 250.467 193.654 251C193.374 251.52 193.234 252.12 193.234 252.8ZM203.585 253.94V247.54H205.785V253.5C205.785 254.433 205.952 255.14 206.285 255.62C206.632 256.087 207.132 256.32 207.785 256.32C208.199 256.32 208.599 256.233 208.985 256.06C209.385 255.887 209.745 255.633 210.065 255.3C210.399 254.953 210.665 254.54 210.865 254.06V247.54H213.065V255.52C213.065 255.773 213.112 255.953 213.205 256.06C213.299 256.167 213.452 256.227 213.665 256.24V258C213.439 258.04 213.252 258.067 213.105 258.08C212.959 258.093 212.819 258.1 212.685 258.1C212.285 258.1 211.952 257.993 211.685 257.78C211.419 257.553 211.265 257.267 211.225 256.92L211.185 255.88C210.719 256.64 210.112 257.22 209.365 257.62C208.619 258.007 207.799 258.2 206.905 258.2C205.812 258.2 204.985 257.84 204.425 257.12C203.865 256.4 203.585 255.34 203.585 253.94ZM221.753 249.44C220.899 249.453 220.139 249.647 219.473 250.02C218.819 250.393 218.353 250.92 218.073 251.6V258H215.873V247.54H217.913V249.88C218.273 249.16 218.746 248.587 219.333 248.16C219.919 247.72 220.539 247.48 221.193 247.44C221.326 247.44 221.433 247.44 221.513 247.44C221.606 247.44 221.686 247.447 221.753 247.46V249.44ZM227.845 258V247.54H230.045V258H227.845ZM227.845 245.82V243.4H230.045V245.82H227.845ZM242.069 258H239.869V252.14C239.869 251.167 239.709 250.453 239.389 250C239.082 249.547 238.622 249.32 238.009 249.32C237.582 249.32 237.156 249.427 236.729 249.64C236.316 249.853 235.942 250.147 235.609 250.52C235.276 250.88 235.036 251.3 234.889 251.78V258H232.689V247.54H234.689V249.64C234.956 249.173 235.302 248.773 235.729 248.44C236.169 248.093 236.662 247.827 237.209 247.64C237.756 247.453 238.336 247.36 238.949 247.36C239.576 247.36 240.089 247.473 240.489 247.7C240.902 247.927 241.222 248.24 241.449 248.64C241.689 249.027 241.849 249.48 241.929 250C242.022 250.507 242.069 251.047 242.069 251.62V258ZM250.365 257.46C250.178 257.553 249.945 257.653 249.665 257.76C249.385 257.867 249.065 257.96 248.705 258.04C248.358 258.12 247.998 258.16 247.625 258.16C247.171 258.16 246.751 258.08 246.365 257.92C245.978 257.76 245.665 257.507 245.425 257.16C245.198 256.8 245.085 256.34 245.085 255.78V249.24H243.705V247.54H245.085V244.1H247.285V247.54H249.565V249.24H247.285V255.08C247.311 255.44 247.425 255.707 247.625 255.88C247.838 256.053 248.098 256.14 248.405 256.14C248.711 256.14 249.005 256.087 249.285 255.98C249.565 255.873 249.771 255.787 249.905 255.72L250.365 257.46ZM256.492 258.2C255.678 258.2 254.938 258.06 254.272 257.78C253.618 257.487 253.052 257.093 252.572 256.6C252.092 256.093 251.718 255.52 251.452 254.88C251.198 254.227 251.072 253.533 251.072 252.8C251.072 251.813 251.298 250.913 251.752 250.1C252.205 249.273 252.838 248.613 253.652 248.12C254.465 247.613 255.418 247.36 256.512 247.36C257.605 247.36 258.545 247.613 259.332 248.12C260.132 248.613 260.752 249.267 261.192 250.08C261.632 250.893 261.852 251.767 261.852 252.7C261.852 252.86 261.845 253.013 261.832 253.16C261.818 253.293 261.805 253.407 261.792 253.5H253.412C253.452 254.113 253.618 254.653 253.912 255.12C254.218 255.573 254.605 255.933 255.072 256.2C255.538 256.453 256.038 256.58 256.572 256.58C257.158 256.58 257.712 256.433 258.232 256.14C258.765 255.847 259.125 255.46 259.312 254.98L261.192 255.52C260.965 256.027 260.618 256.487 260.152 256.9C259.698 257.3 259.158 257.62 258.532 257.86C257.905 258.087 257.225 258.2 256.492 258.2ZM253.352 252.04H259.672C259.632 251.44 259.458 250.913 259.152 250.46C258.858 249.993 258.478 249.633 258.012 249.38C257.558 249.113 257.052 248.98 256.492 248.98C255.945 248.98 255.438 249.113 254.972 249.38C254.518 249.633 254.145 249.993 253.852 250.46C253.558 250.913 253.392 251.44 253.352 252.04ZM273.026 258H270.826V252.14C270.826 251.167 270.666 250.453 270.346 250C270.04 249.547 269.58 249.32 268.966 249.32C268.54 249.32 268.113 249.427 267.686 249.64C267.273 249.853 266.9 250.147 266.566 250.52C266.233 250.88 265.993 251.3 265.846 251.78V258H263.646V247.54H265.646V249.64C265.913 249.173 266.26 248.773 266.686 248.44C267.126 248.093 267.62 247.827 268.166 247.64C268.713 247.453 269.293 247.36 269.906 247.36C270.533 247.36 271.046 247.473 271.446 247.7C271.86 247.927 272.18 248.24 272.406 248.64C272.646 249.027 272.806 249.48 272.886 250C272.98 250.507 273.026 251.047 273.026 251.62V258ZM281.322 257.46C281.135 257.553 280.902 257.653 280.622 257.76C280.342 257.867 280.022 257.96 279.662 258.04C279.315 258.12 278.955 258.16 278.582 258.16C278.128 258.16 277.708 258.08 277.322 257.92C276.935 257.76 276.622 257.507 276.382 257.16C276.155 256.8 276.042 256.34 276.042 255.78V249.24H274.662V247.54H276.042V244.1H278.242V247.54H280.522V249.24H278.242V255.08C278.268 255.44 278.382 255.707 278.582 255.88C278.795 256.053 279.055 256.14 279.362 256.14C279.668 256.14 279.962 256.087 280.242 255.98C280.522 255.873 280.728 255.787 280.862 255.72L281.322 257.46ZM282.845 258V247.54H285.045V258H282.845ZM282.845 245.82V243.4H285.045V245.82H282.845ZM292.389 258.2C291.562 258.2 290.822 258.06 290.169 257.78C289.516 257.487 288.949 257.087 288.469 256.58C288.002 256.073 287.642 255.5 287.389 254.86C287.136 254.207 287.009 253.513 287.009 252.78C287.009 252.047 287.136 251.353 287.389 250.7C287.642 250.047 288.002 249.473 288.469 248.98C288.949 248.473 289.516 248.08 290.169 247.8C290.836 247.507 291.576 247.36 292.389 247.36C293.202 247.36 293.936 247.507 294.589 247.8C295.256 248.08 295.822 248.473 296.289 248.98C296.769 249.473 297.136 250.047 297.389 250.7C297.642 251.353 297.769 252.047 297.769 252.78C297.769 253.513 297.642 254.207 297.389 254.86C297.136 255.5 296.769 256.073 296.289 256.58C295.822 257.087 295.256 257.487 294.589 257.78C293.936 258.06 293.202 258.2 292.389 258.2ZM289.269 252.8C289.269 253.467 289.409 254.067 289.689 254.6C289.969 255.133 290.342 255.553 290.809 255.86C291.276 256.167 291.802 256.32 292.389 256.32C292.962 256.32 293.482 256.167 293.949 255.86C294.429 255.54 294.809 255.113 295.089 254.58C295.369 254.033 295.509 253.433 295.509 252.78C295.509 252.113 295.369 251.513 295.089 250.98C294.809 250.447 294.429 250.027 293.949 249.72C293.482 249.4 292.962 249.24 292.389 249.24C291.802 249.24 291.276 249.4 290.809 249.72C290.342 250.04 289.969 250.467 289.689 251C289.409 251.52 289.269 252.12 289.269 252.8ZM309.1 258H306.9V252.14C306.9 251.167 306.74 250.453 306.42 250C306.114 249.547 305.654 249.32 305.04 249.32C304.614 249.32 304.187 249.427 303.76 249.64C303.347 249.853 302.974 250.147 302.64 250.52C302.307 250.88 302.067 251.3 301.92 251.78V258H299.72V247.54H301.72V249.64C301.987 249.173 302.334 248.773 302.76 248.44C303.2 248.093 303.694 247.827 304.24 247.64C304.787 247.453 305.367 247.36 305.98 247.36C306.607 247.36 307.12 247.473 307.52 247.7C307.934 247.927 308.254 248.24 308.48 248.64C308.72 249.027 308.88 249.48 308.96 250C309.054 250.507 309.1 251.047 309.1 251.62V258ZM103.9 280.46C103.713 280.553 103.48 280.653 103.2 280.76C102.92 280.867 102.6 280.96 102.24 281.04C101.893 281.12 101.533 281.16 101.16 281.16C100.706 281.16 100.286 281.08 99.8998 280.92C99.5131 280.76 99.1998 280.507 98.9598 280.16C98.7331 279.8 98.6198 279.34 98.6198 278.78V272.24H97.2398V270.54H98.6198V267.1H100.82V270.54H103.1V272.24H100.82V278.08C100.846 278.44 100.96 278.707 101.16 278.88C101.373 279.053 101.633 279.14 101.94 279.14C102.246 279.14 102.54 279.087 102.82 278.98C103.1 278.873 103.306 278.787 103.44 278.72L103.9 280.46ZM114.804 281H112.604V275.14C112.604 274.193 112.43 273.487 112.084 273.02C111.737 272.553 111.25 272.32 110.624 272.32C110.237 272.32 109.837 272.427 109.424 272.64C109.01 272.853 108.644 273.147 108.324 273.52C108.004 273.88 107.77 274.3 107.624 274.78V281H105.424V266.4H107.624V272.64C108.024 271.933 108.57 271.38 109.264 270.98C109.957 270.567 110.704 270.36 111.504 270.36C112.157 270.36 112.697 270.473 113.124 270.7C113.55 270.927 113.884 271.24 114.124 271.64C114.377 272.027 114.55 272.48 114.644 273C114.75 273.507 114.804 274.047 114.804 274.62V281ZM123.237 272.44C122.384 272.453 121.624 272.647 120.957 273.02C120.304 273.393 119.837 273.92 119.557 274.6V281H117.357V270.54H119.397V272.88C119.757 272.16 120.23 271.587 120.817 271.16C121.404 270.72 122.024 270.48 122.677 270.44C122.81 270.44 122.917 270.44 122.997 270.44C123.09 270.44 123.17 270.447 123.237 270.46V272.44ZM129.342 281.2C128.516 281.2 127.776 281.06 127.122 280.78C126.469 280.487 125.902 280.087 125.422 279.58C124.956 279.073 124.596 278.5 124.342 277.86C124.089 277.207 123.962 276.513 123.962 275.78C123.962 275.047 124.089 274.353 124.342 273.7C124.596 273.047 124.956 272.473 125.422 271.98C125.902 271.473 126.469 271.08 127.122 270.8C127.789 270.507 128.529 270.36 129.342 270.36C130.156 270.36 130.889 270.507 131.542 270.8C132.209 271.08 132.776 271.473 133.242 271.98C133.722 272.473 134.089 273.047 134.342 273.7C134.596 274.353 134.722 275.047 134.722 275.78C134.722 276.513 134.596 277.207 134.342 277.86C134.089 278.5 133.722 279.073 133.242 279.58C132.776 280.087 132.209 280.487 131.542 280.78C130.889 281.06 130.156 281.2 129.342 281.2ZM126.222 275.8C126.222 276.467 126.362 277.067 126.642 277.6C126.922 278.133 127.296 278.553 127.762 278.86C128.229 279.167 128.756 279.32 129.342 279.32C129.916 279.32 130.436 279.167 130.902 278.86C131.382 278.54 131.762 278.113 132.042 277.58C132.322 277.033 132.462 276.433 132.462 275.78C132.462 275.113 132.322 274.513 132.042 273.98C131.762 273.447 131.382 273.027 130.902 272.72C130.436 272.4 129.916 272.24 129.342 272.24C128.756 272.24 128.229 272.4 127.762 272.72C127.296 273.04 126.922 273.467 126.642 274C126.362 274.52 126.222 275.12 126.222 275.8ZM136.574 276.94V270.54H138.774V276.5C138.774 277.433 138.94 278.14 139.274 278.62C139.62 279.087 140.12 279.32 140.774 279.32C141.187 279.32 141.587 279.233 141.974 279.06C142.374 278.887 142.734 278.633 143.054 278.3C143.387 277.953 143.654 277.54 143.854 277.06V270.54H146.054V278.52C146.054 278.773 146.1 278.953 146.194 279.06C146.287 279.167 146.44 279.227 146.654 279.24V281C146.427 281.04 146.24 281.067 146.094 281.08C145.947 281.093 145.807 281.1 145.674 281.1C145.274 281.1 144.94 280.993 144.674 280.78C144.407 280.553 144.254 280.267 144.214 279.92L144.174 278.88C143.707 279.64 143.1 280.22 142.354 280.62C141.607 281.007 140.787 281.2 139.894 281.2C138.8 281.2 137.974 280.84 137.414 280.12C136.854 279.4 136.574 278.34 136.574 276.94ZM153.001 281.1C152.294 281.1 151.648 280.96 151.061 280.68C150.474 280.387 149.968 279.993 149.541 279.5C149.128 279.007 148.801 278.44 148.561 277.8C148.334 277.16 148.221 276.487 148.221 275.78C148.221 275.033 148.341 274.333 148.581 273.68C148.821 273.027 149.154 272.453 149.581 271.96C150.021 271.453 150.534 271.06 151.121 270.78C151.708 270.5 152.361 270.36 153.081 270.36C153.921 270.36 154.654 270.56 155.281 270.96C155.921 271.36 156.448 271.88 156.861 272.52V270.54H158.801V280.7C158.801 281.713 158.554 282.573 158.061 283.28C157.581 283.987 156.921 284.527 156.081 284.9C155.241 285.273 154.294 285.46 153.241 285.46C152.081 285.46 151.121 285.26 150.361 284.86C149.601 284.46 148.954 283.913 148.421 283.22L149.661 282.06C150.061 282.62 150.574 283.047 151.201 283.34C151.841 283.633 152.521 283.78 153.241 283.78C153.841 283.78 154.394 283.667 154.901 283.44C155.421 283.227 155.834 282.887 156.141 282.42C156.448 281.967 156.601 281.393 156.601 280.7V279.1C156.228 279.727 155.714 280.22 155.061 280.58C154.408 280.927 153.721 281.1 153.001 281.1ZM153.721 279.32C154.054 279.32 154.374 279.267 154.681 279.16C154.988 279.04 155.268 278.887 155.521 278.7C155.788 278.5 156.014 278.28 156.201 278.04C156.388 277.787 156.521 277.52 156.601 277.24V274.5C156.428 274.047 156.181 273.653 155.861 273.32C155.541 272.973 155.181 272.707 154.781 272.52C154.381 272.333 153.974 272.24 153.561 272.24C153.081 272.24 152.648 272.347 152.261 272.56C151.888 272.76 151.568 273.033 151.301 273.38C151.034 273.713 150.828 274.093 150.681 274.52C150.534 274.947 150.461 275.387 150.461 275.84C150.461 276.32 150.541 276.767 150.701 277.18C150.874 277.593 151.108 277.967 151.401 278.3C151.694 278.62 152.041 278.873 152.441 279.06C152.841 279.233 153.268 279.32 153.721 279.32ZM170.819 281H168.619V275.14C168.619 274.193 168.446 273.487 168.099 273.02C167.752 272.553 167.266 272.32 166.639 272.32C166.252 272.32 165.852 272.427 165.439 272.64C165.026 272.853 164.659 273.147 164.339 273.52C164.019 273.88 163.786 274.3 163.639 274.78V281H161.439V266.4H163.639V272.64C164.039 271.933 164.586 271.38 165.279 270.98C165.972 270.567 166.719 270.36 167.519 270.36C168.172 270.36 168.712 270.473 169.139 270.7C169.566 270.927 169.899 271.24 170.139 271.64C170.392 272.027 170.566 272.48 170.659 273C170.766 273.507 170.819 274.047 170.819 274.62V281ZM178.073 281.2C177.246 281.2 176.506 281.06 175.853 280.78C175.199 280.487 174.633 280.087 174.153 279.58C173.686 279.073 173.326 278.5 173.073 277.86C172.819 277.207 172.693 276.513 172.693 275.78C172.693 275.047 172.819 274.353 173.073 273.7C173.326 273.047 173.686 272.473 174.153 271.98C174.633 271.473 175.199 271.08 175.853 270.8C176.519 270.507 177.259 270.36 178.073 270.36C178.886 270.36 179.619 270.507 180.273 270.8C180.939 271.08 181.506 271.473 181.973 271.98C182.453 272.473 182.819 273.047 183.073 273.7C183.326 274.353 183.453 275.047 183.453 275.78C183.453 276.513 183.326 277.207 183.073 277.86C182.819 278.5 182.453 279.073 181.973 279.58C181.506 280.087 180.939 280.487 180.273 280.78C179.619 281.06 178.886 281.2 178.073 281.2ZM174.953 275.8C174.953 276.467 175.093 277.067 175.373 277.6C175.653 278.133 176.026 278.553 176.493 278.86C176.959 279.167 177.486 279.32 178.073 279.32C178.646 279.32 179.166 279.167 179.633 278.86C180.113 278.54 180.493 278.113 180.773 277.58C181.053 277.033 181.193 276.433 181.193 275.78C181.193 275.113 181.053 274.513 180.773 273.98C180.493 273.447 180.113 273.027 179.633 272.72C179.166 272.4 178.646 272.24 178.073 272.24C177.486 272.24 176.959 272.4 176.493 272.72C176.026 273.04 175.653 273.467 175.373 274C175.093 274.52 174.953 275.12 174.953 275.8ZM185.304 276.94V270.54H187.504V276.5C187.504 277.433 187.671 278.14 188.004 278.62C188.351 279.087 188.851 279.32 189.504 279.32C189.917 279.32 190.317 279.233 190.704 279.06C191.104 278.887 191.464 278.633 191.784 278.3C192.117 277.953 192.384 277.54 192.584 277.06V270.54H194.784V278.52C194.784 278.773 194.831 278.953 194.924 279.06C195.017 279.167 195.171 279.227 195.384 279.24V281C195.157 281.04 194.971 281.067 194.824 281.08C194.677 281.093 194.537 281.1 194.404 281.1C194.004 281.1 193.671 280.993 193.404 280.78C193.137 280.553 192.984 280.267 192.944 279.92L192.904 278.88C192.437 279.64 191.831 280.22 191.084 280.62C190.337 281.007 189.517 281.2 188.624 281.2C187.531 281.2 186.704 280.84 186.144 280.12C185.584 279.4 185.304 278.34 185.304 276.94ZM203.392 280.46C203.205 280.553 202.972 280.653 202.692 280.76C202.412 280.867 202.092 280.96 201.732 281.04C201.385 281.12 201.025 281.16 200.652 281.16C200.199 281.16 199.779 281.08 199.392 280.92C199.005 280.76 198.692 280.507 198.452 280.16C198.225 279.8 198.112 279.34 198.112 278.78V272.24H196.732V270.54H198.112V267.1H200.312V270.54H202.592V272.24H200.312V278.08C200.339 278.44 200.452 278.707 200.652 278.88C200.865 279.053 201.125 279.14 201.432 279.14C201.739 279.14 202.032 279.087 202.312 278.98C202.592 278.873 202.799 278.787 202.932 278.72L203.392 280.46ZM215.677 280.46C215.49 280.553 215.257 280.653 214.977 280.76C214.697 280.867 214.377 280.96 214.017 281.04C213.67 281.12 213.31 281.16 212.937 281.16C212.484 281.16 212.064 281.08 211.677 280.92C211.29 280.76 210.977 280.507 210.737 280.16C210.51 279.8 210.397 279.34 210.397 278.78V272.24H209.017V270.54H210.397V267.1H212.597V270.54H214.877V272.24H212.597V278.08C212.624 278.44 212.737 278.707 212.937 278.88C213.15 279.053 213.41 279.14 213.717 279.14C214.024 279.14 214.317 279.087 214.597 278.98C214.877 278.873 215.084 278.787 215.217 278.72L215.677 280.46ZM226.581 281H224.381V275.14C224.381 274.193 224.208 273.487 223.861 273.02C223.514 272.553 223.028 272.32 222.401 272.32C222.014 272.32 221.614 272.427 221.201 272.64C220.788 272.853 220.421 273.147 220.101 273.52C219.781 273.88 219.548 274.3 219.401 274.78V281H217.201V266.4H219.401V272.64C219.801 271.933 220.348 271.38 221.041 270.98C221.734 270.567 222.481 270.36 223.281 270.36C223.934 270.36 224.474 270.473 224.901 270.7C225.328 270.927 225.661 271.24 225.901 271.64C226.154 272.027 226.328 272.48 226.421 273C226.528 273.507 226.581 274.047 226.581 274.62V281ZM233.874 281.2C233.061 281.2 232.321 281.06 231.654 280.78C231.001 280.487 230.434 280.093 229.954 279.6C229.474 279.093 229.101 278.52 228.834 277.88C228.581 277.227 228.454 276.533 228.454 275.8C228.454 274.813 228.681 273.913 229.134 273.1C229.588 272.273 230.221 271.613 231.034 271.12C231.848 270.613 232.801 270.36 233.894 270.36C234.988 270.36 235.928 270.613 236.714 271.12C237.514 271.613 238.134 272.267 238.574 273.08C239.014 273.893 239.234 274.767 239.234 275.7C239.234 275.86 239.228 276.013 239.214 276.16C239.201 276.293 239.188 276.407 239.174 276.5H230.794C230.834 277.113 231.001 277.653 231.294 278.12C231.601 278.573 231.988 278.933 232.454 279.2C232.921 279.453 233.421 279.58 233.954 279.58C234.541 279.58 235.094 279.433 235.614 279.14C236.148 278.847 236.508 278.46 236.694 277.98L238.574 278.52C238.348 279.027 238.001 279.487 237.534 279.9C237.081 280.3 236.541 280.62 235.914 280.86C235.288 281.087 234.608 281.2 233.874 281.2ZM230.734 275.04H237.054C237.014 274.44 236.841 273.913 236.534 273.46C236.241 272.993 235.861 272.633 235.394 272.38C234.941 272.113 234.434 271.98 233.874 271.98C233.328 271.98 232.821 272.113 232.354 272.38C231.901 272.633 231.528 272.993 231.234 273.46C230.941 273.913 230.774 274.44 230.734 275.04ZM245.31 275.78C245.31 274.78 245.51 273.873 245.91 273.06C246.324 272.233 246.884 271.58 247.59 271.1C248.297 270.607 249.11 270.36 250.03 270.36C250.83 270.36 251.55 270.567 252.19 270.98C252.844 271.393 253.35 271.907 253.71 272.52V266.4H255.91V278.52C255.91 278.773 255.957 278.953 256.05 279.06C256.144 279.167 256.297 279.227 256.51 279.24V281C256.097 281.067 255.777 281.1 255.55 281.1C255.137 281.1 254.784 280.98 254.49 280.74C254.21 280.5 254.064 280.213 254.05 279.88L254.03 279.1C253.63 279.767 253.09 280.287 252.41 280.66C251.73 281.02 251.024 281.2 250.29 281.2C249.57 281.2 248.904 281.06 248.29 280.78C247.69 280.5 247.164 280.107 246.71 279.6C246.27 279.093 245.924 278.513 245.67 277.86C245.43 277.207 245.31 276.513 245.31 275.78ZM253.71 277.24V274.5C253.564 274.073 253.324 273.693 252.99 273.36C252.67 273.013 252.304 272.74 251.89 272.54C251.49 272.34 251.09 272.24 250.69 272.24C250.224 272.24 249.797 272.34 249.41 272.54C249.037 272.74 248.71 273.007 248.43 273.34C248.164 273.673 247.957 274.053 247.81 274.48C247.664 274.907 247.59 275.353 247.59 275.82C247.59 276.3 247.67 276.753 247.83 277.18C247.99 277.593 248.217 277.967 248.51 278.3C248.817 278.62 249.164 278.873 249.55 279.06C249.95 279.233 250.384 279.32 250.85 279.32C251.144 279.32 251.437 279.267 251.73 279.16C252.037 279.053 252.324 278.907 252.59 278.72C252.87 278.533 253.104 278.313 253.29 278.06C253.49 277.807 253.63 277.533 253.71 277.24ZM257.945 277.94C257.945 277.273 258.131 276.693 258.505 276.2C258.891 275.693 259.418 275.307 260.085 275.04C260.751 274.76 261.525 274.62 262.405 274.62C262.871 274.62 263.345 274.653 263.825 274.72C264.318 274.787 264.751 274.893 265.125 275.04V274.38C265.125 273.647 264.905 273.073 264.465 272.66C264.025 272.247 263.391 272.04 262.565 272.04C261.978 272.04 261.425 272.147 260.905 272.36C260.385 272.56 259.831 272.847 259.245 273.22L258.505 271.74C259.198 271.273 259.891 270.927 260.585 270.7C261.291 270.473 262.031 270.36 262.805 270.36C264.205 270.36 265.305 270.733 266.105 271.48C266.918 272.213 267.325 273.26 267.325 274.62V278.52C267.325 278.773 267.365 278.953 267.445 279.06C267.538 279.167 267.691 279.227 267.905 279.24V281C267.705 281.04 267.525 281.067 267.365 281.08C267.205 281.093 267.071 281.1 266.965 281.1C266.498 281.1 266.145 280.987 265.905 280.76C265.665 280.533 265.525 280.267 265.485 279.96L265.425 279.36C264.971 279.947 264.391 280.4 263.685 280.72C262.978 281.04 262.265 281.2 261.545 281.2C260.851 281.2 260.231 281.06 259.685 280.78C259.138 280.487 258.711 280.093 258.405 279.6C258.098 279.107 257.945 278.553 257.945 277.94ZM264.605 278.58C264.765 278.407 264.891 278.233 264.985 278.06C265.078 277.887 265.125 277.733 265.125 277.6V276.4C264.751 276.253 264.358 276.147 263.945 276.08C263.531 276 263.125 275.96 262.725 275.96C261.925 275.96 261.271 276.12 260.765 276.44C260.271 276.76 260.025 277.2 260.025 277.76C260.025 278.067 260.105 278.36 260.265 278.64C260.438 278.92 260.678 279.147 260.985 279.32C261.305 279.493 261.698 279.58 262.165 279.58C262.645 279.58 263.105 279.487 263.545 279.3C263.985 279.113 264.338 278.873 264.605 278.58ZM269.983 283.46C270.183 283.487 270.376 283.513 270.563 283.54C270.763 283.58 270.923 283.6 271.043 283.6C271.269 283.6 271.463 283.527 271.623 283.38C271.796 283.247 271.969 282.993 272.143 282.62C272.316 282.247 272.529 281.707 272.783 281L268.483 270.54H270.783L273.983 278.76L276.823 270.54H278.943L274.203 283.42C274.056 283.807 273.843 284.16 273.563 284.48C273.283 284.813 272.936 285.073 272.523 285.26C272.109 285.447 271.623 285.54 271.063 285.54C270.903 285.54 270.736 285.527 270.563 285.5C270.389 285.473 270.196 285.433 269.983 285.38V283.46Z" fill="white"/>
<path d="M69.0805 89.793C74.3712 90.7316 78.6378 93.2916 81.8805 97.473C85.2085 101.569 86.8725 106.604 86.8725 112.577C86.8725 116.588 86.0618 120.214 84.4405 123.457C82.9045 126.7 80.6858 129.43 77.7845 131.649C74.9685 133.953 71.5125 135.702 67.4165 136.897C63.3205 138.177 58.7125 138.817 53.5925 138.817C47.1072 138.817 41.3472 137.75 36.3125 135.617C31.3632 133.569 27.2245 130.54 23.8965 126.529L33.6245 114.369C35.8432 117.185 38.4885 119.361 41.5605 120.897C44.6325 122.433 48.4725 123.201 53.0805 123.201C58.2858 123.201 62.2538 122.177 64.9845 120.129C67.7152 118.081 69.0805 114.924 69.0805 110.657C69.0805 106.22 67.5018 102.806 64.3445 100.417C61.1872 98.0276 56.4085 96.833 50.0085 96.833H46.4245V84.033H50.3925C55.6832 84.033 59.7792 82.881 62.6805 80.577C65.5818 78.1876 67.0325 75.1583 67.0325 71.489C67.0325 67.9903 65.8378 65.3876 63.4485 63.681C61.0592 61.9743 57.9445 61.121 54.1045 61.121C50.1792 61.121 46.6378 62.017 43.4805 63.809C40.4085 65.601 37.8912 68.1183 35.9285 71.361L25.1765 59.329C26.4565 57.3663 28.1632 55.617 30.2965 54.081C32.4298 52.4596 34.8192 51.0943 37.4645 49.985C40.1952 48.7903 43.1392 47.8943 46.2965 47.297C49.4538 46.6143 52.6965 46.273 56.0245 46.273C60.3765 46.273 64.3445 46.8276 67.9285 47.937C71.5125 49.0463 74.5845 50.5823 77.1445 52.545C79.7898 54.5076 81.7952 56.897 83.1605 59.713C84.6112 62.4436 85.3365 65.5156 85.3365 68.929C85.3365 71.489 84.9525 73.921 84.1845 76.225C83.4165 78.529 82.3072 80.6196 80.8565 82.497C79.4058 84.3743 77.6565 85.953 75.6085 87.233C73.6458 88.513 71.4698 89.3663 69.0805 89.793Z" fill="white"/>
<path opacity="0.8" d="M-770 344.835C-722.314 345.121 -722.181 331.132 -674.527 331.394C-626.872 331.657 -645.227 339.474 -597.573 339.753C-549.918 340.033 -531.422 320.968 -483.767 321.254C-436.113 321.539 -450.27 347.953 -388.74 348.318C-327.209 348.683 -339.561 332.599 -291.906 332.902C-244.251 333.204 -245.784 352.766 -198.137 353.046C-150.49 353.326 -165.452 319.626 -102.445 320.003C-39.4366 320.38 -75.2636 346.839 -7.42457 347.861C60.4145 348.883 39.8001 333.907 87.4625 334.203C126.463 334.443 134.367 348.918 182.053 349.203C229.738 349.489 231.013 338.383 278.683 338.668C326.353 338.954 326.369 340.187 374 340.467" stroke="url(#paint1_linear_10205_8006)" stroke-width="1.5" stroke-miterlimit="10"/>
<path opacity="0.6" d="M-709.087 352.332C-665.553 352.474 -665.474 339.77 -621.947 339.93C-578.827 340.073 -594.852 347.153 -552.803 347.427H-550.137C-507.697 347.176 -493.446 331.063 -450.419 331.2C-428.116 331.274 -420.713 337.578 -411.152 343.539C-402.029 349.214 -390.905 355.078 -363.466 355.169C-307.275 355.352 -318.587 340.569 -275.052 340.712C-231.517 340.855 -232.948 358.167 -189.389 358.31C-165.992 358.39 -156.228 349.391 -145.933 341.306C-137.099 334.346 -126.108 329.315 -99.4899 329.413C-68.2204 329.515 -60.8643 335.179 -53.0938 341.837C-46.5819 347.455 -41.0864 353.371 -12.7484 353.702C46.9918 354.427 35.2424 342.1 74.0243 341.477C77.1512 341.42 80.2782 341.477 83.4833 341.586C118.435 342.905 119.193 353.508 160.453 353.639C203.996 353.782 205.129 344.886 248.664 345.029C292.199 345.172 292.191 345.337 335.734 345.48" stroke="url(#paint2_linear_10205_8006)" stroke-miterlimit="10"/>
<path opacity="0.4" d="M-648.166 359.829C-608.767 359.829 -608.767 348.472 -569.367 348.472C-529.968 348.472 -545.079 355.113 -505.671 355.113C-466.264 355.113 -456.469 341.152 -417.069 341.152C-396.744 341.152 -390.225 346.862 -381.438 351.938C-373.183 356.734 -362.903 362.016 -338.263 362.016C-287.395 362.016 -297.667 348.547 -258.268 348.547C-218.868 348.547 -220.048 363.598 -180.649 363.598C-160.504 363.598 -148.035 356.061 -139.506 349.083C-131.353 342.403 -122.003 338.806 -96.5107 338.806C-70.0568 338.806 -58.9874 341.386 -52.7335 347.073C-46.6282 352.583 -45.6979 359.298 -18.0714 359.527C38.026 359.989 29.7865 348.529 69.186 348.529C108.585 348.529 99.5095 358.059 138.917 358.059C178.324 358.059 179.293 351.379 218.701 351.379C258.108 351.379 258.108 350.477 297.515 350.477" stroke="url(#paint3_linear_10205_8006)" stroke-width="0.8" stroke-miterlimit="10"/>
</g>
<defs>
<linearGradient id="paint0_linear_10205_8006" x1="108.828" y1="104" x2="318.684" y2="104" gradientUnits="userSpaceOnUse">
<stop stop-color="#BF5AF2"/>
<stop offset="1" stop-color="#7B5AFF"/>
</linearGradient>
<linearGradient id="paint1_linear_10205_8006" x1="-877.087" y1="320" x2="-831.312" y2="584.346" gradientUnits="userSpaceOnUse">
<stop stop-color="#1A307C"/>
<stop offset="0.0001" stop-color="#324C94"/>
<stop offset="0.130208" stop-color="#D3D3D3"/>
</linearGradient>
<linearGradient id="paint2_linear_10205_8006" x1="-806.89" y1="329.411" x2="-768.47" y2="561.137" gradientUnits="userSpaceOnUse">
<stop stop-color="#1A307C"/>
<stop offset="0.0001" stop-color="#324C94"/>
<stop offset="0.130208" stop-color="#D3D3D3"/>
</linearGradient>
<linearGradient id="paint3_linear_10205_8006" x1="-736.689" y1="338.806" x2="-705.364" y2="538.14" gradientUnits="userSpaceOnUse">
<stop stop-color="#1A307C"/>
<stop offset="0.0001" stop-color="#324C94"/>
<stop offset="0.130208" stop-color="#D3D3D3"/>
</linearGradient>
<clipPath id="clip0_10205_8006">
<rect width="368" height="395" rx="12" fill="white"/>
</clipPath>
</defs>
</svg>
