<svg width="368" height="395" viewBox="0 0 368 395" fill="none" xmlns="http://www.w3.org/2000/svg">
<g clip-path="url(#clip0_10205_7988)">
<path d="M140 55.452C139.76 55.188 139.412 54.912 138.956 54.624C138.5 54.312 137.96 54.024 137.336 53.76C136.736 53.496 136.064 53.28 135.32 53.112C134.6 52.944 133.856 52.86 133.088 52.86C131.384 52.86 130.124 53.172 129.308 53.796C128.516 54.42 128.12 55.284 128.12 56.388C128.12 57.012 128.24 57.528 128.48 57.936C128.744 58.32 129.14 58.668 129.668 58.98C130.196 59.268 130.856 59.532 131.648 59.772C132.44 59.988 133.364 60.228 134.42 60.492C135.716 60.804 136.88 61.152 137.912 61.536C138.968 61.92 139.856 62.388 140.576 62.94C141.296 63.492 141.848 64.176 142.232 64.992C142.64 65.784 142.844 66.756 142.844 67.908C142.844 69.204 142.592 70.32 142.088 71.256C141.608 72.192 140.936 72.96 140.072 73.56C139.232 74.136 138.248 74.568 137.12 74.856C135.992 75.12 134.78 75.252 133.484 75.252C131.54 75.252 129.656 74.964 127.832 74.388C126.032 73.788 124.4 72.924 122.936 71.796L124.772 68.34C125.084 68.652 125.528 69 126.104 69.384C126.704 69.768 127.388 70.128 128.156 70.464C128.948 70.776 129.8 71.052 130.712 71.292C131.624 71.508 132.572 71.616 133.556 71.616C135.14 71.616 136.364 71.34 137.228 70.788C138.092 70.236 138.524 69.42 138.524 68.34C138.524 67.692 138.356 67.152 138.02 66.72C137.708 66.288 137.252 65.916 136.652 65.604C136.052 65.268 135.32 64.968 134.456 64.704C133.592 64.44 132.608 64.164 131.504 63.876C130.232 63.54 129.116 63.192 128.156 62.832C127.22 62.448 126.44 61.992 125.816 61.464C125.192 60.936 124.712 60.324 124.376 59.628C124.064 58.908 123.908 58.044 123.908 57.036C123.908 55.788 124.148 54.684 124.628 53.724C125.108 52.74 125.756 51.924 126.572 51.276C127.412 50.604 128.396 50.1 129.524 49.764C130.652 49.428 131.876 49.26 133.196 49.26C134.924 49.26 136.52 49.536 137.984 50.088C139.448 50.64 140.732 51.324 141.836 52.14L140 55.452ZM154.916 75.36C153.452 75.36 152.12 75.108 150.92 74.604C149.72 74.076 148.688 73.368 147.824 72.48C146.984 71.592 146.324 70.56 145.844 69.384C145.388 68.208 145.16 66.96 145.16 65.64C145.16 64.32 145.388 63.072 145.844 61.896C146.324 60.696 146.984 59.652 147.824 58.764C148.688 57.852 149.72 57.144 150.92 56.64C152.12 56.112 153.464 55.848 154.952 55.848C156.416 55.848 157.736 56.112 158.912 56.64C160.112 57.168 161.132 57.876 161.972 58.764C162.812 59.628 163.448 60.648 163.88 61.824C164.336 62.976 164.564 64.188 164.564 65.46C164.564 65.748 164.552 66.024 164.528 66.288C164.504 66.528 164.48 66.732 164.456 66.9H149.372C149.444 67.74 149.636 68.496 149.948 69.168C150.284 69.84 150.704 70.428 151.208 70.932C151.736 71.412 152.324 71.784 152.972 72.048C153.644 72.312 154.34 72.444 155.06 72.444C155.588 72.444 156.104 72.384 156.608 72.264C157.136 72.12 157.616 71.928 158.048 71.688C158.48 71.424 158.864 71.112 159.2 70.752C159.536 70.392 159.8 69.996 159.992 69.564L163.376 70.536C162.728 71.952 161.648 73.116 160.136 74.028C158.648 74.916 156.908 75.36 154.916 75.36ZM160.64 64.164C160.568 63.372 160.364 62.64 160.028 61.968C159.716 61.296 159.308 60.732 158.804 60.276C158.3 59.796 157.712 59.424 157.04 59.16C156.368 58.896 155.66 58.764 154.916 58.764C154.172 58.764 153.464 58.896 152.792 59.16C152.144 59.424 151.568 59.796 151.064 60.276C150.56 60.732 150.152 61.296 149.84 61.968C149.528 62.64 149.336 63.372 149.264 64.164H160.64ZM178.129 74.028C177.625 74.268 176.929 74.544 176.041 74.856C175.153 75.144 174.205 75.288 173.197 75.288C172.573 75.288 171.985 75.204 171.433 75.036C170.881 74.868 170.389 74.616 169.957 74.28C169.549 73.944 169.225 73.512 168.985 72.984C168.745 72.432 168.625 71.772 168.625 71.004V59.232H166.141V56.172H168.625V49.98H172.585V56.172H176.689V59.232H172.585V69.744C172.633 70.416 172.837 70.908 173.197 71.22C173.581 71.508 174.049 71.652 174.601 71.652C175.153 71.652 175.681 71.556 176.185 71.364C176.689 71.172 177.061 71.016 177.301 70.896L178.129 74.028ZM189.395 79.428C189.755 79.5 190.103 79.56 190.439 79.608C190.799 79.656 191.087 79.68 191.303 79.68C191.615 79.68 191.879 79.608 192.095 79.464C192.335 79.344 192.575 79.116 192.815 78.78C193.055 78.444 193.295 77.964 193.535 77.34C193.799 76.74 194.099 75.96 194.435 75L186.695 56.172H190.763L196.595 71.508L201.779 56.172H205.523L196.991 79.356C196.607 80.436 195.935 81.336 194.975 82.056C194.039 82.8 192.827 83.172 191.339 83.172C191.051 83.172 190.751 83.148 190.439 83.1C190.127 83.076 189.779 83.004 189.395 82.884V79.428ZM216.262 75.36C214.774 75.36 213.43 75.096 212.23 74.568C211.054 74.04 210.046 73.332 209.206 72.444C208.366 71.556 207.718 70.524 207.262 69.348C206.806 68.148 206.578 66.9 206.578 65.604C206.578 64.308 206.806 63.072 207.262 61.896C207.718 60.696 208.366 59.652 209.206 58.764C210.07 57.876 211.09 57.168 212.266 56.64C213.466 56.112 214.798 55.848 216.262 55.848C217.726 55.848 219.046 56.112 220.222 56.64C221.422 57.168 222.442 57.876 223.282 58.764C224.146 59.652 224.806 60.696 225.262 61.896C225.718 63.072 225.946 64.308 225.946 65.604C225.946 66.9 225.718 68.148 225.262 69.348C224.806 70.524 224.146 71.556 223.282 72.444C222.442 73.332 221.422 74.04 220.222 74.568C219.046 75.096 217.726 75.36 216.262 75.36ZM210.646 65.64C210.646 66.552 210.79 67.392 211.078 68.16C211.366 68.928 211.762 69.6 212.266 70.176C212.77 70.728 213.358 71.172 214.03 71.508C214.726 71.82 215.47 71.976 216.262 71.976C217.054 71.976 217.786 71.82 218.458 71.508C219.154 71.172 219.754 70.716 220.258 70.14C220.762 69.564 221.158 68.892 221.446 68.124C221.734 67.356 221.878 66.516 221.878 65.604C221.878 64.716 221.734 63.888 221.446 63.12C221.158 62.328 220.762 61.644 220.258 61.068C219.754 60.492 219.154 60.048 218.458 59.736C217.786 59.4 217.054 59.232 216.262 59.232C215.494 59.232 214.762 59.4 214.066 59.736C213.394 60.072 212.806 60.528 212.302 61.104C211.798 61.68 211.39 62.364 211.078 63.156C210.79 63.924 210.646 64.752 210.646 65.64ZM235.254 75.36C233.286 75.36 231.798 74.724 230.79 73.452C229.782 72.156 229.278 70.236 229.278 67.692V56.172H233.238V66.9C233.238 70.284 234.438 71.976 236.838 71.976C237.966 71.976 239.034 71.628 240.042 70.932C241.05 70.236 241.83 69.228 242.382 67.908V56.172H246.342V70.32C246.342 70.776 246.414 71.1 246.558 71.292C246.726 71.484 247.014 71.592 247.422 71.616V75C247.014 75.072 246.678 75.12 246.414 75.144C246.15 75.168 245.898 75.18 245.658 75.18C244.938 75.18 244.326 74.988 243.822 74.604C243.318 74.196 243.054 73.68 243.03 73.056L242.958 71.184C242.118 72.552 241.026 73.596 239.682 74.316C238.338 75.012 236.862 75.36 235.254 75.36ZM261.98 59.592C260.444 59.64 259.076 60 257.876 60.672C256.7 61.32 255.86 62.256 255.356 63.48V75H251.396V56.172H255.068V60.384C255.716 59.088 256.556 58.056 257.588 57.288C258.644 56.496 259.772 56.064 260.972 55.992C261.212 55.992 261.404 55.992 261.548 55.992C261.716 55.992 261.86 56.004 261.98 56.028V59.592ZM124.376 117V98.172H128.336V117H124.376ZM124.376 95.076V90.72H128.336V95.076H124.376ZM149.979 117H146.019V106.452C146.019 104.676 145.731 103.392 145.155 102.6C144.603 101.784 143.775 101.376 142.671 101.376C142.095 101.376 141.519 101.484 140.943 101.7C140.367 101.916 139.827 102.228 139.323 102.636C138.819 103.02 138.363 103.488 137.955 104.04C137.571 104.568 137.271 105.156 137.055 105.804V117H133.095V98.172H136.695V101.952C137.415 100.68 138.459 99.684 139.827 98.964C141.195 98.22 142.707 97.848 144.363 97.848C145.491 97.848 146.415 98.052 147.135 98.46C147.855 98.868 148.419 99.432 148.827 100.152C149.259 100.848 149.559 101.664 149.727 102.6C149.895 103.512 149.979 104.484 149.979 105.516V117ZM164.875 116.028C164.371 116.268 163.675 116.544 162.787 116.856C161.899 117.144 160.951 117.288 159.943 117.288C159.319 117.288 158.731 117.204 158.179 117.036C157.627 116.868 157.135 116.616 156.703 116.28C156.295 115.944 155.971 115.512 155.731 114.984C155.491 114.432 155.371 113.772 155.371 113.004V101.232H152.887V98.172H155.371V91.98H159.331V98.172H163.435V101.232H159.331V111.744C159.379 112.416 159.583 112.908 159.943 113.22C160.327 113.508 160.795 113.652 161.347 113.652C161.899 113.652 162.427 113.556 162.931 113.364C163.435 113.172 163.807 113.016 164.047 112.896L164.875 116.028ZM175.693 117.36C174.229 117.36 172.897 117.108 171.697 116.604C170.497 116.076 169.465 115.368 168.601 114.48C167.761 113.592 167.101 112.56 166.621 111.384C166.165 110.208 165.937 108.96 165.937 107.64C165.937 106.32 166.165 105.072 166.621 103.896C167.101 102.696 167.761 101.652 168.601 100.764C169.465 99.852 170.497 99.144 171.697 98.64C172.897 98.112 174.241 97.848 175.729 97.848C177.193 97.848 178.513 98.112 179.689 98.64C180.889 99.168 181.909 99.876 182.749 100.764C183.589 101.628 184.225 102.648 184.657 103.824C185.113 104.976 185.341 106.188 185.341 107.46C185.341 107.748 185.329 108.024 185.305 108.288C185.281 108.528 185.257 108.732 185.233 108.9H170.149C170.221 109.74 170.413 110.496 170.725 111.168C171.061 111.84 171.481 112.428 171.985 112.932C172.513 113.412 173.101 113.784 173.749 114.048C174.421 114.312 175.117 114.444 175.837 114.444C176.365 114.444 176.881 114.384 177.385 114.264C177.913 114.12 178.393 113.928 178.825 113.688C179.257 113.424 179.641 113.112 179.977 112.752C180.313 112.392 180.577 111.996 180.769 111.564L184.153 112.536C183.505 113.952 182.425 115.116 180.913 116.028C179.425 116.916 177.685 117.36 175.693 117.36ZM181.417 106.164C181.345 105.372 181.141 104.64 180.805 103.968C180.493 103.296 180.085 102.732 179.581 102.276C179.077 101.796 178.489 101.424 177.817 101.16C177.145 100.896 176.437 100.764 175.693 100.764C174.949 100.764 174.241 100.896 173.569 101.16C172.921 101.424 172.345 101.796 171.841 102.276C171.337 102.732 170.929 103.296 170.617 103.968C170.305 104.64 170.113 105.372 170.041 106.164H181.417ZM205.455 117H201.495V106.452C201.495 104.676 201.207 103.392 200.631 102.6C200.079 101.784 199.251 101.376 198.147 101.376C197.571 101.376 196.995 101.484 196.419 101.7C195.843 101.916 195.303 102.228 194.799 102.636C194.295 103.02 193.839 103.488 193.431 104.04C193.047 104.568 192.747 105.156 192.531 105.804V117H188.571V98.172H192.171V101.952C192.891 100.68 193.935 99.684 195.303 98.964C196.671 98.22 198.183 97.848 199.839 97.848C200.967 97.848 201.891 98.052 202.611 98.46C203.331 98.868 203.895 99.432 204.303 100.152C204.735 100.848 205.035 101.664 205.203 102.6C205.371 103.512 205.455 104.484 205.455 105.516V117ZM220.352 116.028C219.848 116.268 219.152 116.544 218.264 116.856C217.376 117.144 216.428 117.288 215.42 117.288C214.796 117.288 214.208 117.204 213.656 117.036C213.104 116.868 212.612 116.616 212.18 116.28C211.772 115.944 211.448 115.512 211.208 114.984C210.968 114.432 210.848 113.772 210.848 113.004V101.232H208.364V98.172H210.848V91.98H214.808V98.172H218.912V101.232H214.808V111.744C214.856 112.416 215.06 112.908 215.42 113.22C215.804 113.508 216.272 113.652 216.824 113.652C217.376 113.652 217.904 113.556 218.408 113.364C218.912 113.172 219.284 113.016 219.524 112.896L220.352 116.028ZM223.095 117V98.172H227.055V117H223.095ZM223.095 95.076V90.72H227.055V95.076H223.095ZM240.274 117.36C238.786 117.36 237.442 117.096 236.242 116.568C235.066 116.04 234.058 115.332 233.218 114.444C232.378 113.556 231.73 112.524 231.274 111.348C230.818 110.148 230.59 108.9 230.59 107.604C230.59 106.308 230.818 105.072 231.274 103.896C231.73 102.696 232.378 101.652 233.218 100.764C234.082 99.876 235.102 99.168 236.278 98.64C237.478 98.112 238.81 97.848 240.274 97.848C241.738 97.848 243.058 98.112 244.234 98.64C245.434 99.168 246.454 99.876 247.294 100.764C248.158 101.652 248.818 102.696 249.273 103.896C249.73 105.072 249.958 106.308 249.958 107.604C249.958 108.9 249.73 110.148 249.273 111.348C248.818 112.524 248.158 113.556 247.294 114.444C246.454 115.332 245.434 116.04 244.234 116.568C243.058 117.096 241.738 117.36 240.274 117.36ZM234.658 107.64C234.658 108.552 234.802 109.392 235.09 110.16C235.378 110.928 235.774 111.6 236.278 112.176C236.782 112.728 237.37 113.172 238.042 113.508C238.738 113.82 239.482 113.976 240.274 113.976C241.066 113.976 241.798 113.82 242.47 113.508C243.166 113.172 243.766 112.716 244.27 112.14C244.774 111.564 245.17 110.892 245.458 110.124C245.746 109.356 245.89 108.516 245.89 107.604C245.89 106.716 245.746 105.888 245.458 105.12C245.17 104.328 244.774 103.644 244.27 103.068C243.766 102.492 243.166 102.048 242.47 101.736C241.798 101.4 241.066 101.232 240.274 101.232C239.506 101.232 238.774 101.4 238.078 101.736C237.406 102.072 236.818 102.528 236.314 103.104C235.81 103.68 235.402 104.364 235.09 105.156C234.802 105.924 234.658 106.752 234.658 107.64ZM270.354 117H266.394V106.452C266.394 104.676 266.106 103.392 265.53 102.6C264.978 101.784 264.15 101.376 263.046 101.376C262.47 101.376 261.894 101.484 261.318 101.7C260.742 101.916 260.202 102.228 259.698 102.636C259.194 103.02 258.738 103.488 258.33 104.04C257.946 104.568 257.646 105.156 257.43 105.804V117H253.47V98.172H257.07V101.952C257.79 100.68 258.834 99.684 260.202 98.964C261.57 98.22 263.082 97.848 264.738 97.848C265.866 97.848 266.79 98.052 267.51 98.46C268.23 98.868 268.794 99.432 269.202 100.152C269.634 100.848 269.934 101.664 270.102 102.6C270.27 103.512 270.354 104.484 270.354 105.516V117Z" fill="url(#paint0_linear_10205_7988)"/>
<path d="M56.8246 235V220.8H66.2846V222.78H59.0646V227.02H65.1046V228.88H59.0646V235H56.8246ZM72.143 235.2C71.3164 235.2 70.5697 235.053 69.903 234.76C69.2497 234.467 68.6897 234.073 68.223 233.58C67.7564 233.087 67.3964 232.513 67.143 231.86C66.8897 231.193 66.763 230.5 66.763 229.78C66.763 229.06 66.8897 228.373 67.143 227.72C67.3964 227.053 67.7564 226.473 68.223 225.98C68.703 225.487 69.2697 225.093 69.923 224.8C70.5897 224.507 71.3297 224.36 72.143 224.36C72.9564 224.36 73.6897 224.507 74.343 224.8C75.0097 225.093 75.5764 225.487 76.043 225.98C76.523 226.473 76.8897 227.053 77.143 227.72C77.3964 228.373 77.523 229.06 77.523 229.78C77.523 230.5 77.3964 231.193 77.143 231.86C76.8897 232.513 76.523 233.087 76.043 233.58C75.5764 234.073 75.0097 234.467 74.343 234.76C73.6897 235.053 72.9564 235.2 72.143 235.2ZM69.023 229.8C69.023 230.307 69.103 230.773 69.263 231.2C69.423 231.627 69.643 232 69.923 232.32C70.203 232.627 70.5297 232.873 70.903 233.06C71.2897 233.233 71.703 233.32 72.143 233.32C72.583 233.32 72.9897 233.233 73.363 233.06C73.7497 232.873 74.083 232.62 74.363 232.3C74.643 231.98 74.863 231.607 75.023 231.18C75.183 230.753 75.263 230.287 75.263 229.78C75.263 229.287 75.183 228.827 75.023 228.4C74.863 227.96 74.643 227.58 74.363 227.26C74.083 226.94 73.7497 226.693 73.363 226.52C72.9897 226.333 72.583 226.24 72.143 226.24C71.7164 226.24 71.3097 226.333 70.923 226.52C70.5497 226.707 70.223 226.96 69.943 227.28C69.663 227.6 69.4364 227.98 69.263 228.42C69.103 228.847 69.023 229.307 69.023 229.8ZM78.7943 229.76C78.7943 229.027 78.921 228.333 79.1743 227.68C79.4276 227.027 79.7876 226.453 80.2543 225.96C80.7343 225.467 81.3076 225.08 81.9743 224.8C82.641 224.507 83.3876 224.36 84.2143 224.36C85.2943 224.36 86.221 224.6 86.9943 225.08C87.781 225.547 88.3676 226.173 88.7543 226.96L86.6143 227.64C86.361 227.2 86.021 226.86 85.5943 226.62C85.1676 226.367 84.6943 226.24 84.1743 226.24C83.7343 226.24 83.321 226.327 82.9343 226.5C82.561 226.673 82.2343 226.92 81.9543 227.24C81.6743 227.547 81.4543 227.913 81.2943 228.34C81.1343 228.767 81.0543 229.24 81.0543 229.76C81.0543 230.267 81.1343 230.74 81.2943 231.18C81.4676 231.607 81.6943 231.98 81.9743 232.3C82.2676 232.62 82.601 232.873 82.9743 233.06C83.361 233.233 83.7676 233.32 84.1943 233.32C84.461 233.32 84.7276 233.287 84.9943 233.22C85.261 233.14 85.501 233.033 85.7143 232.9C85.941 232.767 86.1343 232.613 86.2943 232.44C86.4676 232.267 86.5943 232.08 86.6743 231.88L88.8343 232.52C88.4876 233.307 87.9076 233.953 87.0943 234.46C86.281 234.953 85.321 235.2 84.2143 235.2C83.401 235.2 82.661 235.053 81.9943 234.76C81.3276 234.467 80.7543 234.073 80.2743 233.58C79.8076 233.073 79.441 232.493 79.1743 231.84C78.921 231.187 78.7943 230.493 78.7943 229.76ZM93.8662 235.2C92.7728 235.2 91.9462 234.847 91.3862 234.14C90.8262 233.42 90.5462 232.353 90.5462 230.94V224.54H92.7462V230.5C92.7462 232.38 93.4128 233.32 94.7462 233.32C95.3728 233.32 95.9662 233.127 96.5262 232.74C97.0862 232.353 97.5195 231.793 97.8262 231.06V224.54H100.026V232.4C100.026 232.653 100.066 232.833 100.146 232.94C100.24 233.047 100.4 233.107 100.626 233.12V235C100.4 235.04 100.213 235.067 100.066 235.08C99.9195 235.093 99.7795 235.1 99.6462 235.1C99.2462 235.1 98.9062 234.993 98.6262 234.78C98.3462 234.553 98.1995 234.267 98.1862 233.92L98.1462 232.88C97.6795 233.64 97.0728 234.22 96.3262 234.62C95.5795 235.007 94.7595 235.2 93.8662 235.2ZM106.634 235.2C105.794 235.2 104.954 235.067 104.114 234.8C103.287 234.52 102.574 234.127 101.974 233.62L102.854 232.22C103.48 232.673 104.1 233.02 104.714 233.26C105.327 233.487 105.954 233.6 106.594 233.6C107.247 233.6 107.76 233.473 108.134 233.22C108.52 232.967 108.714 232.607 108.714 232.14C108.714 231.7 108.5 231.38 108.074 231.18C107.647 230.98 106.98 230.76 106.074 230.52C105.42 230.347 104.86 230.18 104.394 230.02C103.927 229.86 103.547 229.673 103.254 229.46C102.96 229.247 102.747 229 102.614 228.72C102.48 228.44 102.414 228.1 102.414 227.7C102.414 227.167 102.514 226.693 102.714 226.28C102.927 225.867 103.214 225.52 103.574 225.24C103.947 224.947 104.38 224.727 104.874 224.58C105.367 224.433 105.9 224.36 106.474 224.36C107.26 224.36 107.994 224.48 108.674 224.72C109.354 224.96 109.96 225.307 110.494 225.76L109.554 227.08C108.58 226.307 107.547 225.92 106.454 225.92C105.894 225.92 105.42 226.04 105.034 226.28C104.66 226.507 104.474 226.873 104.474 227.38C104.474 227.593 104.514 227.773 104.594 227.92C104.674 228.067 104.8 228.193 104.974 228.3C105.16 228.407 105.394 228.507 105.674 228.6C105.967 228.68 106.327 228.773 106.754 228.88C107.46 229.053 108.067 229.227 108.574 229.4C109.094 229.573 109.52 229.78 109.854 230.02C110.187 230.247 110.434 230.52 110.594 230.84C110.754 231.147 110.834 231.52 110.834 231.96C110.834 232.96 110.454 233.753 109.694 234.34C108.947 234.913 107.927 235.2 106.634 235.2ZM122.397 235.2C121.57 235.2 120.824 235.053 120.157 234.76C119.504 234.467 118.944 234.073 118.477 233.58C118.01 233.087 117.65 232.513 117.397 231.86C117.144 231.193 117.017 230.5 117.017 229.78C117.017 229.06 117.144 228.373 117.397 227.72C117.65 227.053 118.01 226.473 118.477 225.98C118.957 225.487 119.524 225.093 120.177 224.8C120.844 224.507 121.584 224.36 122.397 224.36C123.21 224.36 123.944 224.507 124.597 224.8C125.264 225.093 125.83 225.487 126.297 225.98C126.777 226.473 127.144 227.053 127.397 227.72C127.65 228.373 127.777 229.06 127.777 229.78C127.777 230.5 127.65 231.193 127.397 231.86C127.144 232.513 126.777 233.087 126.297 233.58C125.83 234.073 125.264 234.467 124.597 234.76C123.944 235.053 123.21 235.2 122.397 235.2ZM119.277 229.8C119.277 230.307 119.357 230.773 119.517 231.2C119.677 231.627 119.897 232 120.177 232.32C120.457 232.627 120.784 232.873 121.157 233.06C121.544 233.233 121.957 233.32 122.397 233.32C122.837 233.32 123.244 233.233 123.617 233.06C124.004 232.873 124.337 232.62 124.617 232.3C124.897 231.98 125.117 231.607 125.277 231.18C125.437 230.753 125.517 230.287 125.517 229.78C125.517 229.287 125.437 228.827 125.277 228.4C125.117 227.96 124.897 227.58 124.617 227.26C124.337 226.94 124.004 226.693 123.617 226.52C123.244 226.333 122.837 226.24 122.397 226.24C121.97 226.24 121.564 226.333 121.177 226.52C120.804 226.707 120.477 226.96 120.197 227.28C119.917 227.6 119.69 227.98 119.517 228.42C119.357 228.847 119.277 229.307 119.277 229.8ZM139.108 235H136.908V229.14C136.908 228.153 136.748 227.44 136.428 227C136.122 226.547 135.662 226.32 135.048 226.32C134.728 226.32 134.408 226.38 134.088 226.5C133.768 226.62 133.468 226.793 133.188 227.02C132.908 227.233 132.655 227.493 132.428 227.8C132.215 228.093 132.048 228.42 131.928 228.78V235H129.728V224.54H131.728V226.64C132.128 225.933 132.708 225.38 133.468 224.98C134.228 224.567 135.068 224.36 135.988 224.36C136.615 224.36 137.128 224.473 137.528 224.7C137.928 224.927 138.242 225.24 138.468 225.64C138.708 226.027 138.875 226.48 138.968 227C139.062 227.507 139.108 228.047 139.108 228.62V235ZM158.543 220.8V235H156.283V228.74H149.123V235H146.883V220.8H149.123V226.74H156.283V220.8H158.543ZM166.07 235.2C165.256 235.2 164.516 235.06 163.85 234.78C163.183 234.487 162.61 234.093 162.13 233.6C161.663 233.107 161.296 232.533 161.03 231.88C160.776 231.227 160.65 230.533 160.65 229.8C160.65 229.067 160.776 228.373 161.03 227.72C161.296 227.053 161.663 226.473 162.13 225.98C162.61 225.473 163.183 225.08 163.85 224.8C164.516 224.507 165.263 224.36 166.09 224.36C166.903 224.36 167.636 224.507 168.29 224.8C168.956 225.093 169.523 225.487 169.99 225.98C170.456 226.46 170.81 227.027 171.05 227.68C171.303 228.32 171.43 228.993 171.43 229.7C171.43 229.86 171.423 230.013 171.41 230.16C171.396 230.293 171.383 230.407 171.37 230.5H162.99C163.03 230.967 163.136 231.387 163.31 231.76C163.496 232.133 163.73 232.46 164.01 232.74C164.303 233.007 164.63 233.213 164.99 233.36C165.363 233.507 165.75 233.58 166.15 233.58C166.443 233.58 166.73 233.547 167.01 233.48C167.303 233.4 167.57 233.293 167.81 233.16C168.05 233.013 168.263 232.84 168.45 232.64C168.636 232.44 168.783 232.22 168.89 231.98L170.77 232.52C170.41 233.307 169.81 233.953 168.97 234.46C168.143 234.953 167.176 235.2 166.07 235.2ZM169.25 228.98C169.21 228.54 169.096 228.133 168.91 227.76C168.736 227.387 168.51 227.073 168.23 226.82C167.95 226.553 167.623 226.347 167.25 226.2C166.876 226.053 166.483 225.98 166.07 225.98C165.656 225.98 165.263 226.053 164.89 226.2C164.53 226.347 164.21 226.553 163.93 226.82C163.65 227.073 163.423 227.387 163.25 227.76C163.076 228.133 162.97 228.54 162.93 228.98H169.25ZM176.004 235.2C175.498 235.2 175.024 235.12 174.584 234.96C174.158 234.787 173.784 234.553 173.464 234.26C173.158 233.967 172.911 233.62 172.724 233.22C172.551 232.82 172.464 232.387 172.464 231.92C172.464 231.427 172.571 230.98 172.784 230.58C172.998 230.18 173.298 229.833 173.684 229.54C174.084 229.247 174.551 229.02 175.084 228.86C175.631 228.7 176.231 228.62 176.884 228.62C177.378 228.62 177.864 228.667 178.344 228.76C178.824 228.84 179.258 228.953 179.644 229.1V228.38C179.644 227.607 179.424 227.007 178.984 226.58C178.544 226.14 177.911 225.92 177.084 225.92C176.524 225.92 175.971 226.027 175.424 226.24C174.891 226.44 174.338 226.733 173.764 227.12L173.084 225.72C174.431 224.813 175.831 224.36 177.284 224.36C178.724 224.36 179.844 224.727 180.644 225.46C181.444 226.193 181.844 227.247 181.844 228.62V232.4C181.844 232.867 182.038 233.107 182.424 233.12V235C182.211 235.04 182.024 235.067 181.864 235.08C181.718 235.093 181.571 235.1 181.424 235.1C180.998 235.1 180.664 234.993 180.424 234.78C180.198 234.567 180.058 234.293 180.004 233.96L179.944 233.3C179.478 233.913 178.898 234.387 178.204 234.72C177.524 235.04 176.791 235.2 176.004 235.2ZM176.604 233.58C177.138 233.58 177.638 233.487 178.104 233.3C178.584 233.1 178.958 232.827 179.224 232.48C179.504 232.24 179.644 231.987 179.644 231.72V230.34C179.271 230.193 178.871 230.08 178.444 230C178.031 229.92 177.624 229.88 177.224 229.88C176.438 229.88 175.791 230.053 175.284 230.4C174.791 230.733 174.544 231.18 174.544 231.74C174.544 232.26 174.738 232.7 175.124 233.06C175.511 233.407 176.004 233.58 176.604 233.58ZM184.533 220.4H186.733V231.98C186.733 232.367 186.833 232.673 187.033 232.9C187.233 233.113 187.513 233.22 187.873 233.22C188.02 233.22 188.187 233.193 188.373 233.14C188.573 233.087 188.76 233.027 188.933 232.96L189.253 234.68C188.933 234.827 188.553 234.94 188.113 235.02C187.673 235.113 187.28 235.16 186.933 235.16C186.173 235.16 185.58 234.953 185.153 234.54C184.74 234.127 184.533 233.54 184.533 232.78V220.4ZM196.349 234.46C196.069 234.593 195.682 234.747 195.189 234.92C194.696 235.08 194.169 235.16 193.609 235.16C193.262 235.16 192.936 235.113 192.629 235.02C192.322 234.927 192.049 234.787 191.809 234.6C191.582 234.413 191.402 234.173 191.269 233.88C191.136 233.573 191.069 233.207 191.069 232.78V226.24H189.689V224.54H191.069V221.1H193.269V224.54H195.549V226.24H193.269V232.08C193.296 232.453 193.409 232.727 193.609 232.9C193.822 233.06 194.082 233.14 194.389 233.14C194.696 233.14 194.989 233.087 195.269 232.98C195.549 232.873 195.756 232.787 195.889 232.72L196.349 234.46ZM207.253 235H205.053V229.14C205.053 228.18 204.879 227.473 204.533 227.02C204.199 226.553 203.713 226.32 203.073 226.32C202.766 226.32 202.459 226.38 202.153 226.5C201.846 226.62 201.553 226.793 201.273 227.02C201.006 227.233 200.766 227.493 200.553 227.8C200.339 228.093 200.179 228.42 200.073 228.78V235H197.873V220.4H200.073V226.64C200.473 225.92 201.013 225.36 201.693 224.96C202.386 224.56 203.139 224.36 203.953 224.36C204.606 224.36 205.139 224.48 205.553 224.72C205.979 224.947 206.319 225.253 206.573 225.64C206.826 226.027 206.999 226.48 207.093 227C207.199 227.507 207.253 228.047 207.253 228.62V235ZM209.946 236.94L210.426 234.88H209.706V232.44H211.686V234.88L210.986 236.94H209.946ZM223.798 220.86H225.918L227.658 225.68L229.418 220.86H231.518L229.098 227.18L231.218 232.4L235.638 220.8H238.098L232.238 235H230.318L227.678 228.64L225.018 235H223.098L217.238 220.8H219.678L224.118 232.4L226.238 227.18L223.798 220.86ZM242.945 235.2C242.131 235.2 241.391 235.06 240.725 234.78C240.058 234.487 239.485 234.093 239.005 233.6C238.538 233.107 238.171 232.533 237.905 231.88C237.651 231.227 237.525 230.533 237.525 229.8C237.525 229.067 237.651 228.373 237.905 227.72C238.171 227.053 238.538 226.473 239.005 225.98C239.485 225.473 240.058 225.08 240.725 224.8C241.391 224.507 242.138 224.36 242.965 224.36C243.778 224.36 244.511 224.507 245.165 224.8C245.831 225.093 246.398 225.487 246.865 225.98C247.331 226.46 247.685 227.027 247.925 227.68C248.178 228.32 248.305 228.993 248.305 229.7C248.305 229.86 248.298 230.013 248.285 230.16C248.271 230.293 248.258 230.407 248.245 230.5H239.865C239.905 230.967 240.011 231.387 240.185 231.76C240.371 232.133 240.605 232.46 240.885 232.74C241.178 233.007 241.505 233.213 241.865 233.36C242.238 233.507 242.625 233.58 243.025 233.58C243.318 233.58 243.605 233.547 243.885 233.48C244.178 233.4 244.445 233.293 244.685 233.16C244.925 233.013 245.138 232.84 245.325 232.64C245.511 232.44 245.658 232.22 245.765 231.98L247.645 232.52C247.285 233.307 246.685 233.953 245.845 234.46C245.018 234.953 244.051 235.2 242.945 235.2ZM246.125 228.98C246.085 228.54 245.971 228.133 245.785 227.76C245.611 227.387 245.385 227.073 245.105 226.82C244.825 226.553 244.498 226.347 244.125 226.2C243.751 226.053 243.358 225.98 242.945 225.98C242.531 225.98 242.138 226.053 241.765 226.2C241.405 226.347 241.085 226.553 240.805 226.82C240.525 227.073 240.298 227.387 240.125 227.76C239.951 228.133 239.845 228.54 239.805 228.98H246.125ZM252.879 235.2C252.373 235.2 251.899 235.12 251.459 234.96C251.033 234.787 250.659 234.553 250.339 234.26C250.033 233.967 249.786 233.62 249.599 233.22C249.426 232.82 249.339 232.387 249.339 231.92C249.339 231.427 249.446 230.98 249.659 230.58C249.873 230.18 250.173 229.833 250.559 229.54C250.959 229.247 251.426 229.02 251.959 228.86C252.506 228.7 253.106 228.62 253.759 228.62C254.253 228.62 254.739 228.667 255.219 228.76C255.699 228.84 256.133 228.953 256.519 229.1V228.38C256.519 227.607 256.299 227.007 255.859 226.58C255.419 226.14 254.786 225.92 253.959 225.92C253.399 225.92 252.846 226.027 252.299 226.24C251.766 226.44 251.213 226.733 250.639 227.12L249.959 225.72C251.306 224.813 252.706 224.36 254.159 224.36C255.599 224.36 256.719 224.727 257.519 225.46C258.319 226.193 258.719 227.247 258.719 228.62V232.4C258.719 232.867 258.913 233.107 259.299 233.12V235C259.086 235.04 258.899 235.067 258.739 235.08C258.593 235.093 258.446 235.1 258.299 235.1C257.873 235.1 257.539 234.993 257.299 234.78C257.073 234.567 256.933 234.293 256.879 233.96L256.819 233.3C256.353 233.913 255.773 234.387 255.079 234.72C254.399 235.04 253.666 235.2 252.879 235.2ZM253.479 233.58C254.013 233.58 254.513 233.487 254.979 233.3C255.459 233.1 255.833 232.827 256.099 232.48C256.379 232.24 256.519 231.987 256.519 231.72V230.34C256.146 230.193 255.746 230.08 255.319 230C254.906 229.92 254.499 229.88 254.099 229.88C253.313 229.88 252.666 230.053 252.159 230.4C251.666 230.733 251.419 231.18 251.419 231.74C251.419 232.26 251.613 232.7 251.999 233.06C252.386 233.407 252.879 233.58 253.479 233.58ZM261.408 220.4H263.608V231.98C263.608 232.367 263.708 232.673 263.908 232.9C264.108 233.113 264.388 233.22 264.748 233.22C264.895 233.22 265.062 233.193 265.248 233.14C265.448 233.087 265.635 233.027 265.808 232.96L266.128 234.68C265.808 234.827 265.428 234.94 264.988 235.02C264.548 235.113 264.155 235.16 263.808 235.16C263.048 235.16 262.455 234.953 262.028 234.54C261.615 234.127 261.408 233.54 261.408 232.78V220.4ZM273.224 234.46C272.944 234.593 272.557 234.747 272.064 234.92C271.571 235.08 271.044 235.16 270.484 235.16C270.137 235.16 269.811 235.113 269.504 235.02C269.197 234.927 268.924 234.787 268.684 234.6C268.457 234.413 268.277 234.173 268.144 233.88C268.011 233.573 267.944 233.207 267.944 232.78V226.24H266.564V224.54H267.944V221.1H270.144V224.54H272.424V226.24H270.144V232.08C270.171 232.453 270.284 232.727 270.484 232.9C270.697 233.06 270.957 233.14 271.264 233.14C271.571 233.14 271.864 233.087 272.144 232.98C272.424 232.873 272.631 232.787 272.764 232.72L273.224 234.46ZM284.128 235H281.928V229.14C281.928 228.18 281.754 227.473 281.408 227.02C281.074 226.553 280.588 226.32 279.948 226.32C279.641 226.32 279.334 226.38 279.028 226.5C278.721 226.62 278.428 226.793 278.148 227.02C277.881 227.233 277.641 227.493 277.428 227.8C277.214 228.093 277.054 228.42 276.948 228.78V235H274.748V220.4H276.948V226.64C277.348 225.92 277.888 225.36 278.568 224.96C279.261 224.56 280.014 224.36 280.828 224.36C281.481 224.36 282.014 224.48 282.428 224.72C282.854 224.947 283.194 225.253 283.448 225.64C283.701 226.027 283.874 226.48 283.968 227C284.074 227.507 284.128 228.047 284.128 228.62V235ZM286.821 236.94L287.301 234.88H286.581V232.44H288.561V234.88L287.861 236.94H286.821ZM103.817 258V243.8H106.057V256.02H113.677V258H103.817ZM119.487 258.2C118.66 258.2 117.913 258.053 117.247 257.76C116.593 257.467 116.033 257.073 115.567 256.58C115.1 256.087 114.74 255.513 114.487 254.86C114.233 254.193 114.107 253.5 114.107 252.78C114.107 252.06 114.233 251.373 114.487 250.72C114.74 250.053 115.1 249.473 115.567 248.98C116.047 248.487 116.613 248.093 117.267 247.8C117.933 247.507 118.673 247.36 119.487 247.36C120.3 247.36 121.033 247.507 121.687 247.8C122.353 248.093 122.92 248.487 123.387 248.98C123.867 249.473 124.233 250.053 124.487 250.72C124.74 251.373 124.867 252.06 124.867 252.78C124.867 253.5 124.74 254.193 124.487 254.86C124.233 255.513 123.867 256.087 123.387 256.58C122.92 257.073 122.353 257.467 121.687 257.76C121.033 258.053 120.3 258.2 119.487 258.2ZM116.367 252.8C116.367 253.307 116.447 253.773 116.607 254.2C116.767 254.627 116.987 255 117.267 255.32C117.547 255.627 117.873 255.873 118.247 256.06C118.633 256.233 119.047 256.32 119.487 256.32C119.927 256.32 120.333 256.233 120.707 256.06C121.093 255.873 121.427 255.62 121.707 255.3C121.987 254.98 122.207 254.607 122.367 254.18C122.527 253.753 122.607 253.287 122.607 252.78C122.607 252.287 122.527 251.827 122.367 251.4C122.207 250.96 121.987 250.58 121.707 250.26C121.427 249.94 121.093 249.693 120.707 249.52C120.333 249.333 119.927 249.24 119.487 249.24C119.06 249.24 118.653 249.333 118.267 249.52C117.893 249.707 117.567 249.96 117.287 250.28C117.007 250.6 116.78 250.98 116.607 251.42C116.447 251.847 116.367 252.307 116.367 252.8ZM129.387 258L125.387 247.54H127.647L130.647 256.14L133.667 247.54H135.747L131.747 258H129.387ZM141.695 258.2C140.881 258.2 140.141 258.06 139.475 257.78C138.808 257.487 138.235 257.093 137.755 256.6C137.288 256.107 136.921 255.533 136.655 254.88C136.401 254.227 136.275 253.533 136.275 252.8C136.275 252.067 136.401 251.373 136.655 250.72C136.921 250.053 137.288 249.473 137.755 248.98C138.235 248.473 138.808 248.08 139.475 247.8C140.141 247.507 140.888 247.36 141.715 247.36C142.528 247.36 143.261 247.507 143.915 247.8C144.581 248.093 145.148 248.487 145.615 248.98C146.081 249.46 146.435 250.027 146.675 250.68C146.928 251.32 147.055 251.993 147.055 252.7C147.055 252.86 147.048 253.013 147.035 253.16C147.021 253.293 147.008 253.407 146.995 253.5H138.615C138.655 253.967 138.761 254.387 138.935 254.76C139.121 255.133 139.355 255.46 139.635 255.74C139.928 256.007 140.255 256.213 140.615 256.36C140.988 256.507 141.375 256.58 141.775 256.58C142.068 256.58 142.355 256.547 142.635 256.48C142.928 256.4 143.195 256.293 143.435 256.16C143.675 256.013 143.888 255.84 144.075 255.64C144.261 255.44 144.408 255.22 144.515 254.98L146.395 255.52C146.035 256.307 145.435 256.953 144.595 257.46C143.768 257.953 142.801 258.2 141.695 258.2ZM144.875 251.98C144.835 251.54 144.721 251.133 144.535 250.76C144.361 250.387 144.135 250.073 143.855 249.82C143.575 249.553 143.248 249.347 142.875 249.2C142.501 249.053 142.108 248.98 141.695 248.98C141.281 248.98 140.888 249.053 140.515 249.2C140.155 249.347 139.835 249.553 139.555 249.82C139.275 250.073 139.048 250.387 138.875 250.76C138.701 251.133 138.595 251.54 138.555 251.98H144.875ZM156.571 258.2C156.064 258.2 155.591 258.12 155.151 257.96C154.724 257.787 154.351 257.553 154.031 257.26C153.724 256.967 153.477 256.62 153.291 256.22C153.117 255.82 153.031 255.387 153.031 254.92C153.031 254.427 153.137 253.98 153.351 253.58C153.564 253.18 153.864 252.833 154.251 252.54C154.651 252.247 155.117 252.02 155.651 251.86C156.197 251.7 156.797 251.62 157.451 251.62C157.944 251.62 158.431 251.667 158.911 251.76C159.391 251.84 159.824 251.953 160.211 252.1V251.38C160.211 250.607 159.991 250.007 159.551 249.58C159.111 249.14 158.477 248.92 157.651 248.92C157.091 248.92 156.537 249.027 155.991 249.24C155.457 249.44 154.904 249.733 154.331 250.12L153.651 248.72C154.997 247.813 156.397 247.36 157.851 247.36C159.291 247.36 160.411 247.727 161.211 248.46C162.011 249.193 162.411 250.247 162.411 251.62V255.4C162.411 255.867 162.604 256.107 162.991 256.12V258C162.777 258.04 162.591 258.067 162.431 258.08C162.284 258.093 162.137 258.1 161.991 258.1C161.564 258.1 161.231 257.993 160.991 257.78C160.764 257.567 160.624 257.293 160.571 256.96L160.511 256.3C160.044 256.913 159.464 257.387 158.771 257.72C158.091 258.04 157.357 258.2 156.571 258.2ZM157.171 256.58C157.704 256.58 158.204 256.487 158.671 256.3C159.151 256.1 159.524 255.827 159.791 255.48C160.071 255.24 160.211 254.987 160.211 254.72V253.34C159.837 253.193 159.437 253.08 159.011 253C158.597 252.92 158.191 252.88 157.791 252.88C157.004 252.88 156.357 253.053 155.851 253.4C155.357 253.733 155.111 254.18 155.111 254.74C155.111 255.26 155.304 255.7 155.691 256.06C156.077 256.407 156.571 256.58 157.171 256.58ZM174.46 258H172.26V252.14C172.26 251.153 172.1 250.44 171.78 250C171.473 249.547 171.013 249.32 170.4 249.32C170.08 249.32 169.76 249.38 169.44 249.5C169.12 249.62 168.82 249.793 168.54 250.02C168.26 250.233 168.006 250.493 167.78 250.8C167.566 251.093 167.4 251.42 167.28 251.78V258H165.08V247.54H167.08V249.64C167.48 248.933 168.06 248.38 168.82 247.98C169.58 247.567 170.42 247.36 171.34 247.36C171.966 247.36 172.48 247.473 172.88 247.7C173.28 247.927 173.593 248.24 173.82 248.64C174.06 249.027 174.226 249.48 174.32 250C174.413 250.507 174.46 251.047 174.46 251.62V258ZM181.273 258.2C180.567 258.2 179.913 258.06 179.313 257.78C178.713 257.487 178.193 257.093 177.753 256.6C177.313 256.107 176.967 255.533 176.713 254.88C176.473 254.213 176.353 253.5 176.353 252.74C176.353 252.007 176.467 251.32 176.693 250.68C176.933 250.027 177.26 249.453 177.673 248.96C178.1 248.467 178.593 248.08 179.153 247.8C179.727 247.507 180.353 247.36 181.033 247.36C181.873 247.36 182.613 247.567 183.253 247.98C183.893 248.38 184.393 248.893 184.753 249.52V243.4H186.953V255.4C186.953 255.653 186.993 255.833 187.073 255.94C187.167 256.047 187.327 256.107 187.553 256.12V258C187.327 258.04 187.14 258.067 186.993 258.08C186.86 258.093 186.747 258.1 186.653 258.1C186.213 258.1 185.853 257.987 185.573 257.76C185.293 257.533 185.14 257.24 185.113 256.88L185.073 256.1C184.687 256.753 184.16 257.267 183.493 257.64C182.827 258.013 182.087 258.2 181.273 258.2ZM181.813 256.32C182.133 256.32 182.453 256.267 182.773 256.16C183.093 256.053 183.387 255.907 183.653 255.72C183.92 255.533 184.147 255.313 184.333 255.06C184.533 254.807 184.673 254.533 184.753 254.24V251.5C184.633 251.167 184.46 250.86 184.233 250.58C184.02 250.3 183.773 250.06 183.493 249.86C183.213 249.66 182.913 249.507 182.593 249.4C182.287 249.293 181.973 249.24 181.653 249.24C181.213 249.24 180.807 249.34 180.433 249.54C180.073 249.74 179.76 250.007 179.493 250.34C179.227 250.673 179.013 251.053 178.853 251.48C178.707 251.907 178.633 252.347 178.633 252.8C178.633 253.28 178.713 253.733 178.873 254.16C179.047 254.587 179.28 254.96 179.573 255.28C179.867 255.6 180.2 255.853 180.573 256.04C180.96 256.227 181.373 256.32 181.813 256.32ZM210.689 258H208.489V252.14C208.489 251.167 208.329 250.453 208.009 250C207.689 249.547 207.222 249.32 206.609 249.32C205.982 249.32 205.409 249.553 204.889 250.02C204.382 250.473 204.016 251.067 203.789 251.8V258H201.589V252.14C201.589 251.153 201.429 250.44 201.109 250C200.789 249.547 200.329 249.32 199.729 249.32C199.102 249.32 198.529 249.547 198.009 250C197.489 250.453 197.116 251.047 196.889 251.78V258H194.689V247.54H196.689V249.64C197.102 248.907 197.642 248.347 198.309 247.96C198.989 247.56 199.762 247.36 200.629 247.36C201.496 247.36 202.176 247.587 202.669 248.04C203.176 248.493 203.489 249.06 203.609 249.74C204.049 248.967 204.602 248.38 205.269 247.98C205.936 247.567 206.696 247.36 207.549 247.36C208.162 247.36 208.669 247.48 209.069 247.72C209.482 247.947 209.809 248.253 210.049 248.64C210.289 249.027 210.456 249.48 210.549 250C210.642 250.507 210.689 251.047 210.689 251.62V258ZM217.924 258.2C217.098 258.2 216.351 258.053 215.684 257.76C215.031 257.467 214.471 257.073 214.004 256.58C213.538 256.087 213.178 255.513 212.924 254.86C212.671 254.193 212.544 253.5 212.544 252.78C212.544 252.06 212.671 251.373 212.924 250.72C213.178 250.053 213.538 249.473 214.004 248.98C214.484 248.487 215.051 248.093 215.704 247.8C216.371 247.507 217.111 247.36 217.924 247.36C218.738 247.36 219.471 247.507 220.124 247.8C220.791 248.093 221.358 248.487 221.824 248.98C222.304 249.473 222.671 250.053 222.924 250.72C223.178 251.373 223.304 252.06 223.304 252.78C223.304 253.5 223.178 254.193 222.924 254.86C222.671 255.513 222.304 256.087 221.824 256.58C221.358 257.073 220.791 257.467 220.124 257.76C219.471 258.053 218.738 258.2 217.924 258.2ZM214.804 252.8C214.804 253.307 214.884 253.773 215.044 254.2C215.204 254.627 215.424 255 215.704 255.32C215.984 255.627 216.311 255.873 216.684 256.06C217.071 256.233 217.484 256.32 217.924 256.32C218.364 256.32 218.771 256.233 219.144 256.06C219.531 255.873 219.864 255.62 220.144 255.3C220.424 254.98 220.644 254.607 220.804 254.18C220.964 253.753 221.044 253.287 221.044 252.78C221.044 252.287 220.964 251.827 220.804 251.4C220.644 250.96 220.424 250.58 220.144 250.26C219.864 249.94 219.531 249.693 219.144 249.52C218.771 249.333 218.364 249.24 217.924 249.24C217.498 249.24 217.091 249.333 216.704 249.52C216.331 249.707 216.004 249.96 215.724 250.28C215.444 250.6 215.218 250.98 215.044 251.42C214.884 251.847 214.804 252.307 214.804 252.8ZM231.136 249.44C230.282 249.467 229.522 249.667 228.856 250.04C228.202 250.4 227.736 250.92 227.456 251.6V258H225.256V247.54H227.296V249.88C227.656 249.16 228.122 248.587 228.696 248.16C229.282 247.72 229.909 247.48 230.576 247.44C230.709 247.44 230.816 247.44 230.896 247.44C230.989 247.44 231.069 247.447 231.136 247.46V249.44ZM236.949 258.2C236.135 258.2 235.395 258.06 234.729 257.78C234.062 257.487 233.489 257.093 233.009 256.6C232.542 256.107 232.175 255.533 231.909 254.88C231.655 254.227 231.529 253.533 231.529 252.8C231.529 252.067 231.655 251.373 231.909 250.72C232.175 250.053 232.542 249.473 233.009 248.98C233.489 248.473 234.062 248.08 234.729 247.8C235.395 247.507 236.142 247.36 236.969 247.36C237.782 247.36 238.515 247.507 239.169 247.8C239.835 248.093 240.402 248.487 240.869 248.98C241.335 249.46 241.689 250.027 241.929 250.68C242.182 251.32 242.309 251.993 242.309 252.7C242.309 252.86 242.302 253.013 242.289 253.16C242.275 253.293 242.262 253.407 242.249 253.5H233.869C233.909 253.967 234.015 254.387 234.189 254.76C234.375 255.133 234.609 255.46 234.889 255.74C235.182 256.007 235.509 256.213 235.869 256.36C236.242 256.507 236.629 256.58 237.029 256.58C237.322 256.58 237.609 256.547 237.889 256.48C238.182 256.4 238.449 256.293 238.689 256.16C238.929 256.013 239.142 255.84 239.329 255.64C239.515 255.44 239.662 255.22 239.769 254.98L241.649 255.52C241.289 256.307 240.689 256.953 239.849 257.46C239.022 257.953 238.055 258.2 236.949 258.2ZM240.129 251.98C240.089 251.54 239.975 251.133 239.789 250.76C239.615 250.387 239.389 250.073 239.109 249.82C238.829 249.553 238.502 249.347 238.129 249.2C237.755 249.053 237.362 248.98 236.949 248.98C236.535 248.98 236.142 249.053 235.769 249.2C235.409 249.347 235.089 249.553 234.809 249.82C234.529 250.073 234.302 250.387 234.129 250.76C233.955 251.133 233.849 251.54 233.809 251.98H240.129Z" fill="white"/>
<path d="M98.535 111.512V127H46.567V111.512H64.743V72.728C63.975 73.752 62.7803 74.8187 61.159 75.928C59.5377 76.952 57.703 77.9333 55.655 78.872C53.607 79.8107 51.559 80.5787 49.511 81.176C47.463 81.7733 45.6283 82.072 44.007 82.072V66.072C45.543 66.072 47.3777 65.6027 49.511 64.664C51.7297 63.64 53.9057 62.4453 56.039 61.08C58.2577 59.7147 60.135 58.392 61.671 57.112C63.2923 55.7467 64.3163 54.68 64.743 53.912H82.279V111.512H98.535Z" fill="white"/>
<path opacity="0.8" d="M0 344.835C47.6859 345.121 47.8188 331.132 95.4734 331.394C143.128 331.657 124.773 339.474 172.427 339.753C220.082 340.033 238.578 320.968 286.233 321.254C333.887 321.539 319.73 347.953 381.26 348.318C442.791 348.683 430.439 332.599 478.094 332.902C525.749 333.204 524.216 352.766 571.863 353.046C619.51 353.326 604.548 319.626 667.555 320.003C730.563 320.38 694.736 346.839 762.575 347.861C830.414 348.883 809.8 333.907 857.463 334.203C896.463 334.443 904.367 348.918 952.053 349.203C999.738 349.489 1001.01 338.383 1048.68 338.668C1096.35 338.954 1096.37 340.187 1144 340.467" stroke="url(#paint1_linear_10205_7988)" stroke-width="1.5" stroke-miterlimit="10"/>
<path opacity="0.6" d="M60.9126 352.332C104.447 352.474 104.526 339.77 148.053 339.93C191.173 340.073 175.148 347.153 217.197 347.427H219.863C262.303 347.176 276.554 331.063 319.581 331.2C341.884 331.274 349.287 337.578 358.848 343.539C367.971 349.214 379.095 355.078 406.534 355.169C462.725 355.352 451.413 340.569 494.948 340.712C538.483 340.855 537.052 358.167 580.611 358.31C604.008 358.39 613.772 349.391 624.067 341.306C632.901 334.346 643.892 329.315 670.51 329.413C701.78 329.515 709.136 335.179 716.906 341.837C723.418 347.455 728.914 353.371 757.252 353.702C816.992 354.427 805.242 342.1 844.024 341.477C847.151 341.42 850.278 341.477 853.483 341.586C888.435 342.905 889.193 353.508 930.453 353.639C973.996 353.782 975.129 344.886 1018.66 345.029C1062.2 345.172 1062.19 345.337 1105.73 345.48" stroke="url(#paint2_linear_10205_7988)" stroke-miterlimit="10"/>
<path opacity="0.4" d="M121.834 359.829C161.233 359.829 161.233 348.472 200.633 348.472C240.032 348.472 224.921 355.113 264.329 355.113C303.736 355.113 313.531 341.152 352.931 341.152C373.256 341.152 379.775 346.862 388.562 351.938C396.817 356.734 407.097 362.016 431.737 362.016C482.605 362.016 472.333 348.547 511.732 348.547C551.132 348.547 549.952 363.598 589.351 363.598C609.496 363.598 621.965 356.061 630.494 349.083C638.647 342.403 647.997 338.806 673.489 338.806C699.943 338.806 711.013 341.386 717.266 347.073C723.372 352.583 724.302 359.298 751.929 359.527C808.026 359.989 799.786 348.529 839.186 348.529C878.585 348.529 869.509 358.059 908.917 358.059C948.324 358.059 949.293 351.379 988.701 351.379C1028.11 351.379 1028.11 350.477 1067.52 350.477" stroke="url(#paint3_linear_10205_7988)" stroke-width="0.8" stroke-miterlimit="10"/>
</g>
<defs>
<linearGradient id="paint0_linear_10205_7988" x1="117.665" y1="83" x2="265.053" y2="83" gradientUnits="userSpaceOnUse">
<stop stop-color="#BF5AF2"/>
<stop offset="1" stop-color="#7B5AFF"/>
</linearGradient>
<linearGradient id="paint1_linear_10205_7988" x1="-107.087" y1="320" x2="-61.3121" y2="584.346" gradientUnits="userSpaceOnUse">
<stop stop-color="#1A307C"/>
<stop offset="0.0001" stop-color="#324C94"/>
<stop offset="0.130208" stop-color="#D3D3D3"/>
</linearGradient>
<linearGradient id="paint2_linear_10205_7988" x1="-36.8903" y1="329.411" x2="1.52974" y2="561.137" gradientUnits="userSpaceOnUse">
<stop stop-color="#1A307C"/>
<stop offset="0.0001" stop-color="#324C94"/>
<stop offset="0.130208" stop-color="#D3D3D3"/>
</linearGradient>
<linearGradient id="paint3_linear_10205_7988" x1="33.3113" y1="338.806" x2="64.636" y2="538.14" gradientUnits="userSpaceOnUse">
<stop stop-color="#1A307C"/>
<stop offset="0.0001" stop-color="#324C94"/>
<stop offset="0.130208" stop-color="#D3D3D3"/>
</linearGradient>
<clipPath id="clip0_10205_7988">
<rect width="368" height="395" rx="12" fill="white"/>
</clipPath>
</defs>
</svg>
