<svg width="199" height="19" viewBox="0 0 199 19" fill="none" xmlns="http://www.w3.org/2000/svg">
<path d="M1.93713 18.392C2.3676 18.392 2.66513 18.3477 2.82972 18.2591C2.89303 18.2211 2.95633 18.1515 3.01964 18.0502C3.0956 17.9616 3.19056 17.7906 3.30451 17.5374C3.41846 17.2969 3.57039 16.955 3.7603 16.5119C3.95022 16.0814 4.19711 15.5053 4.50097 14.7837L-9.22145e-09 4.90812L0.683692 4.90812L4.84282 14.1L8.75505 4.90812L9.40076 4.90812L3.7603 18.1262C3.58305 18.5566 3.23487 18.8288 2.71578 18.9428C2.58917 18.9681 2.46256 18.9808 2.33595 18.9808C2.20934 18.9934 2.0764 18.9998 1.93713 18.9998L1.93713 18.392Z" fill="white"/>
<path d="M14.7556 14.9736C14.0846 14.9736 13.4579 14.8406 12.8755 14.5748C12.3057 14.2962 11.8056 13.9291 11.3752 13.4733C10.9447 13.0048 10.6092 12.4604 10.3686 11.84C10.1281 11.2196 10.0078 10.5676 10.0078 9.88388C10.0078 9.18753 10.1281 8.52916 10.3686 7.90877C10.6218 7.28838 10.9637 6.74396 11.3941 6.27551C11.8246 5.80705 12.3247 5.43988 12.8945 5.174C13.4769 4.89546 14.0973 4.75619 14.7556 4.75619C15.414 4.75619 16.0344 4.89546 16.6168 5.174C17.1992 5.43988 17.7056 5.80705 18.1361 6.27551C18.5666 6.74396 18.9021 7.28838 19.1427 7.90877C19.3959 8.52916 19.5225 9.18753 19.5225 9.88388C19.5225 10.5676 19.3959 11.2196 19.1427 11.84C18.9021 12.4604 18.5666 13.0048 18.1361 13.4733C17.7183 13.9291 17.2182 14.2962 16.6358 14.5748C16.0534 14.8406 15.4267 14.9736 14.7556 14.9736ZM10.6535 9.90287C10.6535 10.5106 10.7611 11.0867 10.9763 11.6311C11.1916 12.1755 11.4828 12.6503 11.8499 13.0555C12.2171 13.4606 12.6476 13.7835 13.1414 14.024C13.6478 14.2519 14.1796 14.3659 14.7366 14.3659C15.3064 14.3659 15.8381 14.2456 16.3319 14.005C16.8384 13.7645 17.2752 13.4416 17.6423 13.0365C18.0222 12.6313 18.3197 12.1565 18.5349 11.6121C18.7502 11.055 18.8578 10.4726 18.8578 9.86489C18.8578 9.25716 18.7502 8.68109 18.5349 8.13667C18.3197 7.57959 18.0222 7.09847 17.6423 6.69332C17.2752 6.28817 16.8384 5.96531 16.3319 5.72476C15.8381 5.4842 15.3127 5.36392 14.7556 5.36392C14.1986 5.36392 13.6731 5.4842 13.1793 5.72476C12.6856 5.96531 12.2488 6.2945 11.8689 6.71231C11.5018 7.11746 11.2042 7.59858 10.9763 8.15566C10.7611 8.70008 10.6535 9.28249 10.6535 9.90287Z" fill="white"/>
<path d="M24.5993 14.9736C23.5611 14.9736 22.7761 14.6001 22.2444 13.8531C21.7126 13.1061 21.4467 11.9983 21.4467 10.5296L21.4467 4.90812L22.0924 4.90812L22.0924 10.4536C22.0924 13.0618 22.9724 14.3659 24.7322 14.3659C25.1754 14.3659 25.6122 14.2899 26.0427 14.138C26.4731 13.9734 26.8656 13.7518 27.2201 13.4733C27.5873 13.1947 27.9038 12.8592 28.1697 12.4667C28.4482 12.0742 28.6635 11.6438 28.8154 11.1753L28.8154 4.90812L29.4611 4.90812L29.4611 13.7581C29.4611 14.0367 29.5751 14.1759 29.803 14.1759L29.803 14.7837C29.7523 14.7963 29.689 14.8027 29.6131 14.8027C29.4105 14.8027 29.2332 14.7267 29.0813 14.5748C28.9294 14.4102 28.8534 14.2139 28.8534 13.986L28.8534 12.3528C28.4229 13.1631 27.8279 13.8024 27.0682 14.2709C26.3085 14.7394 25.4856 14.9736 24.5993 14.9736Z" fill="white"/>
<path d="M39.18 14.9736C38.7242 14.9736 38.3001 14.8976 37.9076 14.7457C37.5151 14.5811 37.1733 14.3659 36.8821 14.1C36.5909 13.8214 36.363 13.4986 36.1984 13.1314C36.0338 12.7642 35.9515 12.3654 35.9515 11.935C35.9515 11.5171 36.0528 11.1373 36.2554 10.7955C36.4579 10.441 36.7365 10.1371 37.091 9.88388C37.4581 9.63066 37.8886 9.43442 38.3824 9.29515C38.8888 9.15588 39.4396 9.08624 40.0347 9.08624C40.5917 9.08624 41.1488 9.13055 41.7059 9.21918C42.2756 9.30781 42.7884 9.44075 43.2442 9.618L43.2442 8.55448C43.2442 7.56692 42.9593 6.78195 42.3896 6.19954C41.8325 5.60448 41.0792 5.30694 40.1296 5.30694C39.6485 5.30694 39.1357 5.41456 38.5913 5.6298C38.0469 5.83237 37.5025 6.12991 36.958 6.5224L36.6542 6.04761C37.9203 5.18667 39.0914 4.75619 40.1676 4.75619C41.3197 4.75619 42.225 5.09804 42.8834 5.78173C43.5544 6.46542 43.8899 7.40233 43.8899 8.59246L43.8899 13.7581C43.8899 14.0367 44.0039 14.1759 44.2318 14.1759L44.2318 14.7837C44.1938 14.7963 44.1558 14.8027 44.1178 14.8027C44.0925 14.8027 44.0672 14.8027 44.0419 14.8027C43.8266 14.8027 43.643 14.7267 43.4911 14.5748C43.3518 14.4102 43.2822 14.2139 43.2822 13.986L43.2822 13.1124C42.8264 13.7075 42.2377 14.1696 41.516 14.4988C40.7943 14.8153 40.0157 14.9736 39.18 14.9736ZM39.256 14.4228C39.7245 14.4228 40.1929 14.3595 40.6614 14.2329C41.1425 14.1063 41.573 13.9354 41.9528 13.7202C42.3326 13.4923 42.6428 13.2327 42.8834 12.9415C43.1239 12.6503 43.2442 12.3401 43.2442 12.0109L43.2442 10.1498C42.2567 9.76993 41.2058 9.58002 40.0916 9.58002C39.5725 9.58002 39.0977 9.63699 38.6673 9.75094C38.2368 9.86489 37.8633 10.0232 37.5468 10.2257C37.2429 10.4283 37.0024 10.6752 36.8251 10.9664C36.6605 11.2449 36.5782 11.5615 36.5782 11.916C36.5782 12.2705 36.6478 12.5997 36.7871 12.9035C36.9264 13.2074 37.1163 13.4733 37.3569 13.7012C37.5974 13.9291 37.876 14.1063 38.1925 14.2329C38.5217 14.3595 38.8762 14.4228 39.256 14.4228Z" fill="white"/>
<path d="M50.9306 5.51585C50.019 5.55383 49.2277 5.84503 48.5566 6.38946C47.8856 6.92122 47.4172 7.64922 47.1513 8.57347L47.1513 14.7837L46.5056 14.7837L46.5056 4.90812L47.1323 4.90812L47.1323 7.41499C47.4741 6.71864 47.9299 6.1489 48.4997 5.70576C49.0694 5.26263 49.6771 5.00308 50.3228 4.92711C50.4495 4.91445 50.5634 4.90812 50.6647 4.90812C50.7786 4.90812 50.8673 4.90812 50.9306 4.90812L50.9306 5.51585Z" fill="white"/>
<path d="M56.042 14.9736C55.3709 14.9736 54.7442 14.8406 54.1618 14.5748C53.5794 14.2962 53.0666 13.9227 52.6235 13.4543C52.193 12.9732 51.8512 12.4224 51.598 11.802C51.3574 11.169 51.2371 10.4979 51.2371 9.78892C51.2371 9.09257 51.3574 8.44053 51.598 7.8328C51.8385 7.22508 52.174 6.69332 52.6045 6.23752C53.035 5.78173 53.5351 5.42089 54.1048 5.15501C54.6746 4.88913 55.295 4.75619 55.966 4.75619C56.6497 4.75619 57.2827 4.88913 57.8651 5.15501C58.4476 5.42089 58.954 5.78806 59.3845 6.25652C59.8149 6.71231 60.1505 7.2504 60.391 7.87079C60.6442 8.49117 60.7708 9.14954 60.7708 9.8459C60.7708 9.87122 60.7708 9.92186 60.7708 9.99783C60.7708 10.0738 60.7645 10.1181 60.7518 10.1308L51.9018 10.1308C51.9525 10.7385 52.0918 11.3082 52.3196 11.84C52.5602 12.3591 52.8641 12.8086 53.2312 13.1884C53.6111 13.5682 54.0415 13.8721 54.5227 14.1C55.0164 14.3152 55.5355 14.4228 56.08 14.4228C56.4345 14.4228 56.7826 14.3785 57.1245 14.2899C57.479 14.1886 57.8082 14.0493 58.112 13.8721C58.4159 13.6948 58.6818 13.4859 58.9097 13.2454C59.1376 12.9921 59.3212 12.7199 59.4604 12.4287L60.0492 12.5807C59.9099 12.9225 59.7073 13.2454 59.4414 13.5492C59.1756 13.8404 58.859 14.0936 58.4919 14.3089C58.1374 14.5115 57.7512 14.6697 57.3334 14.7837C56.9156 14.9103 56.4851 14.9736 56.042 14.9736ZM60.1251 9.58002C60.0871 8.95963 59.9542 8.38989 59.7263 7.87079C59.4984 7.35169 59.1946 6.90222 58.8147 6.5224C58.4476 6.14257 58.0234 5.85137 57.5423 5.64879C57.0612 5.43355 56.5421 5.32594 55.985 5.32594C55.4279 5.32594 54.9088 5.43355 54.4277 5.64879C53.9466 5.86403 53.5224 6.16156 53.1553 6.54139C52.8008 6.92122 52.5096 7.37068 52.2817 7.88978C52.0664 8.40888 51.9398 8.97229 51.9018 9.58002L60.1251 9.58002Z" fill="white"/>
<path d="M79.1822 4.90812L79.8469 4.90812L75.5548 14.7837L75.0041 14.7837L72.6871 9.3901L70.3512 14.7837L69.8004 14.7837L65.5084 4.90812L66.1731 4.90812L70.1043 14.005L72.3263 8.82036L70.674 4.92711L71.2628 4.92711L72.6871 8.25062L74.0925 4.92711L74.7002 4.92711L73.029 8.82036L75.27 14.005L79.1822 4.90812Z" fill="white"/>
<path d="M89.3286 14.7837L88.6828 14.7837L88.6828 9.27615C88.6828 6.668 87.8156 5.36392 86.081 5.36392C85.6379 5.36392 85.2074 5.44621 84.7896 5.61081C84.3718 5.7754 83.9856 6.0033 83.6311 6.2945C83.2766 6.5857 82.9664 6.93388 82.7005 7.33903C82.4347 7.73152 82.2384 8.15566 82.1118 8.61145L82.1118 14.7837L81.4661 14.7837L81.4661 0.919922L82.1118 0.919922L82.1118 7.37701C82.3144 6.98452 82.5613 6.63001 82.8525 6.31349C83.1563 5.98431 83.4855 5.70576 83.84 5.47787C84.1945 5.24997 84.568 5.07272 84.9605 4.94611C85.3657 4.8195 85.7772 4.75619 86.195 4.75619C87.2585 4.75619 88.0435 5.14235 88.5499 5.91467C89.069 6.68699 89.3286 7.78216 89.3286 9.20019L89.3286 14.7837Z" fill="white"/>
<path d="M94.3379 14.9736C93.8821 14.9736 93.4579 14.8976 93.0654 14.7457C92.673 14.5811 92.3311 14.3659 92.0399 14.1C91.7487 13.8214 91.5208 13.4986 91.3562 13.1314C91.1916 12.7642 91.1093 12.3654 91.1093 11.935C91.1093 11.5171 91.2106 11.1373 91.4132 10.7955C91.6158 10.441 91.8943 10.1371 92.2488 9.88388C92.616 9.63066 93.0464 9.43442 93.5402 9.29515C94.0467 9.15588 94.5974 9.08624 95.1925 9.08624C95.7496 9.08624 96.3066 9.13055 96.8637 9.21918C97.4335 9.30781 97.9462 9.44075 98.402 9.618L98.402 8.55448C98.402 7.56692 98.1172 6.78195 97.5474 6.19954C96.9903 5.60448 96.237 5.30694 95.2874 5.30694C94.8063 5.30694 94.2936 5.41456 93.7491 5.6298C93.2047 5.83237 92.6603 6.12991 92.1159 6.5224L91.812 6.04761C93.0781 5.18667 94.2492 4.75619 95.3254 4.75619C96.4776 4.75619 97.3828 5.09804 98.0412 5.78173C98.7122 6.46542 99.0477 7.40233 99.0477 8.59246L99.0477 13.7581C99.0477 14.0367 99.1617 14.1759 99.3896 14.1759L99.3896 14.7837C99.3516 14.7963 99.3136 14.8027 99.2756 14.8027C99.2503 14.8027 99.225 14.8027 99.1997 14.8027C98.9844 14.8027 98.8008 14.7267 98.6489 14.5748C98.5097 14.4102 98.44 14.2139 98.44 13.986L98.44 13.1124C97.9842 13.7075 97.3955 14.1696 96.6738 14.4988C95.9521 14.8153 95.1735 14.9736 94.3379 14.9736ZM94.4138 14.4228C94.8823 14.4228 95.3507 14.3595 95.8192 14.2329C96.3003 14.1063 96.7308 13.9354 97.1106 13.7202C97.4904 13.4923 97.8006 13.2327 98.0412 12.9415C98.2818 12.6503 98.402 12.3401 98.402 12.0109L98.402 10.1498C97.4145 9.76993 96.3636 9.58002 95.2495 9.58002C94.7304 9.58002 94.2556 9.63699 93.8251 9.75094C93.3946 9.86489 93.0211 10.0232 92.7046 10.2257C92.4007 10.4283 92.1602 10.6752 91.9829 10.9664C91.8183 11.2449 91.736 11.5615 91.736 11.916C91.736 12.2705 91.8057 12.5997 91.9449 12.9035C92.0842 13.2074 92.2741 13.4733 92.5147 13.7012C92.7552 13.9291 93.0338 14.1063 93.3503 14.2329C93.6795 14.3595 94.034 14.4228 94.4138 14.4228Z" fill="white"/>
<path d="M105.691 14.3279C105.666 14.3405 105.603 14.3785 105.501 14.4418C105.4 14.4925 105.261 14.5558 105.084 14.6317C104.919 14.695 104.723 14.752 104.495 14.8027C104.28 14.8533 104.039 14.8786 103.773 14.8786C103.279 14.8786 102.849 14.7394 102.482 14.4608C102.127 14.1696 101.95 13.7645 101.95 13.2454L101.95 5.47787L100.545 5.47787L100.545 4.90812L101.95 4.90812L101.95 1.50866L102.596 1.50866L102.596 4.90812L104.932 4.90812L104.932 5.47787L102.596 5.47787L102.596 13.1504C102.621 13.5176 102.76 13.7961 103.014 13.986C103.267 14.1759 103.558 14.2709 103.887 14.2709C104.09 14.2709 104.28 14.2519 104.457 14.2139C104.647 14.1633 104.811 14.1126 104.951 14.062C105.09 13.9987 105.204 13.9417 105.293 13.8911C105.381 13.8404 105.432 13.8088 105.444 13.7961L105.691 14.3279Z" fill="white"/>
<path d="M111.845 18.392C112.275 18.392 112.573 18.3477 112.738 18.2591C112.801 18.2211 112.864 18.1515 112.927 18.0502C113.003 17.9616 113.098 17.7906 113.212 17.5374C113.326 17.2969 113.478 16.955 113.668 16.5119C113.858 16.0814 114.105 15.5053 114.409 14.7837L109.908 4.90812L110.592 4.90812L114.751 14.1L118.663 4.90812L119.309 4.90812L113.668 18.1262C113.491 18.5566 113.143 18.8288 112.624 18.9428C112.497 18.9681 112.37 18.9808 112.244 18.9808C112.117 18.9934 111.984 18.9998 111.845 18.9998L111.845 18.392Z" fill="white"/>
<path d="M124.663 14.9736C123.992 14.9736 123.366 14.8406 122.783 14.5748C122.214 14.2962 121.713 13.9291 121.283 13.4733C120.852 13.0048 120.517 12.4604 120.276 11.84C120.036 11.2196 119.916 10.5676 119.916 9.88388C119.916 9.18753 120.036 8.52916 120.276 7.90877C120.53 7.28838 120.871 6.74396 121.302 6.27551C121.732 5.80705 122.233 5.43988 122.802 5.174C123.385 4.89546 124.005 4.75619 124.663 4.75619C125.322 4.75619 125.942 4.89546 126.525 5.174C127.107 5.43988 127.613 5.80705 128.044 6.27551C128.474 6.74396 128.81 7.28838 129.05 7.90877C129.304 8.52916 129.43 9.18753 129.43 9.88388C129.43 10.5676 129.304 11.2196 129.05 11.84C128.81 12.4604 128.474 13.0048 128.044 13.4733C127.626 13.9291 127.126 14.2962 126.544 14.5748C125.961 14.8406 125.334 14.9736 124.663 14.9736ZM120.561 9.90287C120.561 10.5106 120.669 11.0867 120.884 11.6311C121.099 12.1755 121.391 12.6503 121.758 13.0555C122.125 13.4606 122.555 13.7835 123.049 14.024C123.556 14.2519 124.087 14.3659 124.644 14.3659C125.214 14.3659 125.746 14.2456 126.24 14.005C126.746 13.7645 127.183 13.4416 127.55 13.0365C127.93 12.6313 128.228 12.1565 128.443 11.6121C128.658 11.055 128.766 10.4726 128.766 9.86489C128.766 9.25716 128.658 8.68109 128.443 8.13667C128.228 7.57959 127.93 7.09847 127.55 6.69332C127.183 6.28817 126.746 5.96531 126.24 5.72476C125.746 5.4842 125.221 5.36392 124.663 5.36392C124.106 5.36392 123.581 5.4842 123.087 5.72476C122.593 5.96531 122.157 6.2945 121.777 6.71231C121.41 7.11746 121.112 7.59858 120.884 8.15566C120.669 8.70008 120.561 9.28249 120.561 9.90287Z" fill="white"/>
<path d="M134.507 14.9736C133.469 14.9736 132.684 14.6001 132.152 13.8531C131.62 13.1061 131.355 11.9983 131.355 10.5296L131.355 4.90812L132 4.90812L132 10.4536C132 13.0618 132.88 14.3659 134.64 14.3659C135.083 14.3659 135.52 14.2899 135.95 14.138C136.381 13.9734 136.773 13.7518 137.128 13.4733C137.495 13.1947 137.812 12.8592 138.078 12.4667C138.356 12.0742 138.571 11.6438 138.723 11.1753L138.723 4.90812L139.369 4.90812L139.369 13.7581C139.369 14.0367 139.483 14.1759 139.711 14.1759L139.711 14.7837C139.66 14.7963 139.597 14.8027 139.521 14.8027C139.318 14.8027 139.141 14.7267 138.989 14.5748C138.837 14.4102 138.761 14.2139 138.761 13.986L138.761 12.3528C138.331 13.1631 137.736 13.8024 136.976 14.2709C136.216 14.7394 135.393 14.9736 134.507 14.9736Z" fill="white"/>
<path d="M151.12 5.51585C150.208 5.55383 149.417 5.84503 148.746 6.38946C148.075 6.92122 147.607 7.64922 147.341 8.57347L147.341 14.7837L146.695 14.7837L146.695 4.90812L147.322 4.90812L147.322 7.41499C147.663 6.71864 148.119 6.1489 148.689 5.70576C149.259 5.26263 149.867 5.00308 150.512 4.92711C150.639 4.91445 150.753 4.90812 150.854 4.90812C150.968 4.90812 151.057 4.90812 151.12 4.90812L151.12 5.51585Z" fill="white"/>
<path d="M156.231 14.9736C155.56 14.9736 154.934 14.8406 154.351 14.5748C153.769 14.2962 153.256 13.9227 152.813 13.4543C152.382 12.9732 152.041 12.4224 151.787 11.802C151.547 11.169 151.426 10.4979 151.426 9.78892C151.426 9.09257 151.547 8.44053 151.787 7.83281C152.028 7.22508 152.363 6.69332 152.794 6.23752C153.224 5.78173 153.724 5.42089 154.294 5.15501C154.864 4.88913 155.484 4.75619 156.155 4.75619C156.839 4.75619 157.472 4.88913 158.055 5.15501C158.637 5.42089 159.143 5.78806 159.574 6.25652C160.004 6.71231 160.34 7.2504 160.58 7.87079C160.834 8.49118 160.96 9.14955 160.96 9.8459C160.96 9.87122 160.96 9.92186 160.96 9.99783C160.96 10.0738 160.954 10.1181 160.941 10.1308L152.091 10.1308C152.142 10.7385 152.281 11.3082 152.509 11.84C152.75 12.3591 153.053 12.8086 153.421 13.1884C153.8 13.5682 154.231 13.8721 154.712 14.1C155.206 14.3152 155.725 14.4228 156.269 14.4228C156.624 14.4228 156.972 14.3785 157.314 14.2899C157.668 14.1886 157.998 14.0493 158.301 13.8721C158.605 13.6948 158.871 13.4859 159.099 13.2454C159.327 12.9921 159.511 12.7199 159.65 12.4287L160.239 12.5807C160.099 12.9225 159.897 13.2454 159.631 13.5492C159.365 13.8404 159.048 14.0936 158.681 14.3089C158.327 14.5115 157.941 14.6697 157.523 14.7837C157.105 14.9103 156.674 14.9736 156.231 14.9736ZM160.314 9.58002C160.277 8.95963 160.144 8.38989 159.916 7.87079C159.688 7.35169 159.384 6.90222 159.004 6.5224C158.637 6.14257 158.213 5.85137 157.732 5.64879C157.251 5.43355 156.731 5.32594 156.174 5.32594C155.617 5.32594 155.098 5.43355 154.617 5.64879C154.136 5.86403 153.712 6.16156 153.345 6.54139C152.99 6.92122 152.699 7.37068 152.471 7.88978C152.256 8.40888 152.129 8.97229 152.091 9.58002L160.314 9.58002Z" fill="white"/>
<path d="M167.371 14.9736C166.94 14.9736 166.529 14.9103 166.136 14.7837C165.757 14.6571 165.396 14.4861 165.054 14.2709C164.725 14.0557 164.421 13.8024 164.142 13.5112C163.864 13.22 163.623 12.9099 163.421 12.5807L163.421 18.8288L162.775 18.8288L162.775 4.90812L163.383 4.90812L163.383 6.9592C163.585 6.64268 163.826 6.35147 164.104 6.08559C164.396 5.80705 164.706 5.57282 165.035 5.38291C165.377 5.18033 165.725 5.0284 166.079 4.92711C166.447 4.81317 166.82 4.75619 167.2 4.75619C167.884 4.75619 168.517 4.90179 169.099 5.193C169.681 5.4842 170.182 5.87036 170.599 6.35147C171.017 6.83259 171.34 7.38334 171.568 8.00373C171.809 8.61145 171.929 9.23184 171.929 9.86489C171.929 10.5486 171.815 11.2006 171.587 11.821C171.372 12.4414 171.062 12.9858 170.656 13.4543C170.264 13.9101 169.789 14.2772 169.232 14.5558C168.675 14.8343 168.055 14.9736 167.371 14.9736ZM167.276 14.3659C167.884 14.3659 168.434 14.2393 168.928 13.986C169.422 13.7202 169.84 13.3783 170.182 12.9605C170.536 12.53 170.808 12.0489 170.998 11.5171C171.188 10.9727 171.283 10.422 171.283 9.86489C171.283 9.28249 171.175 8.71907 170.96 8.17465C170.745 7.63023 170.447 7.14911 170.068 6.7313C169.688 6.31349 169.245 5.98431 168.738 5.74375C168.232 5.49053 167.687 5.36392 167.105 5.36392C166.738 5.36392 166.345 5.44621 165.928 5.61081C165.522 5.76274 165.136 5.97164 164.769 6.23752C164.415 6.49074 164.111 6.78828 163.857 7.13012C163.604 7.47197 163.459 7.83281 163.421 8.21263L163.421 11.6121C163.585 11.9919 163.8 12.3528 164.066 12.6946C164.345 13.0238 164.649 13.315 164.978 13.5682C165.307 13.8088 165.668 14.005 166.06 14.157C166.453 14.2962 166.858 14.3659 167.276 14.3659Z" fill="white"/>
<path d="M178.061 14.9736C177.39 14.9736 176.763 14.8406 176.181 14.5748C175.598 14.2962 175.085 13.9227 174.642 13.4543C174.212 12.9732 173.87 12.4224 173.617 11.802C173.376 11.169 173.256 10.4979 173.256 9.78892C173.256 9.09257 173.376 8.44053 173.617 7.83281C173.857 7.22508 174.193 6.69332 174.623 6.23752C175.054 5.78173 175.554 5.42089 176.124 5.15501C176.693 4.88913 177.314 4.75619 177.985 4.75619C178.668 4.75619 179.301 4.88913 179.884 5.15501C180.466 5.42089 180.973 5.78806 181.403 6.25652C181.834 6.71231 182.169 7.2504 182.41 7.87079C182.663 8.49118 182.79 9.14955 182.79 9.8459C182.79 9.87122 182.79 9.92186 182.79 9.99783C182.79 10.0738 182.783 10.1181 182.771 10.1308L173.921 10.1308C173.971 10.7385 174.11 11.3082 174.338 11.84C174.579 12.3591 174.883 12.8086 175.25 13.1884C175.63 13.5682 176.06 13.8721 176.541 14.1C177.035 14.3152 177.554 14.4228 178.099 14.4228C178.453 14.4228 178.801 14.3785 179.143 14.2899C179.498 14.1886 179.827 14.0493 180.131 13.8721C180.435 13.6948 180.701 13.4859 180.928 13.2454C181.156 12.9921 181.34 12.7199 181.479 12.4287L182.068 12.5807C181.929 12.9225 181.726 13.2454 181.46 13.5492C181.194 13.8404 180.878 14.0936 180.511 14.3089C180.156 14.5115 179.77 14.6697 179.352 14.7837C178.934 14.9103 178.504 14.9736 178.061 14.9736ZM182.144 9.58002C182.106 8.95963 181.973 8.38989 181.745 7.87079C181.517 7.35169 181.213 6.90222 180.833 6.5224C180.466 6.14257 180.042 5.85137 179.561 5.64879C179.08 5.43355 178.561 5.32594 178.004 5.32594C177.447 5.32594 176.928 5.43355 176.446 5.64879C175.965 5.86403 175.541 6.16156 175.174 6.54139C174.82 6.92122 174.528 7.37068 174.3 7.88978C174.085 8.40888 173.959 8.97229 173.921 9.58002L182.144 9.58002Z" fill="white"/>
<path d="M186.997 14.9736C186.541 14.9736 186.117 14.8976 185.725 14.7457C185.332 14.5811 184.991 14.3659 184.699 14.1C184.408 13.8214 184.18 13.4986 184.016 13.1314C183.851 12.7642 183.769 12.3654 183.769 11.935C183.769 11.5171 183.87 11.1373 184.073 10.7955C184.275 10.441 184.554 10.1371 184.908 9.88388C185.275 9.63066 185.706 9.43442 186.2 9.29515C186.706 9.15588 187.257 9.08624 187.852 9.08624C188.409 9.08624 188.966 9.13055 189.523 9.21918C190.093 9.30781 190.606 9.44075 191.061 9.618L191.061 8.55448C191.061 7.56693 190.777 6.78195 190.207 6.19954C189.65 5.60448 188.896 5.30694 187.947 5.30694C187.466 5.30694 186.953 5.41456 186.409 5.6298C185.864 5.83237 185.32 6.12991 184.775 6.5224L184.471 6.04761C185.737 5.18667 186.909 4.75619 187.985 4.75619C189.137 4.75619 190.042 5.09804 190.701 5.78173C191.372 6.46542 191.707 7.40233 191.707 8.59246L191.707 13.7581C191.707 14.0367 191.821 14.1759 192.049 14.1759L192.049 14.7837C192.011 14.7963 191.973 14.8027 191.935 14.8027C191.91 14.8027 191.884 14.8027 191.859 14.8027C191.644 14.8027 191.46 14.7267 191.308 14.5748C191.169 14.4102 191.099 14.2139 191.099 13.986L191.099 13.1124C190.644 13.7075 190.055 14.1696 189.333 14.4988C188.612 14.8153 187.833 14.9736 186.997 14.9736ZM187.073 14.4228C187.542 14.4228 188.01 14.3595 188.479 14.2329C188.96 14.1063 189.39 13.9354 189.77 13.7202C190.15 13.4923 190.46 13.2327 190.701 12.9415C190.941 12.6503 191.061 12.3401 191.061 12.0109L191.061 10.1498C190.074 9.76993 189.023 9.58002 187.909 9.58002C187.39 9.58002 186.915 9.63699 186.484 9.75094C186.054 9.86489 185.681 10.0232 185.364 10.2257C185.06 10.4283 184.82 10.6752 184.642 10.9664C184.478 11.2449 184.395 11.5615 184.395 11.916C184.395 12.2705 184.465 12.5997 184.604 12.9035C184.744 13.2074 184.934 13.4733 185.174 13.7012C185.415 13.9291 185.693 14.1063 186.01 14.2329C186.339 14.3595 186.693 14.4228 187.073 14.4228Z" fill="white"/>
<path d="M198.351 14.3279C198.325 14.3405 198.262 14.3785 198.161 14.4418C198.06 14.4925 197.92 14.5558 197.743 14.6317C197.578 14.695 197.382 14.752 197.154 14.8027C196.939 14.8533 196.698 14.8786 196.433 14.8786C195.939 14.8786 195.508 14.7394 195.141 14.4608C194.787 14.1696 194.609 13.7645 194.609 13.2454L194.609 5.47787L193.204 5.47787L193.204 4.90812L194.609 4.90812L194.609 1.50866L195.255 1.50866L195.255 4.90812L197.591 4.90812L197.591 5.47787L195.255 5.47787L195.255 13.1504C195.28 13.5176 195.42 13.7961 195.673 13.986C195.926 14.1759 196.217 14.2709 196.547 14.2709C196.749 14.2709 196.939 14.2519 197.116 14.2139C197.306 14.1633 197.471 14.1126 197.61 14.062C197.749 13.9987 197.863 13.9417 197.952 13.8911C198.041 13.8404 198.091 13.8088 198.104 13.7961L198.351 14.3279Z" fill="white"/>
</svg>
