<svg width="150" height="20" viewBox="0 0 150 20" fill="none" xmlns="http://www.w3.org/2000/svg">
<path d="M8.3752 1.89698e-08L10.005 2.27383e-08L18.1541 19.613L16.1099 19.613L13.5685 13.4805L4.75647 13.4805L2.24269 19.613L0.170898 19.613L8.3752 1.89698e-08ZM13.1265 11.9612L9.17629 2.26516L5.17083 11.9612L13.1265 11.9612Z" fill="white"/>
<path d="M20.9657 19.613L20.9657 4.80813e-08L33.8384 7.78454e-08L33.8384 1.71268L22.8993 1.71268L22.8993 8.92252L32.1257 8.92252L32.1257 10.5247L22.8993 10.5247L22.8993 19.613L20.9657 19.613Z" fill="white"/>
<path d="M37.2325 19.613L37.2325 8.56931e-08L50.1052 1.15457e-07L50.1052 1.71268L39.1661 1.71268L39.1661 8.92252L48.3925 8.92252L48.3925 10.5247L39.1661 10.5247L39.1661 19.613L37.2325 19.613Z" fill="white"/>
<path d="M53.4993 19.613L53.4993 1.23305e-07L55.433 1.27776e-07L55.433 19.613L53.4993 19.613Z" fill="white"/>
<path d="M60.3513 19.613L60.3513 1.39148e-07L68.6385 1.5831e-07C69.4856 1.60268e-07 70.2591 0.174952 70.9589 0.524854C71.6587 0.874757 72.2664 1.35357 72.7821 1.9613C73.3161 2.55061 73.7213 3.21358 73.9975 3.95022C74.2922 4.66844 74.4395 5.40508 74.4395 6.16013C74.4395 7.09935 74.2553 7.98331 73.887 8.81203C73.5371 9.64075 73.0307 10.3406 72.3677 10.9114C71.7232 11.4823 70.9589 11.8599 70.0749 12.044L74.8815 19.613L72.6992 19.613L68.086 12.3755L62.285 12.3755L62.285 19.613L60.3513 19.613ZM62.285 10.6628L68.6937 10.6628C69.4672 10.6628 70.1394 10.451 70.7103 10.0275C71.2812 9.60391 71.7232 9.05144 72.0362 8.37005C72.3493 7.67024 72.5058 6.9336 72.5058 6.16013C72.5058 5.36825 72.3217 4.64082 71.9534 3.97784C71.6034 3.29645 71.1246 2.75318 70.5169 2.34803C69.9276 1.92447 69.2646 1.71268 68.528 1.71268L62.285 1.71268L62.285 10.6628Z" fill="white"/>
<path d="M95.774 19.613L95.774 3.64636L88.6747 16.0495L87.4592 16.0495L80.3322 3.64636L80.3322 19.613L78.3986 19.613L78.3986 1.80877e-07L80.3875 1.85475e-07L88.0393 13.4252L95.7464 2.20988e-07L97.7077 2.25523e-07L97.7077 19.613L95.774 19.613Z" fill="white"/>
<path d="M108.701 2.50941e-07L110.331 2.54709e-07L118.48 19.613L116.435 19.613L113.894 13.4805L105.082 13.4805L102.568 19.613L100.496 19.613L108.701 2.50941e-07ZM113.452 11.9612L109.502 2.26516L105.496 11.9612L113.452 11.9612Z" fill="white"/>
<path d="M133.325 1.71268L126.336 1.71268L126.336 19.613L124.403 19.613L124.403 1.71268L117.414 1.71268L117.414 2.71087e-07L133.325 3.07877e-07L133.325 1.71268Z" fill="white"/>
<path d="M149.44 17.9003L149.44 19.613L136.263 19.613L136.263 3.1467e-07L149.191 3.44562e-07L149.191 1.71268L138.197 1.71268L138.197 8.7844L147.782 8.7844L147.782 10.4142L138.197 10.4142L138.197 17.9003L149.44 17.9003Z" fill="white"/>
</svg>
