<svg width="1920" height="1080" viewBox="0 0 1920 1080" fill="none" xmlns="http://www.w3.org/2000/svg">
<g clip-path="url(#clip0_6285_4535)">
<circle cx="743.726" cy="510.03" r="494.651" transform="rotate(173.361 743.726 510.03)" stroke="#B6B6B6" stroke-width="0.924126"/>
<circle cx="573.834" cy="586.878" r="494.651" transform="rotate(173.361 573.834 586.878)" stroke="#B6B6B6" stroke-width="0.924126"/>
<circle cx="348.586" cy="613.094" r="494.651" transform="rotate(173.361 348.586 613.094)" stroke="#B6B6B6" stroke-width="0.924126"/>
<path d="M546.297 376.857L636.687 604.967H672.55L565.455 334.621C561.624 325.54 555.444 321 546.929 321H545.649C536.276 321 529.89 325.546 526.486 334.621L419.401 604.973H455.907L546.297 376.857Z" fill="white"/>
<path d="M368.079 734.493C367.22 736.313 366.804 739.039 366.804 742.669C366.804 749.94 370.207 754.93 377.025 757.656C380.429 759.016 383.19 759.701 385.329 759.701C391.715 759.701 396.394 756.071 399.381 748.799L441.178 643.683H404.055L368.079 734.493Z" fill="white"/>
<path d="M687.88 643.677H652.043L693.839 748.794C696.395 756.066 700.647 759.696 706.611 759.696C709.588 759.696 712.36 759.016 714.915 757.65C722.149 754.02 725.774 749.255 725.774 743.343C725.774 740.618 725.137 737.668 723.856 734.487L687.88 643.672V643.677Z" fill="white"/>
<path d="M725.897 617.305V617.261C725.192 617.261 655.559 617.206 631.985 617.261C631.471 616.998 628.561 615.051 623.532 603.212C619.712 594.208 615.917 582.571 612.256 571.313C608.585 560.044 605.12 549.395 601.608 541.192C598.019 532.801 593.366 524.23 586.044 524.23C586.019 524.23 585.993 524.23 585.967 524.23C583.988 524.247 581.067 524.927 578.409 528.064C577.016 529.709 575.833 531.864 574.789 534.66C573.226 538.861 571.925 544.69 570.81 552.488C568.835 566.329 567.668 584.946 566.542 602.954C565.514 619.4 564.449 636.399 562.784 649.73C561.2 662.381 559.457 668.194 558.336 670.804C557.272 668.715 555.637 664.405 553.801 655.669C551.688 645.606 549.935 632.829 548.243 620.469C546.351 606.678 544.567 593.654 542.258 583.531C540.932 577.724 539.533 573.359 537.98 570.189C534.72 563.543 530.592 562.15 527.702 562.15C518.19 562.15 515.023 574.149 513.984 578.091C512.097 585.242 510.904 594.411 509.634 604.117C508.256 614.673 506.832 625.597 504.503 633.586C503.408 637.337 502.22 640.095 500.961 641.784C499.881 643.238 499.253 643.238 498.986 643.238C498.318 643.238 497.305 643.238 495.947 639.914C494.456 636.273 493.572 630.801 492.713 625.509C491.783 619.778 490.821 613.856 488.95 609.107C485.428 600.18 479.7 598.304 475.52 598.304C471.34 598.304 467.334 600.174 464.506 603.711C462.439 606.299 461.18 609.359 460.074 612.057C459.313 613.905 458.532 615.814 457.755 616.812C457.401 617.267 457.334 617.267 456.953 617.267H366.877V617.316C363.602 617.519 361 620.414 361 623.962C361 627.51 363.792 630.62 367.242 630.62C367.468 630.62 367.694 630.609 367.916 630.581H456.948C461.072 630.581 464.671 628.761 467.35 625.322C469.252 622.882 470.445 619.97 471.499 617.404C473.679 612.096 474.296 611.624 475.515 611.624C475.844 611.624 475.905 611.679 476.034 611.805C476.24 611.997 476.785 612.622 477.438 614.278C478.759 617.629 479.597 622.794 480.409 627.785C481.397 633.855 482.415 640.134 484.507 645.25C488.333 654.6 494.492 656.563 498.986 656.563C502.148 656.563 506.75 655.439 510.74 650.07C512.987 647.049 514.843 642.952 516.416 637.556C519.049 628.525 520.545 617.053 521.995 605.965C523.018 598.101 523.99 590.676 525.28 584.721C526.062 581.102 526.802 578.826 527.389 577.406C528.278 579.55 529.527 583.454 530.931 590.446C532.751 599.494 534.273 610.621 535.888 622.405C537.836 636.619 539.847 651.315 542.484 662.496C543.996 668.907 545.61 673.727 547.415 677.231C551.019 684.217 555.441 685.687 558.516 685.687C558.516 685.687 558.521 685.687 558.526 685.687C561.987 685.687 566.82 683.833 570.203 675.021C571.895 670.618 573.298 664.503 574.491 656.327C576.609 641.823 577.818 622.515 578.985 603.848C579.972 588.077 580.99 571.769 582.533 559.079C583.34 552.444 584.214 547.317 585.211 543.407C585.679 541.575 586.116 540.243 586.486 539.283C587.566 540.967 589.181 543.999 591.35 549.412C594.281 556.738 597.279 565.945 600.451 575.689C604.482 588.077 608.657 600.887 613.038 610.758C617.136 619.992 622.972 630.581 631.789 630.581H631.815C653.837 630.532 717.228 630.576 725.084 630.581C725.306 630.609 725.532 630.62 725.758 630.62C729.203 630.62 732 627.642 732 623.962C732 620.283 729.275 617.387 725.892 617.311L725.897 617.305Z" fill="white"/>
</g>
<defs>
<clipPath id="clip0_6285_4535">
<rect width="1920" height="1080" fill="white"/>
</clipPath>
</defs>
</svg>
